<?xml version="1.0" encoding="UTF-8"?>
<svg width="160px" height="160px" viewBox="0 0 160 160" version="1.1" xmlns="http://www.w3.org/2000/svg" xmlns:xlink="http://www.w3.org/1999/xlink">
    <title>logo-icarleads</title>
    <g id="logo-icarleads" stroke="none" stroke-width="1" fill="none" fill-rule="evenodd">
        <g id="Group-21" transform="translate(12.000000, 103.000000)" fill="#202020" fill-rule="nonzero">
            <g id="Group" transform="translate(57.706876, 0.000000)">
                <polygon id="Path" points="0.00975815851 1.1180599 4.09282925 1.1180599 4.09282925 19.239022 12.7611203 19.239022 12.7611203 22.5760836 0.00975815851 22.5760836"></polygon>
                <path d="M21.8361087,6.6073235 C25.9504604,6.6073235 28.7458013,9.81971354 28.7458013,14.404524 C28.7458013,14.8410344 28.7458013,15.340434 28.6832153,15.8705281 L18.0361728,15.8705281 C18.2872348,18.2409852 20.171773,19.8627242 22.8098441,19.8627242 C24.2544478,19.8627242 25.8562471,19.3326302 27.4896737,18.3967202 L27.4896737,21.7341508 C25.6993983,22.5450203 23.909123,22.9504673 22.1505245,22.9504673 C17.4077375,22.9504673 14.0786699,19.5194531 14.0786699,14.6542361 C14.0786699,9.94438513 17.3451763,6.6073235 21.8361087,6.6073235 Z M24.8828832,13.2818157 C24.7573645,11.1610706 23.4696096,9.69506655 21.6793342,9.69506655 C19.7322101,9.69506655 18.2243022,11.1296137 18.0361976,13.2818157 L24.8828832,13.2818157 Z" id="Shape"></path>
                <path d="M40.3963491,21.3287037 C39.0143313,22.3888918 37.475539,22.9504427 35.8737398,22.9504427 C32.9528555,22.9504427 30.8799155,21.0479282 30.8799155,18.303112 C30.8799155,15.059634 33.9579458,12.8138484 38.4492497,12.8138484 C39.0773135,12.8138484 39.7053773,12.8449117 40.3963738,12.8763686 L40.3963738,12.1591073 C40.3963738,10.6931033 39.2028322,9.69504196 37.4442337,9.69504196 C35.8108071,9.69504196 34.0205318,10.1940726 32.2306031,11.1921094 L32.2306031,7.88611111 C34.1464219,7.01272135 36.0622159,6.6072989 37.9150772,6.6072989 C41.74669,6.6072989 44.2279866,8.97775608 44.2279866,12.3462746 L44.2279866,22.576059 L40.3963738,22.576059 L40.3963738,21.3287037 L40.3963491,21.3287037 Z M37.1928001,19.8627242 C38.292079,19.8627242 39.4226136,19.3011979 40.3963491,18.3345689 L40.3963491,15.2779138 C39.8308712,15.2153935 39.2658144,15.1843302 38.6373295,15.1843302 C36.3762602,15.1843302 34.8373936,16.2448872 34.8373936,17.7419546 C34.8373936,18.9893345 35.8107823,19.8627242 37.1928001,19.8627242 Z" id="Shape"></path>
                <path d="M62.5680492,22.5760836 L58.5166302,22.5760836 L58.5166302,21.4844633 C57.2914117,22.4514366 55.909815,22.9504673 54.5277972,22.9504673 C50.3504881,22.9504673 47.4296285,19.5819488 47.4296285,14.7788831 C47.4296285,9.97584201 50.3505128,6.6073235 54.5277972,6.6073235 C55.909815,6.6073235 57.2913869,7.10635417 58.5166302,8.04189525 L58.5166302,0.151086516 L62.5680492,0.151086516 L62.5680492,22.5760836 Z M55.4072946,19.5194285 C56.5065734,19.5194285 57.6058523,19.0518547 58.5166302,18.1159447 L58.5166302,11.4414525 C57.6058275,10.5059115 56.5065487,10.0379687 55.4072946,10.0379687 C53.1144741,10.0379687 51.544005,11.9719155 51.544005,14.7788831 C51.544005,17.5858507 53.1144741,19.5194285 55.4072946,19.5194285 Z" id="Shape"></path>
                <path d="M66.3351938,18.3656322 C67.8427302,19.3011733 69.3815224,19.8001794 70.8890836,19.8001794 C72.3024068,19.8001794 73.2760927,19.0829181 73.2760927,18.0848568 C73.2760927,15.465081 65.9898689,16.8685648 65.9898689,11.4103646 C65.9898689,8.57233362 68.4707197,6.6072989 71.9883377,6.6072989 C73.4646183,6.6072989 75.0034105,6.91913773 76.4483858,7.51175203 L76.4483858,10.9738542 C75.0976981,10.1629847 73.6530944,9.75756221 72.2710766,9.75756221 C70.9520163,9.75756221 70.0099578,10.4123278 70.0099578,11.3482133 C70.0099578,13.8429731 77.2962311,12.4394893 77.2962311,18.0223365 C77.2962311,20.9228877 74.7836291,22.9504181 71.140542,22.9504181 C69.5387427,22.9504181 67.9369187,22.5760344 66.3351938,21.8898611 L66.3351938,18.3656322 L66.3351938,18.3656322 Z" id="Path"></path>
            </g>
            <g id="Group" transform="translate(-0.000000, 0.983796)">
                <path d="M1.89630245,0.128926505 C2.97651078,0.128926505 3.74839598,0.864781539 3.74839598,1.93748843 C3.74839598,3.01019531 2.97648601,3.74602575 1.89630245,3.74602575 C0.816069347,3.74602575 0.0441593823,3.01019531 0.0441593823,1.93748843 C0.0441593823,0.864781539 0.816069347,0.128926505 1.89630245,0.128926505 Z M0.352482517,6.25974826 L3.44009761,6.25974826 L3.44009761,21.5883275 L0.352482517,21.5883275 L0.352482517,6.25974826 Z" id="Shape"></path>
                <path d="M17.4564292,0.128926505 C19.4939525,0.128926505 21.5315006,0.680639468 23.4454371,1.66126302 L23.4454371,4.60465856 C21.5933435,3.4091739 19.7102914,2.79612124 17.920016,2.79612124 C13.5358537,2.79612124 10.5107998,6.19912182 10.5107998,11.0424002 C10.5107998,15.8557219 13.5358537,19.2894661 17.920016,19.2894661 C19.7102914,19.2894661 21.5933188,18.6756264 23.4454371,17.4801664 L23.4454371,20.4235619 C21.5315006,21.4042101 19.4939525,21.9558984 17.4564292,21.9558984 C11.4674213,21.9558984 7.23854749,17.4188021 7.23854749,11.0424248 C7.23854749,4.66604745 11.4674213,0.128926505 17.4564292,0.128926505 Z" id="Path"></path>
                <path d="M35.7046314,20.1779818 C34.2535388,21.3120775 32.6479502,21.9558492 30.9812617,21.9558492 C28.1408945,21.9558492 26.1342803,20.1166175 26.1342803,17.5108116 C26.1342803,14.3533174 29.1291681,12.1458015 33.4816536,12.1458015 C34.2226297,12.1458015 34.9636553,12.1764959 35.7046314,12.2378602 L35.7046314,11.1958478 C35.7046314,9.50930122 34.346266,8.31381655 32.4323543,8.31381655 C30.8576253,8.31381655 29.1600524,8.77418403 27.4617118,9.72413773 L27.4617118,7.11835648 C29.2520119,6.29044271 31.0430798,5.89220197 32.7715618,5.89220197 C36.3219712,5.89220197 38.6678424,8.13043692 38.6678424,11.2879311 L38.6678424,21.5883275 L35.7046066,21.5883275 L35.7046066,20.1779818 L35.7046314,20.1779818 Z M31.9069493,19.5342101 C33.2034965,19.5342101 34.5309528,18.8904384 35.7046314,17.6949783 L35.7046314,14.1998698 C35.0254487,14.1384809 34.3771999,14.1077865 33.6670833,14.1077865 C31.0121707,14.1077865 29.2211276,15.3347034 29.2211276,17.0818764 C29.2211276,18.5228921 30.3329881,19.5342101 31.9069493,19.5342101 Z" id="Shape"></path>
                <path d="M43.2389452,6.25974826 L46.3265603,6.25974826 L46.3265603,7.97698929 C47.4994712,6.628057 48.9505638,5.89222656 50.4016812,5.89222656 C50.8335912,5.89222656 51.3273441,5.95361545 51.7901879,6.07636863 L51.7901879,8.86555411 C51.3273441,8.71284433 50.8026821,8.62078559 50.2780449,8.62078559 C48.8887704,8.62078559 47.4376777,9.41802951 46.3265603,10.8275637 L46.3265603,21.5883275 L43.2389452,21.5883275 L43.2389452,6.25974826 Z" id="Path"></path>
            </g>
        </g>
        <g id="Group" transform="translate(38.227273, 32.208333)" fill-rule="nonzero">
            <path d="M61.5092966,31.5658952 C56.5058693,37.020991 52.0582303,42.9856272 48.2464128,49.372875 C47.1608474,51.2006966 46.1241914,53.0609717 45.1447815,54.957674 C45.1121012,55.0144122 45.0834225,55.0752348 45.0549661,55.131973 C44.3571185,56.4004703 43.0062199,57.2637417 41.4472341,57.2637417 C39.9044774,57.2637417 38.5576915,56.4127231 37.8598439,55.1562579 C37.8230508,55.0873772 37.7904816,55.0184965 37.7496867,54.9495606 C36.7416538,53.0123468 35.6765414,51.1115602 34.5542384,49.2473113 C30.7423654,42.9046592 26.2890017,36.9804794 21.2936334,31.5658952 L61.5092966,31.5658952 L61.5092966,31.5658952 Z" id="Path" fill="#E35805"></path>
            <path d="M81.8177399,6.4524306 C79.8647003,9.7280159 77.7421454,12.8918357 75.462747,15.934176 L7.40137518,15.934176 C5.13048039,12.889628 3.01815195,9.7218343 1.07522775,6.44343416 C-0.534112409,3.7280011 1.44293719,0.302512015 4.61582056,0.302512015 L78.2825938,0.302512015 C81.4600902,0.302512015 83.4367507,3.73721831 81.8177399,6.4524306 Z" id="Path" fill="#FFDA00"></path>
            <path d="M75.462747,15.934176 C72.4590456,19.9423912 69.1818408,23.735851 65.6556984,27.2901602 C65.2394687,27.6913571 64.8272406,28.1007224 64.4232382,28.5140617 C63.7008248,29.2395717 62.986637,29.9811429 62.2887338,30.7269087 C62.2846766,30.7309929 62.2846766,30.7309929 62.2846766,30.7309929 C62.0235673,31.0106551 61.7663486,31.286233 61.5092966,31.56584 L21.2936334,31.56584 C21.1752505,31.4402211 21.0609249,31.3145469 20.9426532,31.188928 C19.9794723,30.1554419 18.9999513,29.1422115 17.9959756,28.1452631 C17.9919183,28.141234 17.9919183,28.141234 17.9877499,28.1372049 C14.1638163,24.339716 10.6213338,20.2585359 7.4013196,15.934176 L75.462747,15.934176 L75.462747,15.934176 Z" id="Path" fill="#F5A500"></path>
        </g>
    </g>
</svg>