<?xml version="1.0" encoding="UTF-8"?>
<svg width="900px" height="450px" viewBox="0 0 900 450" version="1.1" xmlns="http://www.w3.org/2000/svg" xmlns:xlink="http://www.w3.org/1999/xlink">
    <title>card-aeiou</title>
    <defs>
        <rect id="path-1" x="0" y="0" width="900" height="450"></rect>
        <linearGradient x1="50%" y1="11.0547981%" x2="50%" y2="135.058874%" id="linearGradient-3">
            <stop stop-color="#FABFBF" offset="0%"></stop>
            <stop stop-color="#EC8B8B" offset="100%"></stop>
        </linearGradient>
        <linearGradient x1="50%" y1="0%" x2="50%" y2="100%" id="linearGradient-4">
            <stop stop-color="#F7B5B5" offset="0%"></stop>
            <stop stop-color="#F9D9D9" offset="100%"></stop>
        </linearGradient>
        <linearGradient x1="50%" y1="0%" x2="50%" y2="135.058874%" id="linearGradient-5">
            <stop stop-color="#FABFBF" offset="0%"></stop>
            <stop stop-color="#EC8B8B" offset="100%"></stop>
        </linearGradient>
        <linearGradient x1="69.8783661%" y1="6.06166293%" x2="30.9575046%" y2="96.7456339%" id="linearGradient-6">
            <stop stop-color="#FFC4C4" offset="0%"></stop>
            <stop stop-color="#EAA1A1" offset="100%"></stop>
        </linearGradient>
        <linearGradient x1="69.8783661%" y1="6.06166293%" x2="30.9575046%" y2="96.7456339%" id="linearGradient-7">
            <stop stop-color="#FFC4C4" offset="0%"></stop>
            <stop stop-color="#EAA1A1" offset="100%"></stop>
        </linearGradient>
        <linearGradient x1="50%" y1="0.659839527%" x2="50%" y2="100%" id="linearGradient-8">
            <stop stop-color="#FFA300" offset="0%"></stop>
            <stop stop-color="#FF6100" offset="100%"></stop>
        </linearGradient>
        <linearGradient x1="50%" y1="0.659839527%" x2="50%" y2="100%" id="linearGradient-9">
            <stop stop-color="#FFA300" offset="0%"></stop>
            <stop stop-color="#FF6100" offset="100%"></stop>
        </linearGradient>
    </defs>
    <g id="Page-1" stroke="none" stroke-width="1" fill="none" fill-rule="evenodd">
        <g id="home" transform="translate(-350.000000, -1430.000000)">
            <g id="card-aeiou" transform="translate(350.000000, 1430.000000)">
                <g id="Group-12">
                    <mask id="mask-2" fill="white">
                        <use xlink:href="#path-1"></use>
                    </mask>
                    <use id="Mask" fill="#302060" xlink:href="#path-1"></use>
                    <g mask="url(#mask-2)">
                        <g transform="translate(48.000000, 31.000000)">
                            <g id="Group-3" transform="translate(247.000000, 24.000000)">
                                <ellipse id="Oval" fill="#1C0E46" cx="155.200339" cy="342.146201" rx="155.200339" ry="17.6364021"></ellipse>
                                <g id="Group" transform="translate(1.410912, 0.000000)">
                                    <path d="M145.34814,98.1994885 C144.659308,109.309936 142.08698,117.469643 137.631156,122.678608 C133.175332,127.887572 126.129425,131.234736 116.493434,132.720099 C128.479646,156.941341 140.848374,168.980591 153.599619,168.837847 C166.350865,168.695104 178.956844,157.188769 191.417557,134.318841 C182.787015,132.57046 175.611351,128.690383 169.890565,122.678608 C164.16978,116.666832 161.535808,108.507126 161.988649,98.1994885 L145.34814,98.1994885 Z" id="Path-3" fill="url(#linearGradient-3)"></path>
                                    <circle id="Oval" fill="#120C20" cx="150.353122" cy="18.059676" r="18.059676"></circle>
                                    <path d="M113.107245,266.474174 L153.741516,257.047379 L153.741516,302.563808 L71.4278379,301.370844 C83.5210474,294.479168 92.023518,288.977121 96.9352497,284.864705 C101.846981,280.752288 107.237646,274.622112 113.107245,266.474174 Z" id="Rectangle" fill="#6C2A88"></path>
                                    <path d="M194.714661,266.380222 L236.055194,258.638944 L236.016494,302.563808 L153.035255,301.276891 C165.128464,294.385215 173.630935,288.883169 178.542666,284.770752 C183.454398,280.658336 188.845063,274.528159 194.714661,266.380222 Z" id="Rectangle-Copy-3" fill="#6C2A88" transform="translate(194.545224, 280.601376) scale(-1, 1) translate(-194.545224, -280.601376) "></path>
                                    <path d="M64.5718653,298.457594 C86.5820481,302.344401 128.859887,300.241499 132.145535,298.457594 C136.044529,296.340678 135.234049,291.289003 143.426422,288.43606 C152.010359,285.446759 160.776683,294.393209 167.755273,294.831435 C174.733864,295.269662 176.857627,290.901194 182.682746,290.901194 C188.507866,290.901194 189.115573,294.018214 193.576576,294.151764 C198.037578,294.285313 202.109075,292.152009 203.491559,294.831435 C204.874042,297.510861 202.57502,295.564836 196.024047,298.457594 C192.810038,299.876826 174.790282,303.518658 157.323199,309.99781 C151.049201,312.325055 131.468598,321.455717 109.19363,329.40805 C95.4272236,334.322761 81.5665981,338.604798 67.6117532,342.254162" id="Path-5-Copy" fill="#EDA6A6" transform="translate(134.224546, 315.040125) scale(-1, 1) translate(-134.224546, -315.040125) "></path>
                                    <path d="M152.612786,98.1044473 C159.636577,98.1044473 165.409996,93.3830429 171.801192,88.7831932 C181.131658,82.0679015 188.385305,73.4299782 188.385305,62.0801364 C188.385305,41.5085888 173.184334,24.8320545 152.612786,24.8320545 C132.041238,24.8320545 115.364704,41.5085888 115.364704,62.0801364 C115.364704,82.6516839 132.041238,98.1044473 152.612786,98.1044473 Z" id="Oval" fill="#120C20"></path>
                                    <path d="M129.435381,73.2268716 C129.435381,88.4811443 141.523235,107.094772 153.97673,107.094772 C166.430225,107.094772 177.686135,86.2478248 177.686135,73.2268716 C172.638509,69.6436916 157.764139,65.4812233 154.163984,52.7306764 C154.163984,52.7306764 148.076642,70.4073428 129.435381,73.2268716 Z" id="Path" fill="url(#linearGradient-4)"></path>
                                    <path d="M178.239343,67.1044611 C175.817026,69.0027583 174.358562,71.3099816 173.863951,74.0261312 C173.171336,77.8296202 175.315874,82.0366697 174.794907,88.1099222 C174.567715,90.7584546 173.56981,95.8992556 171.801192,103.532325 C177.329229,97.2570166 181.559759,90.6888515 184.49278,83.8278296 C187.425802,76.9668077 188.72331,69.323825 188.385305,60.8988813" id="Path-2" fill="#120C20"></path>
                                    <path d="M154.163984,209.943734 L154.217245,210.167734 L188.358028,216.178843 C185.06208,226.667083 183.377485,234.913116 183.304241,240.916942 L183.301744,241.322819 C183.301744,247.358861 187.049571,255.742646 194.545224,266.474174 C177.543053,262.978751 163.941817,262.574113 153.741516,265.260261 L153.741516,265.260261 C143.541215,262.574113 129.996458,262.978751 113.107245,266.474174 C119.706452,256.187309 123.006056,248.025855 123.006056,241.989813 C123.006056,235.953771 121.587668,227.350115 118.750893,216.178843 L152.893245,210.167734 L152.944937,209.943734 L153.554245,210.050734 L154.163984,209.943734 Z" id="Combined-Shape" fill="url(#linearGradient-5)"></path>
                                    <path d="M237.267517,349.906218 C262.826107,349.906218 297.212014,340.930211 297.212014,340.930211 C286.002401,321.84457 296.784055,298.094356 296.784055,297.440843 C290.744414,293.673993 251.760273,283.311168 237.267517,283.311168 C211.708928,283.311168 190.989598,299.482353 190.989598,319.43052 C190.989598,339.378687 211.708928,349.906218 237.267517,349.906218 Z" id="Oval-Copy" fill="#8440A0" transform="translate(244.100806, 316.608693) scale(-1, 1) translate(-244.100806, -316.608693) "></path>
                                    <path d="M190.989598,296.991318 C194.462241,305.319828 196.198563,312.799562 196.198563,319.43052 C196.198563,326.061478 194.462241,333.228041 190.989598,340.930211" id="Path-11" stroke="#101011" stroke-width="3.02338322" stroke-linecap="round"></path>
                                    <path d="M103.476103,297.997066 C125.486285,301.883874 167.764124,299.780972 171.049772,297.997066 C174.948767,295.88015 174.138287,290.828475 182.33066,287.975533 C190.914596,284.986231 199.68092,293.932681 206.659511,294.370908 C213.638101,294.809134 215.761864,290.440667 221.586984,290.440667 C227.412103,290.440667 228.019811,293.557687 232.480813,293.691236 C236.941815,293.824786 241.013312,291.691482 242.395796,294.370908 C243.778279,297.050334 241.479257,295.104308 234.928284,297.997066 C231.714275,299.416298 213.694519,303.058131 196.227436,309.537282 C189.953438,311.864528 170.372835,320.99519 148.097867,328.947522 C140.604924,331.622559 129.558721,335.398758 114.959258,340.276118 C106.810329,342.998496 92.2998555,343.657844 71.4278379,342.254162" id="Path-5" fill="#FABFBF"></path>
                                    <path d="M58.9282165,349.906218 C84.4868059,349.906218 118.872713,340.930211 118.872713,340.930211 C107.6631,321.84457 116.13569,298.502302 116.13569,297.848789 C110.096049,294.081939 73.4209719,283.311168 58.9282165,283.311168 C33.3696272,283.311168 12.6502967,299.482353 12.6502967,319.43052 C12.6502967,339.378687 33.3696272,349.906218 58.9282165,349.906218 Z" id="Oval" fill="#8440A0"></path>
                                    <path d="M119.687376,132.099514 C114.257844,133.640056 88.5718297,132.166794 80.0136776,157.548217 C71.4555255,182.929641 79.9198912,230.414641 76.7541731,238.208954 C74.6762061,243.325116 65.9317987,248.137815 57.3129891,257.047379 C48.6941795,265.956944 38.8556414,277.582313 35.4036994,280.601376 C33.1024047,282.614085 28.8344494,283.657858 22.5998335,283.732696 C20.156388,283.500627 17.6056182,283.500627 14.9475242,283.732696 C10.960383,284.080799 1.80858222,288.061453 3.88952854,291.142074 C5.97047485,294.222695 15.0886068,285.378456 16.2733445,288.602981 C16.7367254,289.864175 17.2839254,292.487005 16.5596793,293.408434 C15.8354333,294.329864 15.0625737,294.778095 12.6502967,295.133977 C10.2380197,295.48986 7.36506286,291.834474 5.85578516,291.834474 C4.34650745,291.834474 5.26753749,294.996218 7.95196521,296.2911 C9.61388405,297.092757 11.2801304,297.769499 10.6325945,298.236709 C1.82553305,304.591172 -0.565933146,306.089984 0.10665535,307.025457 C0.406005894,307.44181 1.32254524,307.524815 2.85627339,307.274471 C2.69449543,307.875044 2.97504929,308.253577 3.69793498,308.41007 C4.42082067,308.566562 5.26243953,308.432992 6.22279158,308.009358 C6.18965918,308.832669 6.85845931,309.129573 8.22919198,308.900069 C10.285291,308.555814 27.5822177,295.797735 38.8556055,289.4509 C58.0883101,278.623029 86.7560723,260.484911 91.1370187,252.594974 C97.1009708,241.854097 101.235316,220.551586 103.540055,188.68744 C109.035785,173.346998 111.913785,162.967257 112.174054,157.548217 C112.919865,142.019748 130.044286,131.339286 119.687376,132.099514 Z" id="Path-4" fill="url(#linearGradient-6)"></path>
                                    <path d="M304.51687,132.663877 C299.087338,134.204418 273.401324,132.731157 264.843172,158.11258 C256.28502,183.494004 264.749385,230.979004 261.583667,238.773317 C259.5057,243.889479 250.761293,248.702178 242.142483,257.611742 C233.523674,266.521307 223.685136,278.146675 220.233194,281.165739 C217.931899,283.178448 213.663944,284.222221 207.429328,284.297058 C204.985882,284.064989 202.435112,284.064989 199.777018,284.297058 C195.789877,284.645162 186.638076,288.625816 188.719023,291.706437 C190.799969,294.787058 199.918101,285.942819 201.102839,289.167344 C201.56622,290.428538 202.113419,293.051368 201.389173,293.972797 C200.664927,294.894226 199.892068,295.342457 197.479791,295.69834 C195.067514,296.054223 192.194557,292.398836 190.685279,292.398836 C189.176002,292.398836 190.097032,295.560581 192.781459,296.855463 C194.443378,297.657119 196.109625,298.333862 195.462089,298.801072 C186.655027,305.155535 184.263561,306.654346 184.936149,307.58982 C185.2355,308.006173 186.152039,308.089178 187.685768,307.838834 C187.52399,308.439407 187.804543,308.81794 188.527429,308.974433 C189.250315,309.130925 190.091934,308.997355 191.052286,308.573721 C191.019153,309.397032 191.687953,309.693935 193.058686,309.464432 C195.114785,309.120177 212.411712,296.362097 223.6851,290.015263 C242.917804,279.187392 271.585566,261.049274 275.966513,253.159337 C281.930465,242.41846 286.06481,221.115948 288.369549,189.251803 C293.865279,173.911361 296.743279,163.53162 297.003548,158.11258 C297.749359,142.584111 314.87378,131.903649 304.51687,132.663877 Z" id="Path-4-Copy" fill="url(#linearGradient-7)" transform="translate(246.332522, 221.082610) scale(-1, 1) translate(-246.332522, -221.082610) "></path>
                                    <path d="M124.376876,131.590036 C124.37809,131.596402 124.379252,131.602777 124.380363,131.609161 C128.267482,153.944139 138.007357,165.24408 153.599988,165.508983 C169.216336,165.247507 179.344546,154.111146 183.985565,132.099952 C184.118852,131.467807 184.725453,131.052049 185.363112,131.155799 L185.363112,131.155799 L195.551287,132.813411 C196.126793,132.907045 196.553552,133.397982 196.566145,133.980919 C196.849225,147.055917 197.299534,156.264772 197.917073,161.607483 C199.227196,172.942179 204.375257,181.948631 203.68322,188.68744 C202.489432,200.312114 197.152975,210.535537 187.673849,219.357708 C182.639307,216.862096 177.50888,215.131348 172.282567,214.165464 C167.056254,213.19958 160.700736,212.716639 153.216012,212.716639 L153.599103,212.716944 L153.124616,212.718782 C146.011287,212.754502 139.941973,213.23673 134.916672,214.165464 C129.690359,215.131348 124.559932,216.862096 119.52539,219.357708 C110.062288,210.535537 104.733843,200.312114 103.540055,188.68744 C102.848017,181.948631 107.972043,172.942179 109.282166,161.607483 C109.900136,156.261035 110.350643,147.043034 110.633687,133.953478 C110.646041,133.382871 111.055636,132.898566 111.616279,132.791681 L122.962449,130.628558 C123.618536,130.503488 124.251795,130.933952 124.376876,131.590036 Z" id="Combined-Shape" fill="#8440A0"></path>
                                    <path d="M113.107245,266.474174 C122.348732,264.443873 128.838154,263.359865 132.575512,263.222152 C142.49504,262.856638 149.640062,265.131078 153.611502,265.131078 C157.780094,265.131078 165.12109,262.819448 175.971755,263.222152 C179.524465,263.354004 185.715622,264.438012 194.545224,266.474174" id="Path-9" stroke="#101011" stroke-width="3.02338322" stroke-linecap="round"></path>
                                    <path d="M116.13569,297.848789 C114.116726,305.062681 113.107245,312.256591 113.107245,319.43052 C113.107245,326.604448 115.029068,333.771012 118.872713,340.930211" id="Path-10" stroke="#101011" stroke-width="3.02338322" stroke-linecap="round"></path>
                                    <path d="M119.52539,219.357708 C130.875547,215.02373 142.233624,212.856741 153.599619,212.856741 C164.965615,212.856741 176.323692,215.02373 187.673849,219.357708" id="Path-12" stroke="#101011" stroke-width="3.02338322" stroke-linecap="round"></path>
                                </g>
                            </g>
                            <g id="Group-4-Copy" transform="translate(160.500000, 215.000000) rotate(-64.000000) translate(-160.500000, -215.000000) translate(-39.000000, 134.000000)">
                                <path d="M0.516957332,161.916749 C12.4110698,89.0535048 28.2156291,48.9746128 47.9306352,41.6800725 C67.6456414,34.3855322 75.7754094,42.4840564 72.3199393,65.9756451 C98.9032648,25.9406812 122.313977,4.41406051 142.552075,1.39578312 C162.790173,-1.62249427 169.280612,11.8056022 162.023392,41.6800725 C258.000312,-4.7201001 327.929799,-11.5993516 371.811853,21.042318 C401.315846,42.9888656 409.451536,76.2156564 382.653569,86.7357972 C354.607484,97.7459146 302.715735,86.6917971 264.98824,83.9824736 C238.495173,82.0799277 219.179379,89.3821406 219.179379,89.3821406 C219.179379,89.3821406 251.834123,114.346472 226.295674,125.237936 C200.757225,136.129399 161.894496,118.48382 134.60137,112.768349 C116.405952,108.958035 104.671469,111.357188 99.3979208,119.965806 C124.590474,134.987159 128.53406,146.510086 111.228677,154.534586 C85.2706041,166.571336 59.3118618,156.776317 23.6787689,155.938241 C16.882048,155.778386 9.16144417,157.771221 0.516957332,161.916749 Z" id="Path-13" fill="url(#linearGradient-8)"></path>
                                <path d="M0.901636182,155.785492 C2.45270053,155.785492 76.0185234,82.6982984 168.841145,54.9674603 C230.722893,36.4802349 290.769328,32.9604674 348.980451,44.4081579" id="Path-23" stroke="#FFFFFF" stroke-width="2.85403909" opacity="0.628138951" stroke-linecap="round" stroke-linejoin="round"></path>
                            </g>
                            <g id="Group-2" transform="translate(629.988127, 238.465495) scale(-1, 1) rotate(10.000000) translate(-629.988127, -238.465495) translate(471.988127, 40.465495)">
                                <g id="Group-4" transform="translate(157.923137, 197.848720) rotate(-60.000000) translate(-157.923137, -197.848720) translate(-27.076863, 122.848720)">
                                    <path d="M0.318076481,149.921715 C11.3541947,82.2736611 26.0186755,45.0634178 44.3115191,38.2909846 C62.6043626,31.5185514 70.1476813,39.0374233 66.9414752,60.8476003 C91.6071846,23.678141 113.32914,3.69228924 132.107342,0.890045208 C150.885544,-1.91219883 156.907788,10.554781 150.174075,38.2909846 C239.227599,-4.78809337 304.11265,-11.1749621 344.829226,19.1303784 C372.204918,39.5061008 379.753731,70.3546823 354.888863,80.1218435 C328.865912,90.3439112 280.717429,80.0809927 245.711446,77.5655892 C221.129484,75.7992181 203.207056,82.5787747 203.207056,82.5787747 C203.207056,82.5787747 233.506216,105.756283 209.810009,115.86819 C186.113802,125.980096 150.054478,109.5975 124.730169,104.291114 C107.847297,100.753524 96.9592932,102.980957 92.0661581,110.973413 C115.44142,124.919612 119.100531,135.617784 103.043491,143.067931 C78.9579302,154.24315 54.871749,145.149209 21.8090865,144.371119 C15.5026542,144.222705 8.33898421,146.072904 0.318076481,149.921715 Z" id="Path-13" fill="#402C80"></path>
                                    <path d="M0.649668198,143.551447 C2.09100612,143.551447 70.4525866,75.8345282 156.708689,50.1412868 C214.212757,33.0124591 270.011348,29.7513159 324.10446,40.3578571" id="Path-23" stroke="#FFFFFF" stroke-width="2.54722989" opacity="0.628138951" stroke-linecap="round" stroke-linejoin="round"></path>
                                </g>
                            </g>
                            <g id="Group-2" transform="translate(609.398995, 289.295443) scale(-1, 1) translate(-609.398995, -289.295443) translate(490.398995, 140.795443)">
                                <g id="Group-4" transform="translate(119.152057, 148.280404) rotate(-60.000000) translate(-119.152057, -148.280404) translate(-19.347943, 91.780404)">
                                    <path d="M0.237936118,112.14847 C8.49346984,61.5445551 19.4631889,33.7095488 33.1470934,28.6434514 C46.8309978,23.5773539 52.4737538,29.2018225 50.0753613,45.5168573 C68.5264682,17.7123593 84.7755092,2.76200543 98.8224844,0.665795536 C112.86946,-1.43041436 117.374381,7.89547092 112.337248,28.6434514 C178.953458,-3.58171828 227.490517,-8.35939547 257.948425,14.3104198 C278.426726,29.5524152 284.073592,52.6286002 265.473505,59.9348946 C246.007118,67.5814805 209.989795,59.9043363 183.803679,58.0226966 C165.41522,56.7013682 152.008403,61.7727944 152.008403,61.7727944 C152.008403,61.7727944 174.673595,79.1106572 156.947722,86.6748372 C139.221848,94.2390172 112.247783,81.9840673 93.3040134,78.0146421 C80.6748335,75.3683587 72.5300963,77.0345829 68.8698019,83.0133149 C86.3555936,93.4457254 89.09278,101.44846 77.0813612,107.021518 C59.0642329,115.381106 41.0466403,108.578412 16.314219,107.996365 C11.596712,107.885344 6.23795108,109.269379 0.237936118,112.14847 Z" id="Path-13" fill="url(#linearGradient-9)"></path>
                                    <path d="M0.485982265,107.383211 C1.5641706,107.383211 52.7018373,56.7277819 117.225445,37.5080329 C160.241184,24.6948669 201.981145,22.2553789 242.445328,30.1895689" id="Path-23" stroke="#FFFFFF" stroke-width="2.12269157" opacity="0.628138951" stroke-linecap="round" stroke-linejoin="round"></path>
                                </g>
                            </g>
                        </g>
                    </g>
                </g>
            </g>
        </g>
    </g>
</svg>