<?xml version="1.0" encoding="UTF-8"?>
<svg width="1080px" height="1080px" viewBox="0 0 1080 1080" version="1.1" xmlns="http://www.w3.org/2000/svg" xmlns:xlink="http://www.w3.org/1999/xlink">
    <title>app-aeiou</title>
    <defs>
        <linearGradient x1="50%" y1="0.659839527%" x2="50%" y2="100%" id="linearGradient-1">
            <stop stop-color="#FFA300" offset="0%"></stop>
            <stop stop-color="#FF6100" offset="100%"></stop>
        </linearGradient>
        <path d="M0.920685606,273.953612 C21.1475621,150.043918 48.024462,81.8866004 81.5513853,69.4816592 C115.078309,57.076718 128.90362,70.8488973 123.027321,110.798197 C168.234363,42.7155826 208.046125,6.10786596 242.462608,0.975047154 C276.87909,-4.15777165 287.916594,18.6777657 275.575118,69.4816592 C438.791442,-9.42549474 557.712051,-21.1242046 632.336946,34.3855296 C682.510814,71.7073651 696.346196,128.212144 650.77414,146.102473 C603.07956,164.826047 514.833546,146.027648 450.674965,141.420229 C405.621414,138.1848 372.773384,150.602789 372.773384,150.602789 C372.773384,150.602789 428.305352,193.056605 384.875204,211.578398 C341.445057,230.10019 275.355922,200.09249 228.941806,190.372882 C197.999063,183.893142 178.043649,187.97309 169.075564,202.612726 C211.917489,228.157721 218.623867,247.753367 189.194699,261.399662 C145.050948,281.869105 100.906059,265.211902 40.3091733,263.786689 C28.7508133,263.514841 15.6213174,266.903816 0.920685606,273.953612 Z" id="path-2"></path>
        <linearGradient x1="95.6372006%" y1="50.000009%" x2="4.53147714%" y2="50%" id="linearGradient-4">
            <stop stop-color="#000000" stop-opacity="0" offset="0%"></stop>
            <stop stop-color="#000000" offset="6.74671793%"></stop>
            <stop stop-color="#000000" offset="92.8003243%"></stop>
            <stop stop-color="#000000" stop-opacity="0" offset="100%"></stop>
        </linearGradient>
        <filter x="-1.4%" y="-118.4%" width="102.8%" height="336.8%" filterUnits="objectBoundingBox" id="filter-5">
            <feGaussianBlur stdDeviation="2.41826862" in="SourceGraphic"></feGaussianBlur>
        </filter>
        <linearGradient x1="96.6677159%" y1="50.0000021%" x2="4.53147714%" y2="50%" id="linearGradient-6">
            <stop stop-color="#000000" stop-opacity="0" offset="0%"></stop>
            <stop stop-color="#000000" offset="7.8249398%"></stop>
            <stop stop-color="#000000" offset="92.1376734%"></stop>
            <stop stop-color="#000000" stop-opacity="0" offset="100%"></stop>
        </linearGradient>
        <filter x="-1.2%" y="-75.0%" width="102.4%" height="250.0%" filterUnits="objectBoundingBox" id="filter-7">
            <feGaussianBlur stdDeviation="2.41826862" in="SourceGraphic"></feGaussianBlur>
        </filter>
        <path d="M533.470058,102.212154 L530.003873,102.212154 L530.003873,227.317251 L533.470058,227.317251 L536.936243,225.624463 L536.936243,103.985551 L533.470058,102.212154 Z M0.903701947,1.61217908 L0.903701947,39.9014323 L2.23878775,41.1911756 L5.96506261,41.1911756 L5.96506261,0.322435817 L2.28916835,0.322435817 L0.903701947,1.61217908 Z M0.403044771,77.7070318 L0.403044771,153.801884 L3.8692298,155.494673 L5.56201784,155.494673 L5.56201784,75.9336348 L3.78862084,75.9336348 L0.403044771,77.7070318 Z M0.403044771,176.211174 L0.403044771,252.306026 L3.8692298,253.998814 L5.56201784,253.998814 L5.56201784,174.437777 L3.78862084,174.437777 L0.403044771,176.211174 Z" id="path-8"></path>
        <path d="M8.06089541,35.6915037 L8.06089541,3.42273176 C8.06089541,1.15560493 6.88639776,0.198373598 6.88639776,0.198373598 L4.83653725,0.725480587 L4.83653725,39.0147338 L7.075325,39.3315018 C6.99471604,39.4121108 8.06089541,39.2180963 8.06089541,35.6915037 Z M3.24639968,72.9227644 L1.12852536,72.6286677 L1.12852536,157.751723 L3.98946427,155.395751 C7.91919999,154.577116 8.15850782,148.54399 8.15850782,145.911653 L8.15850782,83.9812561 C8.15850782,80.3161169 7.0249444,74.2074696 3.24639968,72.9227644 Z M2.69705438,171.195156 L0.520612615,171.195156 L0.520612615,255.829519 L2.69705438,255.829519 C5.51836777,255.829519 7.85602744,250.186893 7.85602744,247.365579 L7.85602744,179.578487 C7.85602744,176.837782 5.59897673,171.195156 2.69705438,171.195156 Z M546.664107,98.423533 C542.123556,101.664895 541.997604,107.534234 541.997604,110.569665 L541.997604,218.692722 C541.997604,222.527896 542.652552,226.671749 545.782446,226.810296 L549.377102,229.171257 L549.377102,98.423533 L546.664107,98.423533 Z" id="path-10"></path>
        <filter x="-81.9%" y="-11.1%" width="263.8%" height="122.2%" filterUnits="objectBoundingBox" id="filter-12">
            <feGaussianBlur stdDeviation="1.61217908" in="SourceGraphic"></feGaussianBlur>
        </filter>
        <filter x="-58.1%" y="-2.5%" width="216.2%" height="105.1%" filterUnits="objectBoundingBox" id="filter-13">
            <feGaussianBlur stdDeviation="1.61217908" in="SourceGraphic"></feGaussianBlur>
        </filter>
        <filter x="-58.1%" y="-2.5%" width="216.2%" height="105.1%" filterUnits="objectBoundingBox" id="filter-14">
            <feGaussianBlur stdDeviation="1.61217908" in="SourceGraphic"></feGaussianBlur>
        </filter>
        <path d="M448.105176,1075.24284 L295.754253,1075.24284 C293.980856,1074.11431 286.081178,1073.9531 284.468999,1073.9531 L248.114361,1073.9531 C246.421573,1073.9531 238.521895,1074.11431 236.829107,1075.24284 L84.4781839,1075.24284 C33.2914981,1075.24284 0.644871633,1043.4023 0.644871633,986.653599 L0.644871633,401.996854 C1.69278804,399.014323 2.33765967,396.596054 2.33765967,395.064484 L2.33765967,324.612258 C2.33765967,323.080688 1.69278804,320.743029 0.644871633,318.808414 L0.644871633,303.895757 C1.69278804,300.913226 2.33765967,298.494957 2.33765967,296.963387 L2.33765967,226.511161 C2.33765967,224.979591 1.69278804,222.641931 0.644871633,220.707316 L0.644871633,188.383126 C1.69278804,185.72303 1.9346149,183.546589 1.9346149,182.095627 L1.9346149,150.819353 C1.9346149,149.368392 1.69278804,147.19195 0.644871633,145.499162 L0.644871633,91.8942077 C0.644871633,33.8557607 31.59871,0.322435817 92.6196883,0.322435817 L439.963672,0.322435817 C500.98465,0.322435817 531.938488,33.8557607 531.938488,91.8942077 L531.938488,244.970612 C530.890572,248.839841 530.2457,251.25811 530.2457,252.78968 L530.2457,368.785965 C530.2457,370.317535 530.890572,372.655195 531.938488,374.58981 L531.938488,986.653599 C531.938488,1043.48291 499.211253,1075.24284 448.105176,1075.24284 Z" id="path-15"></path>
        <path d="M522.453071,985.847509 C522.453071,1013.29405 514.369606,1034.2024 498.424348,1047.99218 C484.945725,1059.64984 465.901054,1065.81159 443.349087,1065.81159 L89.0993341,1065.81159 C66.548173,1065.81159 47.5035015,1059.64984 34.0240722,1047.99218 C18.0796211,1034.2024 9.99534909,1013.29405 9.99534909,985.847509 L9.99534909,87.7565501 C9.99534909,64.0139887 16.9930124,44.4074728 30.2314209,31.0578239 C44.1259864,17.0463755 64.2217986,9.94150231 89.9594316,9.94150231 L442.489795,9.94150231 C468.226622,9.94150231 488.322434,17.0463755 502.217,31.0578239 C515.455408,44.4074728 522.453071,64.0139887 522.453071,87.7565501 L522.453071,985.847509 Z M92.5389181,0.483653725 C31.4913389,0.483653725 0.651798965,34.0169786 0.651798965,92.0554256 L0.651798965,986.706801 C0.651798965,1043.45631 33.2107279,1075.27025 84.3708128,1075.27025 L448.078414,1075.27025 C499.237693,1075.27025 531.911726,1043.45631 531.911726,986.706801 L531.911726,92.0554256 C531.911726,34.0169786 500.957888,0.483653725 439.910309,0.483653725 L92.5389181,0.483653725 Z" id="path-17"></path>
        <path d="M61.4240231,0.403044771 L5.07836411,0.403044771 C2.57948653,0.403044771 0.564262679,2.41826862 0.564262679,4.9171462 C0.564262679,7.41602378 2.57948653,9.43124763 5.07836411,9.43124763 L61.4240231,9.43124763 C63.9229006,9.43124763 65.9381245,7.41602378 65.9381245,4.9171462 C65.9381245,2.41826862 63.9229006,0.403044771 61.4240231,0.403044771 Z" id="path-19"></path>
        <path d="M16.3636177,8.786376 C16.3636177,13.3004774 12.7362148,16.9278804 8.22211332,16.9278804 C3.70801189,16.9278804 0.0806089541,13.3004774 0.0806089541,8.786376 C0.0806089541,4.27227457 3.70801189,0.644871633 8.22211332,0.644871633 C12.7362148,0.644871633 16.3636177,4.27227457 16.3636177,8.786376 Z" id="path-21"></path>
        <path d="M10.9628178,5.56201784 C10.9628178,8.38333123 8.62515809,10.7209909 5.8038447,10.7209909 C2.9825313,10.7209909 0.644871633,8.38333123 0.644871633,5.56201784 C0.644871633,2.74070444 2.9825313,0.403044771 5.8038447,0.403044771 C8.62515809,0.403044771 10.9628178,2.74070444 10.9628178,5.56201784 Z" id="path-23"></path>
        <path d="M412.879063,0.0806089541 L370.639971,0.0806089541 C366.690132,0.0806089541 363.465774,3.30496712 363.465774,7.25480587 L363.465774,10.3179461 C363.465774,25.3112116 351.293822,37.4831637 336.300557,37.4831637 L130.102852,37.4831637 C115.109587,37.4831637 102.937634,25.3112116 102.937634,10.3179461 L102.937634,7.25480587 C102.937634,3.30496712 99.7132763,0.0806089541 95.7634375,0.0806089541 L53.5243455,0.0806089541 C20.3940654,0.0806089541 0.241826862,18.5400595 0.241826862,53.3631276 L0.241826862,960.052644 C0.241826862,994.875712 25.1499937,1011.23933 55.2977425,1011.23933 L411.266884,1011.23933 C441.334024,1011.23933 466.3228,994.875712 466.3228,960.052644 L466.3228,53.3631276 C466.161582,18.5400595 446.009343,0.0806089541 412.879063,0.0806089541 Z" id="path-25"></path>
        <linearGradient x1="50%" y1="48.5107422%" x2="50%" y2="100%" id="linearGradient-27">
            <stop stop-color="#FFFFFF" offset="0%"></stop>
            <stop stop-color="#FFFAE3" offset="100%"></stop>
        </linearGradient>
        <polygon id="path-28" points="0 -4.23107103e-14 467.042906 -4.23107103e-14 467.042906 1016.26933 0 1016.26933"></polygon>
        <linearGradient x1="50%" y1="0%" x2="50%" y2="100%" id="linearGradient-30">
            <stop stop-color="#FFFAE5" offset="0%"></stop>
            <stop stop-color="#F0E3BC" offset="100%"></stop>
        </linearGradient>
        <linearGradient x1="50%" y1="11.0547981%" x2="50%" y2="135.058874%" id="linearGradient-31">
            <stop stop-color="#FABFBF" offset="0%"></stop>
            <stop stop-color="#EC8B8B" offset="100%"></stop>
        </linearGradient>
        <linearGradient x1="50%" y1="0%" x2="50%" y2="100%" id="linearGradient-32">
            <stop stop-color="#F7B5B5" offset="0%"></stop>
            <stop stop-color="#F9D9D9" offset="100%"></stop>
        </linearGradient>
        <linearGradient x1="50%" y1="0%" x2="50%" y2="135.058874%" id="linearGradient-33">
            <stop stop-color="#FABFBF" offset="0%"></stop>
            <stop stop-color="#EC8B8B" offset="100%"></stop>
        </linearGradient>
        <linearGradient x1="69.8783661%" y1="6.06166293%" x2="30.9575046%" y2="96.7456339%" id="linearGradient-34">
            <stop stop-color="#FFC4C4" offset="0%"></stop>
            <stop stop-color="#EAA1A1" offset="100%"></stop>
        </linearGradient>
        <linearGradient x1="69.8783661%" y1="6.06166293%" x2="30.9575046%" y2="96.7456339%" id="linearGradient-35">
            <stop stop-color="#FFC4C4" offset="0%"></stop>
            <stop stop-color="#EAA1A1" offset="100%"></stop>
        </linearGradient>
        <linearGradient x1="50%" y1="0.659839527%" x2="50%" y2="100%" id="linearGradient-36">
            <stop stop-color="#FFA300" offset="0%"></stop>
            <stop stop-color="#FF6100" offset="100%"></stop>
        </linearGradient>
        <path d="M0.182270295,145.320188 C10.8846918,79.5916149 25.105766,43.4371939 42.8454929,36.8569252 C60.5852197,30.2766564 67.9004528,37.5821841 64.791192,58.773508 C88.7110898,22.6587138 109.776243,3.23995082 127.986653,0.517219082 C146.197062,-2.20551265 152.037213,9.90772271 145.507106,36.8569252 C231.867939,-4.9998051 294.791074,-11.2054496 334.276512,18.2399918 C360.824451,38.037563 368.145012,68.0108312 344.031978,77.500854 C318.795877,87.4328756 272.103249,77.4611623 238.155735,75.0171321 C214.317052,73.300881 196.93654,79.888071 196.93654,79.888071 C196.93654,79.888071 226.319551,102.407929 203.339841,112.232915 C180.360132,122.057901 145.391125,106.140153 120.832542,100.984334 C104.460153,97.5471206 93.9013679,99.7113512 89.1561854,107.477026 C111.824655,121.027508 115.373126,131.422125 99.8015987,138.660877 C76.4443081,149.519004 53.0864154,140.6831 21.0234614,139.927088 C14.9077153,139.782885 7.9606516,141.580585 0.182270295,145.320188 Z" id="path-37"></path>
        <linearGradient x1="50%" y1="0.659839527%" x2="50%" y2="100%" id="linearGradient-39">
            <stop stop-color="#FFA300" offset="0%"></stop>
            <stop stop-color="#FF6100" offset="100%"></stop>
        </linearGradient>
        <path d="M0.664279271,193.169062 C15.9109632,105.809648 35.3577115,57.7552872 59.0045239,49.005981 C82.6513364,40.2566748 92.4024416,49.9703052 88.2578397,78.1468722 C120.142735,30.1276488 148.222296,4.30792768 172.496522,0.687708711 C196.770748,-2.93251026 204.555589,13.1735805 195.851045,49.005981 C310.96885,-6.64787832 394.844526,-14.8990738 447.478073,24.2523945 C482.866111,50.5757896 492.624319,90.429071 460.481976,103.047266 C426.8426,116.253155 364.601967,102.994491 319.350396,99.7448414 C287.573759,97.4628667 264.405775,106.221376 264.405775,106.221376 C264.405775,106.221376 303.572925,136.164398 272.941288,149.22797 C242.30965,162.291541 206.05331,148.293403 173.317056,141.438084 C151.492886,136.867871 136.158299,138.803828 127.313294,147.245956 C153.145218,162.368684 155.682863,174.74247 134.926231,184.367314 C103.791283,198.804579 72.6555331,187.056118 29.9160554,186.050904 C21.7638498,185.859167 12.0132578,188.231887 0.664279271,193.169062 Z" id="path-40"></path>
    </defs>
    <g id="app-aeiou" stroke="none" stroke-width="1" fill="none" fill-rule="evenodd">
        <g id="Group-4-Copy" opacity="0.25" transform="translate(793.000000, 698.500000) scale(-1, 1) rotate(-77.000000) translate(-793.000000, -698.500000) translate(453.000000, 561.000000)">
            <g id="Path-23" transform="translate(0.219745, 0.578815)">
                <mask id="mask-3" fill="white">
                    <use xlink:href="#path-2"></use>
                </mask>
                <use id="Mask" fill="url(#linearGradient-1)" xlink:href="#path-2"></use>
                <path d="M-9.83237515e-13,266.147937 C2.63770729,266.147937 127.742192,141.857399 285.594384,94.6989214 C390.829178,63.2599362 492.942878,57.2742939 591.935483,76.7419947" stroke="#FFFFFF" stroke-width="4.4" opacity="0.628138951" stroke-linecap="round" mask="url(#mask-3)" transform="translate(295.967742, 165.861347) rotate(-1.000000) translate(-295.967742, -165.861347) "></path>
            </g>
        </g>
        <g id="aeiou-1" transform="translate(239.000000, 1.000000)">
            <g id="Shadow-Standing" transform="translate(0.434139, 1068.068642)">
                <path d="M106.839249,2.33765967 L496.52956,2.33765967 C523.512319,2.33765967 555.642079,3.70801189 555.642079,5.40079993 C555.642079,7.09358796 521.328744,8.46394018 496.52956,8.46394018 L106.839249,8.46394018 C79.4665654,8.46394018 44.5293512,7.09358796 44.5293512,5.40079993 C44.5293512,3.70801189 78.9206714,2.33765967 106.839249,2.33765967 Z" id="Shape" fill="url(#linearGradient-4)" opacity="0.400000006" filter="url(#filter-5)"></path>
                <path d="M73.3808714,0.725480587 L530.835468,0.725480587 C554.094463,0.725480587 600.280182,2.90192235 600.280182,5.56201784 C600.280182,8.22211332 557.66638,10.3985551 521.781073,10.3985551 L73.3808714,10.3985551 C43.3933811,10.3985551 0.281171951,8.22211332 0.281171951,5.56201784 C0.281171951,2.90192235 42.0642956,0.725480587 73.3808714,0.725480587 Z" id="Shape" fill="url(#linearGradient-6)" opacity="0.100000001" filter="url(#filter-7)"></path>
            </g>
            <g id="Buttons" transform="translate(34.661850, 145.902207)">
                <mask id="mask-9" fill="white">
                    <use xlink:href="#path-8"></use>
                </mask>
                <use id="Shape" fill="#303030" fill-rule="nonzero" xlink:href="#path-8"></use>
                <g id="Shape" mask="url(#mask-9)">
                    <g transform="translate(-6.448716, 0.806090)">
                        <mask id="mask-11" fill="white">
                            <use xlink:href="#path-10"></use>
                        </mask>
                        <use id="Mask" stroke="none" fill="#202020" fill-rule="nonzero" xlink:href="#path-10"></use>
                        <rect id="Shape" stroke="none" fill="#000000" fill-rule="evenodd" opacity="0.400000006" filter="url(#filter-12)" mask="url(#mask-11)" x="0" y="-0.806089541" width="5.90653452" height="43.5288352"></rect>
                        <polygon id="Shape" stroke="none" fill="#000000" fill-rule="evenodd" opacity="0.400000006" filter="url(#filter-13)" mask="url(#mask-11)" points="-2.41826862 70.0361137 5.90653452 70.0361137 5.90653452 260.264586 -2.41826862 260.264586"></polygon>
                        <polygon id="Shape" stroke="none" fill="#000000" fill-rule="evenodd" opacity="0.400000006" filter="url(#filter-14)" mask="url(#mask-11)" points="545.671275 70.0361137 553.996078 70.0361137 553.996078 260.264586 545.671275 260.264586"></polygon>
                    </g>
                </g>
                <path d="M-0.129149478,175.094565 C0.891073998,176.950283 1.40118574,178.919341 1.40118574,181.001739 L1.4829804,245.373656 C1.4829804,248.19497 1.16054459,253.998814 -1.66076881,253.998814 L-1.4995509,253.998814 C1.80541622,253.918206 1.96663413,248.19497 1.96663413,245.373656 L1.88483946,181.064665 C1.79588982,178.218277 1.28155642,177.034267 0.362740294,175.15759 C0.268901129,174.965924 0.104937872,174.944915 -0.129149478,175.094565 Z M-0.483653725,76.3939875 C1.22537025,78.0188306 1.69278804,82.7620949 1.69278804,85.2609724 L1.69278804,146.46647 C1.69278804,149.287783 1.37035222,155.091628 -1.45096117,155.091628 L-1.28974327,155.091628 C2.01522385,155.011019 2.17644176,149.287783 2.17644176,146.46647 L2.17644176,85.2609724 C2.10117498,82.8524353 1.57080205,77.9779948 -0.0552513766,76.3939875 C-0.180311665,76.272161 -0.425676679,76.1783152 -0.483653725,76.3939875 Z M535.945635,218.692093 L535.945635,110.99853 C535.945635,108.499652 536.429289,103.582506 537.960859,102.212154 C535.945635,103.340679 535.54259,108.499652 535.54259,110.99853 L535.54259,218.692093 C535.54259,221.513406 535.623199,227.236642 538.847557,227.317251 L539.008775,227.317251 C536.268071,227.317251 535.945635,221.594015 535.945635,218.692093 Z M538.847557,101.809109 C538.525122,101.809109 538.283295,101.970327 538.041468,102.212154 C538.283295,102.050936 538.525122,101.970327 538.847557,101.970327 L538.847557,101.809109 Z M0.806089541,40.112401 C0.918707603,40.0993267 0.855908233,40.6061342 0.954082543,40.528041 C1.69299796,39.9402673 2.07924919,38.6849508 2.11283626,36.7620914 L2.11283626,4.53110488 C2.07924919,3.04487729 1.74756054,1.87351203 1.11777028,1.01700909 C0.928441448,0.759525425 0.819363479,1.36093199 0.614013518,1.09262918 C1.24373817,1.93227299 1.58212784,3.07843156 1.62918253,4.53110488 L1.62918253,36.7620914 C1.60728534,38.3154603 1.33292101,39.4322302 0.806089541,40.112401 Z" id="Shape" fill="#101010" mask="url(#mask-9)"></path>
            </g>
            <g id="Body" transform="translate(37.080119, 0.000000)">
                <mask id="mask-16" fill="white">
                    <use xlink:href="#path-15"></use>
                </mask>
                <use id="Shape" fill="#404040" xlink:href="#path-15"></use>
                <g id="Mockups/iPhone-Clay-Frontal-White-Components/Background-Color" opacity="0.4" style="mix-blend-mode: hard-light;" mask="url(#mask-16)" fill="#000000" fill-rule="nonzero">
                    <g transform="translate(-378.862084, -107.209909)" id="color">
                        <rect x="0" y="0" width="1289.74327" height="1289.74327"></rect>
                    </g>
                </g>
                <path d="M460.922,-4.03044771 L73.1929304,-4.03044771 C30.2283578,-4.03044771 -4.67531934,30.7926205 -4.67531934,73.837802 L-4.67531934,992.941097 C-4.67531934,1030.18243 21.5225908,1063.47393 56.5068768,1071.61544 C24.4245131,1062.66784 1.0479164,1034.53532 1.0479164,996.165455 L1.0479164,88.5086316 C1.0479164,30.9538384 35.9515935,-2.90192235 78.9967751,-2.90192235 L453.264149,-2.90192235 C496.309331,-2.90192235 531.213008,30.1477488 531.213008,85.5261003 L531.213008,996.246064 C531.213008,1037.92089 505.982405,1065.40855 472.046035,1072.74396 C509.771026,1066.94012 538.70978,1032.19766 538.70978,992.941097 L538.70978,73.837802 C538.790249,30.7926205 503.967181,-4.03044771 460.922,-4.03044771 Z" id="Shape" fill="#000000" fill-rule="nonzero" mask="url(#mask-16)"></path>
                <path d="M519.041056,87.7831511 C519.041056,42.239092 493.24619,13.3810864 442.543158,13.3810864 L89.9595928,13.3810864 C39.2565607,13.3810864 13.4616953,42.158483 13.4616953,87.7831511 L13.4616953,993.102315 C13.4616953,1049.85102 49.171462,1069.60021 89.1535033,1069.60021 L443.349248,1069.60021 C483.331289,1069.60021 519.041056,1049.85102 519.041056,993.102315 L519.041056,87.7831511 Z" id="Shape" fill="#242424" mask="url(#mask-16)"></path>
            </g>
            <g id="Antena" transform="translate(37.080119, 0.000000)">
                <mask id="mask-18" fill="white">
                    <use xlink:href="#path-17"></use>
                </mask>
                <use id="Shape" fill="#202020" xlink:href="#path-17"></use>
            </g>
            <g id="Rubber" transform="translate(45.947104, 8.866985)" fill="#000000" fill-rule="nonzero" opacity="0.3">
                <path d="M433.595564,4.51410143 L81.0926079,4.51410143 C30.3895757,4.51410143 4.59471039,33.2914981 4.59471039,78.9161661 L4.59471039,976.980524 C4.59471039,1033.72923 40.3044771,1053.47842 80.2865183,1053.47842 L434.482263,1053.47842 C474.464304,1053.47842 510.174071,1033.72923 510.174071,976.980524 L510.174071,78.9161661 C510.174071,33.2914981 484.379205,4.51410143 433.595564,4.51410143 Z M509.287372,976.980524 C509.287372,1003.09783 501.710131,1022.92763 486.716865,1035.90567 C474.061259,1046.86849 455.924245,1052.67233 434.482263,1052.67233 L80.2059094,1052.67233 C58.6833186,1052.67233 40.6269129,1046.86849 27.9713071,1035.90567 C12.9780416,1023.00824 5.40079993,1003.17843 5.40079993,976.980524 L5.40079993,78.9161661 C5.40079993,56.0232231 11.7689073,37.9668174 24.4245131,25.2306026 C37.4831637,12.0913431 56.5874858,5.40079993 81.0926079,5.40079993 L433.595564,5.40079993 C458.181295,5.40079993 477.205008,12.0913431 490.263659,25.2306026 C502.838656,37.9668174 509.287372,56.0232231 509.287372,78.9161661 L509.287372,976.980524 Z M493.971671,21.6031997 C479.945713,7.41602378 459.632256,0.241826862 433.595564,0.241826862 L81.0926079,0.241826862 C55.1365246,0.241826862 34.8230682,7.41602378 20.7165012,21.6031997 C7.33541483,35.145504 0.241826862,54.8946978 0.241826862,78.9161661 L0.241826862,976.980524 C0.241826862,1004.71 8.46394018,1025.82955 24.585731,1039.7749 C38.2086443,1051.54381 57.4741843,1057.83131 80.2059094,1057.83131 L434.482263,1057.83131 C457.213988,1057.83131 476.479528,1051.62442 490.102441,1039.7749 C506.224232,1025.82955 514.446345,1004.71 514.446345,976.980524 L514.446345,78.9161661 C514.446345,54.8946978 507.352757,35.064895 493.971671,21.6031997 Z M513.559647,976.980524 C513.559647,1004.38757 505.498751,1025.3459 489.538178,1039.13003 C476.076483,1050.81833 457.05277,1056.94461 434.482263,1056.94461 L80.2059094,1056.94461 C57.6354022,1056.94461 38.611689,1050.81833 25.1499937,1039.13003 C9.18942077,1025.3459 1.12852536,1004.46818 1.12852536,976.980524 L1.12852536,78.9161661 C1.12852536,55.1365246 8.14150437,35.5485488 21.3613728,22.2480713 C35.226113,8.22211332 55.3783515,1.12852536 81.0926079,1.12852536 L433.595564,1.12852536 C459.309821,1.12852536 479.462059,8.22211332 493.326799,22.2480713 C506.546668,35.6291577 513.559647,55.2171336 513.559647,78.9161661 L513.559647,976.980524 Z" id="Shape"></path>
            </g>
            <g id="Dynamic" transform="translate(269.233907, 37.276267)">
                <g id="Shape" transform="translate(0.806090, 0.609941)">
                    <mask id="mask-20" fill="white">
                        <use xlink:href="#path-19"></use>
                    </mask>
                    <use fill="#202020" fill-rule="nonzero" xlink:href="#path-19"></use>
                    <path d="M61.4240231,-0.0980742275 L5.07836411,-0.0980742275 C2.30272615,-0.0980742275 0.0631436807,2.14150824 0.0631436807,4.9171462 C0.0631436807,7.69278416 2.30272615,9.93236663 5.07836411,9.93236663 L61.4240231,9.93236663 C64.199661,9.93236663 66.4392435,7.69278416 66.4392435,4.9171462 C66.4392435,2.14150824 64.199661,-0.0980742275 61.4240231,-0.0980742275 Z M5.07836411,0.904163769 L61.4240231,0.904163769 C63.6461402,0.904163769 65.4370055,2.695029 65.4370055,4.9171462 C65.4370055,7.1392634 63.6461402,8.93012864 61.4240231,8.93012864 L5.07836411,8.93012864 C2.85624691,8.93012864 1.06538168,7.1392634 1.06538168,4.9171462 C1.06538168,2.695029 2.85624691,0.904163769 5.07836411,0.904163769 Z" fill="#101010" fill-rule="nonzero" mask="url(#mask-20)"></path>
                </g>
            </g>
            <g id="Camera" transform="translate(352.261130, 34.661850)">
                <g id="Shape">
                    <mask id="mask-22" fill="white">
                        <use xlink:href="#path-21"></use>
                    </mask>
                    <use fill="#101010" fill-rule="nonzero" xlink:href="#path-21"></use>
                </g>
                <g id="Shape" transform="translate(2.418269, 3.224358)">
                    <mask id="mask-24" fill="white">
                        <use xlink:href="#path-23"></use>
                    </mask>
                    <use fill="#303030" fill-rule="nonzero" xlink:href="#path-23"></use>
                </g>
            </g>
            <g id="Screen" transform="translate(70.129790, 32.243582)">
                <mask id="mask-26" fill="white">
                    <use xlink:href="#path-25"></use>
                </mask>
                <path stroke-opacity="0.6" stroke="#000000" stroke-width="2.00447599" d="M53.5243455,-0.921629042 C36.4377613,-0.921629042 22.7639722,3.93714598 13.4096283,13.2914899 C4.2851619,22.4159563 -0.760411134,35.8446691 -0.760411134,53.3631276 L-0.760411134,960.052644 C-0.760411134,976.866311 4.95828931,989.444108 14.2080386,998.043802 C24.4767543,1007.59085 39.1388299,1012.24157 55.2977425,1012.24157 L411.266884,1012.24157 C427.392415,1012.24157 442.065078,1007.58553 452.346605,998.026572 C461.595977,989.427229 467.325038,976.854905 467.325038,960.052644 L467.325038,53.3631276 C467.243898,35.8346847 462.154148,22.4033678 453.002691,13.2795169 C443.627648,3.9327545 429.95819,-0.921629042 412.879063,-0.921629042 L370.639971,-0.921629042 C368.389155,-0.921629042 366.344565,-0.00374211535 364.862994,1.4778286 C363.381423,2.95939931 362.463536,5.00398952 362.463536,7.25480587 L362.463536,10.3179461 C362.463536,17.5379969 359.532649,24.0786422 354.796951,28.8143402 C350.061253,33.5500381 343.520607,36.4809257 336.300557,36.4809257 L130.102852,36.4809257 C122.882801,36.4809257 116.342156,33.5500381 111.606458,28.8143402 C106.87076,24.0786422 103.939872,17.5379969 103.939872,10.3179461 L103.939872,7.25480587 C103.939872,5.00398952 103.021986,2.95939931 101.540415,1.4778286 C100.058844,-0.00374211535 98.0142539,-0.921629042 95.7634375,-0.921629042 L53.5243455,-0.921629042 Z"></path>
                <g id="image" mask="url(#mask-26)">
                    <g transform="translate(0.000000, -2.004476)">
                        <g id="splash-illustration">
                            <mask id="mask-29" fill="white">
                                <use xlink:href="#path-28"></use>
                            </mask>
                            <use id="Mask" fill="url(#linearGradient-27)" xlink:href="#path-28"></use>
                            <g id="Group-3" mask="url(#mask-29)">
                                <g transform="translate(54.000000, 509.000000)">
                                    <ellipse id="Oval" fill="url(#linearGradient-30)" cx="179.631887" cy="396.00666" rx="179.631887" ry="20.4127144"></ellipse>
                                    <g id="Group" stroke-width="1" fill="none" transform="translate(1.633017, 0.000000)">
                                        <path d="M168.22876,113.657996 C167.431493,126.517444 164.454231,135.961647 159.296974,141.990604 C154.139717,148.019561 145.984647,151.893633 134.831764,153.612821 C148.704838,181.646957 163.020645,195.581418 177.779184,195.416205 C192.537722,195.250991 207.128128,181.933334 221.550399,155.463236 C211.561242,153.439626 203.25599,148.948749 196.634641,141.990604 C190.013293,135.032458 186.964682,125.588256 187.488809,113.657996 L168.22876,113.657996 Z" id="Path-3" fill="url(#linearGradient-31)"></path>
                                        <circle id="Oval" fill="#101011" cx="171.411348" cy="20.9026199" r="20.9026199"></circle>
                                        <path d="M130.912522,308.422386 L177.943417,297.511631 L177.943417,350.193229 L82.6719673,348.81247 C96.6688828,340.83591 106.509807,334.467734 112.194741,329.707944 C117.879675,324.948153 124.118935,317.852967 130.912522,308.422386 Z" id="Rectangle" fill="#6C2A88"></path>
                                        <path d="M225.366532,308.313644 L273.214867,299.353739 L273.170076,350.193229 L177.125977,348.703727 C191.122892,340.727167 200.963817,334.358992 206.648751,329.599201 C212.333684,324.83941 218.572945,317.744224 225.366532,308.313644 Z" id="Rectangle-Copy-3" fill="#6C2A88" transform="translate(225.170422, 324.773484) scale(-1, 1) translate(-225.170422, -324.773484) "></path>
                                        <path d="M74.7367314,345.440617 C100.211745,349.939284 149.144937,347.505344 152.947809,345.440617 C157.460581,342.990458 156.522516,337.143551 166.004528,333.8415 C175.939742,330.381624 186.086056,340.736419 194.163213,341.243631 C202.240369,341.750843 204.698453,336.694694 211.44056,336.694694 C218.182666,336.694694 218.886039,340.302393 224.049289,340.456966 C229.21254,340.611539 233.92497,338.142411 235.525083,341.243631 C237.125197,344.344851 234.464263,342.092483 226.882041,345.440617 C223.162083,347.083264 202.305668,351.298392 182.088927,358.797488 C174.82728,361.491086 152.16431,372.059092 126.382828,381.263276 C110.449322,386.951658 94.4067652,391.907772 78.2551566,396.131617" id="Path-5-Copy" fill="#EDA6A6" transform="translate(155.354097, 364.633561) scale(-1, 1) translate(-155.354097, -364.633561) "></path>
                                        <path d="M176.637003,113.547993 C184.766476,113.547993 191.448743,108.083348 198.846037,102.759393 C209.6453,94.9869836 218.040812,84.9892834 218.040812,71.8527559 C218.040812,48.0428471 200.446912,28.7411024 176.637003,28.7411024 C152.827095,28.7411024 133.52535,48.0428471 133.52535,71.8527559 C133.52535,95.6626647 152.827095,113.547993 176.637003,113.547993 Z" id="Oval" fill="#252526"></path>
                                        <path d="M149.811025,84.7542038 C149.811025,102.409795 163.801742,123.953569 178.215659,123.953569 C192.629576,123.953569 205.657385,99.8249081 205.657385,84.7542038 C199.815164,80.6069616 182.599279,75.78924 178.43239,61.0315093 C178.43239,61.0315093 171.386782,81.4908263 149.811025,84.7542038 Z" id="Path" fill="url(#linearGradient-32)"></path>
                                        <path d="M206.297678,77.668007 C203.494041,79.865133 201.805987,82.5355581 201.233515,85.6792824 C200.431869,90.0815145 202.913998,94.9508352 202.311021,101.980136 C202.048065,105.045599 200.89307,110.995661 198.846037,119.830324 C205.244295,112.567161 210.140792,104.965039 213.535528,97.0239585 C216.930264,89.0828785 218.432025,80.2367418 218.040812,70.4855484" id="Path-2" fill="#252526"></path>
                                        <path d="M178.43239,242.992956 L178.493522,243.251956 L218.009241,250.209593 C214.18737,262.371407 212.237435,271.928409 212.159438,278.880599 L212.157,279.311719 C212.157,286.297951 216.494807,296.001507 225.170422,308.422386 C205.491779,304.376716 189.749444,303.90838 177.943417,307.01738 L177.943417,307.01738 C166.13739,303.90838 150.460426,304.376716 130.912522,308.422386 C138.550573,296.516168 142.369599,287.069943 142.369599,280.083711 C142.369599,273.097479 140.727929,263.13944 137.444591,250.209593 L176.960522,243.251956 L177.021442,242.992956 L177.726522,243.116956 L178.43239,242.992956 Z" id="Combined-Shape" fill="url(#linearGradient-33)"></path>
                                        <path d="M274.618034,404.988254 C304.200042,404.988254 343.998959,394.59925 343.998959,394.59925 C331.024735,372.509158 343.503631,345.020199 343.503631,344.26381 C336.513233,339.903985 291.392231,327.90985 274.618034,327.90985 C245.036026,327.90985 221.055071,346.626693 221.055071,369.715089 C221.055071,392.803486 245.036026,404.988254 274.618034,404.988254 Z" id="Oval-Copy" fill="#8440A0" transform="translate(282.527015, 366.449052) scale(-1, 1) translate(-282.527015, -366.449052) "></path>
                                        <path d="M221.055071,343.743522 C225.074376,353.383101 227.084028,362.04029 227.084028,369.715089 C227.084028,377.389889 225.074376,385.684609 221.055071,394.59925" id="Path-11" stroke="#101011" stroke-width="3.26603431" stroke-linecap="round"></path>
                                        <path d="M119.765251,344.907594 C145.240264,349.40626 194.173456,346.972321 197.976329,344.907594 C202.489101,342.457434 201.551036,336.610527 211.033048,333.308476 C220.968262,329.848601 231.114576,340.203396 239.191733,340.710608 C247.268889,341.217819 249.726973,336.16167 256.46908,336.16167 C263.211186,336.16167 263.914559,339.76937 269.077809,339.923943 C274.24106,340.078515 278.95349,337.609388 280.553603,340.710608 C282.153716,343.811827 279.492783,341.559459 271.910561,344.907594 C268.190603,346.550241 247.334188,350.765368 227.117447,358.264464 C219.8558,360.958063 197.19283,371.526069 171.411348,380.730253 C162.738871,383.826393 149.953781,388.197038 133.056079,393.842189 C123.62435,396.993123 106.829646,397.756265 82.6719673,396.131617" id="Path-5" fill="#FABFBF"></path>
                                        <path d="M68.2046627,404.988254 C97.7866705,404.988254 137.585588,394.59925 137.585588,394.59925 C124.611363,372.509158 134.417704,345.492364 134.417704,344.735975 C127.427306,340.37615 84.9788592,327.90985 68.2046627,327.90985 C38.6226548,327.90985 14.6416992,346.626693 14.6416992,369.715089 C14.6416992,392.803486 38.6226548,404.988254 68.2046627,404.988254 Z" id="Oval" fill="#8440A0"></path>
                                        <path d="M138.528494,152.894544 C132.244248,154.677597 102.514756,152.972415 92.6093849,182.349368 C82.7040134,211.72632 92.5008347,266.686382 88.8367711,275.707671 C86.4316917,281.629217 76.3107447,287.199528 66.335167,297.511631 C56.3595894,307.823734 44.9722743,321.279161 40.9769295,324.773484 C38.3133663,327.103033 33.3735519,328.311116 26.1574864,328.397734 C23.3293951,328.129133 20.3770846,328.129133 17.3005548,328.397734 C12.6857602,328.800636 2.0932882,333.407922 4.50181589,336.973493 C6.91034358,340.539064 17.4638467,330.302569 18.835085,334.034698 C19.3714111,335.494428 20.004751,338.530142 19.1664945,339.596622 C18.3282381,340.663102 17.4337154,341.181894 14.6416992,341.593799 C11.8496829,342.005704 8.52446684,337.774889 6.7775995,337.774889 C5.03073217,337.774889 6.09675023,341.434353 9.20375902,342.933075 C11.1272962,343.860928 13.0558421,344.644204 12.3063714,345.184961 C2.11290742,352.53974 -0.655022018,354.274494 0.123444975,355.357228 C0.469919109,355.839124 1.53073956,355.935195 3.30590631,355.645443 C3.11866135,356.340557 3.44337984,356.778679 4.28006179,356.959806 C5.11674373,357.140934 6.09084975,356.986337 7.20237986,356.496015 C7.16403178,357.448931 7.93811405,357.792573 9.52462667,357.526941 C11.9043956,357.128494 31.9241946,342.362045 44.9722327,335.016095 C67.2325386,322.483707 100.413164,301.490296 105.483756,292.35833 C112.38655,279.92663 117.171722,255.27069 119.839271,218.390509 C126.200136,200.635183 129.531189,188.621469 129.832429,182.349368 C130.695646,164.376415 150.515783,152.014641 138.528494,152.894544 Z" id="Path-4" fill="url(#linearGradient-34)"></path>
                                        <path d="M352.453742,153.547748 C346.169496,155.330801 316.440004,153.625619 306.534632,183.002572 C296.629261,212.379525 306.426082,267.339586 302.762018,276.360876 C300.356939,282.282421 290.235992,287.852732 280.260414,298.164835 C270.284837,308.476938 258.897522,321.932366 254.902177,325.426689 C252.238614,327.756237 247.298799,328.96432 240.082734,329.050939 C237.254642,328.782337 234.302332,328.782337 231.225802,329.050939 C226.611008,329.45384 216.018536,334.061127 218.427063,337.626697 C220.835591,341.192268 231.389094,330.955774 232.760332,334.687902 C233.296658,336.147632 233.929998,339.183347 233.091742,340.249827 C232.253485,341.316307 231.358963,341.835098 228.566946,342.247003 C225.77493,342.658909 222.449714,338.428094 220.702847,338.428094 C218.955979,338.428094 220.021998,342.087558 223.129006,343.58628 C225.052543,344.514133 226.981089,345.297408 226.231619,345.838166 C216.038155,353.192945 213.270225,354.927698 214.048692,356.010433 C214.395166,356.492328 215.455987,356.5884 217.231154,356.298647 C217.043909,356.993762 217.368627,357.431883 218.205309,357.613011 C219.041991,357.794139 220.016097,357.639542 221.127627,357.14922 C221.089279,358.102135 221.863361,358.445777 223.449874,358.180146 C225.829643,357.781698 245.849442,343.015249 258.89748,335.6693 C281.157786,323.136911 314.338411,302.143501 319.409003,293.011535 C326.311797,280.579835 331.096969,255.923894 333.764518,219.043714 C340.125383,201.288388 343.456436,189.274674 343.757677,183.002572 C344.620893,165.02962 364.441031,152.667845 352.453742,153.547748 Z" id="Path-4-Copy" fill="url(#linearGradient-35)" transform="translate(285.110047, 255.885308) scale(-1, 1) translate(-285.110047, -255.885308) "></path>
                                        <path d="M143.94026,152.212909 C143.941637,152.22013 143.942952,152.227362 143.944207,152.234605 C148.434017,178.155885 159.718839,191.26556 177.798672,191.563631 C195.882706,191.251452 207.60512,178.333388 212.966605,152.808865 C213.110145,152.125512 213.765684,151.675846 214.45489,151.787956 L214.45489,151.787956 L226.411487,153.733289 C227.03321,153.834443 227.494228,154.364826 227.507799,154.994577 C227.835339,170.168972 228.357094,180.853327 229.073065,187.04764 C230.589427,200.166638 236.547894,210.59088 235.746916,218.390509 C234.365203,231.845132 228.188684,243.67792 217.217359,253.888873 C211.390282,251.000403 205.452226,248.997202 199.40319,247.879269 C193.354154,246.761336 185.998154,246.20237 177.335189,246.20237 L177.778251,246.202913 L177.300005,246.204509 C169.036452,246.243009 161.988176,246.801262 156.155177,247.879269 C150.106141,248.997202 144.168085,251.000403 138.341008,253.888873 C127.38823,243.67792 121.220984,231.845132 119.839271,218.390509 C119.038293,210.59088 124.96894,200.166638 126.485302,187.04764 L126.558723,186.390394 C127.237506,180.106412 127.735001,169.631254 128.051208,154.964919 C128.064534,154.348493 128.507005,153.825282 129.112666,153.709814 L142.412288,151.17427 C143.12104,151.039134 143.805138,151.504155 143.94026,152.212909 Z" id="Combined-Shape" fill="#8440A0"></path>
                                        <path d="M130.912522,308.422386 C141.608799,306.072476 149.119782,304.817824 153.445473,304.658432 C164.926527,304.23538 173.196315,306.867861 177.792937,306.867861 C182.617746,306.867861 191.114358,304.192335 203.673128,304.658432 C207.785104,304.811041 214.950868,306.065692 225.170422,308.422386" id="Path-9" stroke="#101011" stroke-width="3.26603431" stroke-linecap="round"></path>
                                        <path d="M134.417704,344.735975 C132.080916,353.085474 130.912522,361.411845 130.912522,369.715089 C130.912522,378.018334 133.136877,386.313054 137.585588,394.59925" id="Path-10" stroke="#101011" stroke-width="3.26603431" stroke-linecap="round"></path>
                                        <path d="M138.341008,253.888873 C151.477901,248.872642 164.623959,246.364527 177.779184,246.364527 C190.934408,246.364527 204.080466,248.872642 217.217359,253.888873" id="Path-12" stroke="#101011" stroke-width="3.26603431" stroke-linecap="round"></path>
                                    </g>
                                </g>
                            </g>
                        </g>
                        <g id="logo" transform="translate(157.685445, 167.864484)">
                            <g transform="translate(0.219538, 0.000000)">
                                <g id="Group" transform="translate(7.748912, 0.000000)">
                                    <path d="M67.8796125,51.7566561 C73.5964845,51.7566561 78.2308846,56.3961545 78.2308846,62.1194493 C78.2308846,67.8430113 73.5964845,72.4825097 67.8796125,72.4825097 C62.1622067,72.4825097 57.5278066,67.8430113 57.5278066,62.1194493 C57.5278066,56.3961545 62.1622067,51.7566561 67.8796125,51.7566561" id="Fill-1" fill="#FECC00"></path>
                                    <path d="M71.6852115,43.0615708 C80.4278544,29.7912429 84.7251829,29.750365 92.5779089,20.247609 C96.6274378,15.3464124 96.9134015,12.545347 95.1495806,6.65172794 C94.2452521,4.0366165 95.6299676,1.18251678 98.2423387,0.277059825 C100.854576,-0.628263543 103.705006,0.757975293 104.609468,3.37308674 C111.375051,26.5713802 92.2715287,29.9961663 80.5503531,47.7169662 C79.266252,50.1677648 76.2408815,51.1120958 73.7925091,49.826582 C71.3444036,48.5413354 70.400977,45.5122359 71.6852115,43.0615708" id="Fill-2" fill="#15B4CB"></path>
                                    <path d="M88.0020894,64.08626 C102.700463,70.101043 103.573033,74.3138625 114.407094,80.1843709 C119.994662,83.2118674 122.795318,82.9503028 128.229429,80.0757642 C130.616952,78.6807086 133.681955,79.4873107 135.075077,81.8774605 C136.4686,84.2676104 135.662884,87.3359847 133.275361,88.7310403 C111.85277,99.8709128 104.794417,81.7725943 85.1575312,73.6950846 C82.5071294,72.9089214 80.9952448,70.1204132 81.7805441,67.4670957 C82.5657099,64.8132439 85.3512873,63.3000968 88.0020894,64.08626" id="Fill-3" fill="#E31E24"></path>
                                    <path d="M80.2629215,76.3578868 C87.8039297,90.3475842 85.8067208,94.1567019 90.4535309,105.578578 C92.8505285,111.469258 95.180272,113.047195 101.201389,114.280209 C103.930921,114.719846 105.78695,117.291408 105.347796,120.023542 C104.908242,122.756077 102.339906,124.614147 99.6103741,124.17451 C75.9946831,119.164707 82.0199369,100.696084 71.9715755,81.9740444 C70.4221941,79.6819478 71.0228112,76.5665507 73.3125224,75.0154648 C75.6021002,73.4647795 78.7139404,74.0657903 80.2629215,76.3578868" id="Fill-4" fill="#834E98"></path>
                                    <path d="M64.0734797,43.0615708 C55.3304365,29.7912429 51.0335083,29.750365 43.1807823,20.247609 C39.1308531,15.3464124 38.8448894,12.545347 40.6091106,6.65172794 C41.5134391,4.0366165 40.1287236,1.18251678 37.5164859,0.277059825 C34.9042482,-0.628263543 32.0532849,0.757975293 31.1492233,3.37308674 C24.3837732,26.5713802 43.4872959,29.9961663 55.2083381,47.7169662 C56.4920389,50.1677648 59.5178097,51.1120958 61.9659152,49.826582 C64.4138872,48.5413354 65.3573139,45.5122359 64.0734797,43.0615708" id="Fill-5" fill="#15B4CB"></path>
                                    <path d="M47.7566018,64.08626 C33.0583612,70.101043 32.1856582,74.3138625 21.3511969,80.1843709 C15.763629,83.2118674 12.9633731,82.9503028 7.5292622,80.0757642 C5.14173886,78.6807086 2.07673643,79.4873107 0.683213837,81.8774605 C-0.710308755,84.2676104 0.0958073015,87.3359847 2.48333064,88.7310403 C23.9059215,99.8709128 30.9638739,81.7725943 50.60116,73.6950846 C53.2515618,72.9089214 54.7634464,70.1204132 53.9778802,67.4670957 C53.1925809,64.8132439 50.407137,63.3000968 47.7566018,64.08626" id="Fill-6" fill="#E31E24"></path>
                                    <path d="M55.4953693,76.3578868 C47.9544946,90.3475842 49.9519703,94.1567019 45.30476,105.578578 C42.9081627,111.469258 40.5784192,113.047195 34.5569017,114.280209 C31.8277699,114.719846 29.9713411,117.291408 30.4108951,120.023542 C30.8500489,122.756077 33.4187849,124.614147 36.1483171,124.17451 C59.764008,119.164707 53.7387542,100.696084 63.7871156,81.9740444 C65.3360968,79.6819478 64.7358799,76.5665507 62.4463022,75.0154648 C60.1567244,73.4647795 57.0447508,74.0657903 55.4953693,76.3578868" id="Fill-7" fill="#834E98"></path>
                                    <path d="M25.38538,53.8064247 C29.9717414,53.8064247 33.6892695,57.5283096 33.6892695,62.1194493 C33.6892695,66.7108561 29.9717414,70.4327411 25.38538,70.4327411 C20.7992856,70.4327411 17.0814906,66.7108561 17.0814906,62.1194493 C17.0814906,57.5283096 20.7992856,53.8064247 25.38538,53.8064247" id="Fill-8" fill="#FF6100"></path>
                                    <path d="M67.8792121,16.6203041 C72.4655735,16.6203041 76.1831016,20.342189 76.1831016,24.9333287 C76.1831016,29.5247355 72.4655735,33.2466205 67.8792121,33.2466205 C63.2931177,33.2466205 59.5753227,29.5247355 59.5753227,24.9333287 C59.5753227,20.342189 63.2931177,16.6203041 67.8792121,16.6203041" id="Fill-10" fill="#15B4CB"></path>
                                    <path d="M131.827394,44.6628858 C116.65664,49.3580902 113.310878,46.6585514 101.217269,49.0090257 C94.9802442,50.221467 92.9826349,52.2037739 90.6075216,57.8785764 C89.6475482,60.4736497 86.7678951,61.7987054 84.1756736,60.8375424 C81.5830517,59.8769138 80.2598524,56.9940927 81.2195588,54.3986186 C90.7054672,32.175782 107.636707,41.6721259 127.930522,35.4313126 C130.476973,34.3539284 133.413472,35.5475338 134.489539,38.0967866 C135.565739,40.6459057 134.373845,43.5856351 131.827394,44.6628858" id="Fill-12" fill="#FF6100"></path>
                                    <path d="M3.93129709,44.6628858 C19.1017848,49.3580902 22.4478136,46.6585514 34.5414226,49.0090257 C40.7785805,50.221467 42.7760563,52.2037739 45.1511696,57.8785764 C46.1111429,60.4736497 48.9909295,61.7987054 51.5830176,60.8375424 C54.1756395,59.8769138 55.4988388,56.9940927 54.538732,54.3986186 C45.053224,32.175782 28.1219846,41.6721259 7.82776934,35.4313126 C5.28131797,34.3539284 2.3449525,35.5475338 1.2687522,38.0967866 C0.192685344,40.6459057 1.38484572,43.5856351 3.93129709,44.6628858" id="Fill-13" fill="#FF6100"></path>
                                </g>
                                <path d="M118.122223,53.8064247 C122.708318,53.8064247 126.426113,57.5283096 126.426113,62.1194493 C126.426113,66.7108561 122.708318,70.4327411 118.122223,70.4327411 C113.535862,70.4327411 109.818067,66.7108561 109.818067,62.1194493 C109.818067,57.5283096 113.535862,53.8064247 118.122223,53.8064247" id="Fill-9" fill="#FF6100"></path>
                                <path d="M27.8647139,177.075212 C25.4908015,177.075212 24.6782803,175.324279 24.6782803,172.384282 L24.6782803,158.312028 C24.6782803,150.243602 20.3048905,147.616735 13.4326877,147.616735 C7.18498807,147.616735 2.49961363,150.368506 2.49961363,154.184036 C2.49961363,157.436094 5.56074628,157.499013 5.56074628,157.499013 C5.56074628,154.496765 7.30988869,150.305987 13.4326877,150.305987 C20.3673408,150.305987 20.4925083,155.497603 20.4925083,158.312028 L20.4925083,161.251623 L16.4939538,161.251623 C7.372339,161.251623 1.73828257e-13,163.002556 1.73828257e-13,170.695734 C1.73828257e-13,177.012826 6.18524937,179.139007 10.0586364,179.139007 C16.8687891,179.139007 17.4936925,176.825002 17.4936925,175.511301 C17.4936925,174.573783 16.4315035,173.760368 16.1815689,173.760368 C16.1815689,173.760368 14.4324265,176.57506 10.2462542,176.57506 C7.5599568,176.57506 4.37338977,174.823592 4.37338977,170.758254 C4.37338977,165.691943 8.74717987,163.94101 16.4315035,163.94101 L20.4925083,163.94101 L20.4925083,173.510025 C20.4925083,175.26176 20.6172755,178.701641 25.6155687,178.701641 L28.8021357,178.701641 L28.8021357,177.075212 L27.8647139,177.075212 Z M55.3541921,165.004234 C59.1032123,165.004234 60.6646034,165.004234 60.6646034,160.438208 C60.6646034,152.870469 55.2918753,147.616735 47.8572194,147.616735 C37.7985831,147.616735 32.6749889,154.872146 32.6749889,164.128433 C32.6749889,171.133501 36.9236115,179.451736 47.232316,179.451736 C55.4166424,179.451736 58.9779113,176.324716 58.9779113,173.572945 C58.9779113,172.821915 58.0406229,171.571535 57.0408842,171.196287 C55.7290274,173.322602 53.3547147,176.699964 47.232316,176.699964 C40.9846163,176.699964 36.9860618,170.383006 36.9860618,164.128433 C36.9860618,157.24867 40.3597129,150.368506 47.6696016,150.368506 C53.7924007,150.368506 56.5411483,155.247394 56.5411483,160.501128 C56.5411483,161.814695 55.9166452,162.189943 54.6045216,162.189943 L46.9822479,162.189943 C44.3582674,162.189943 41.4846191,162.189943 41.4846191,164.128433 C41.4846191,164.504081 41.7346872,165.754462 42.2344231,166.255014 C44.2335002,165.004234 45.6080742,165.004234 55.3541921,165.004234 Z M76.1592189,138.922718 C76.1592189,137.234171 74.9094121,136.295851 73.0971522,136.295851 C71.4733107,136.295851 70.0983364,137.234171 70.0983364,138.922718 C70.0983364,140.486629 71.535761,141.425082 73.0971522,141.425082 C74.7842446,141.425082 76.1592189,140.549148 76.1592189,138.922718 Z M78.7203487,177.137731 C77.2833244,177.137731 75.3466977,176.011988 75.3466977,173.697849 L75.3466977,154.121517 C75.3466977,151.056616 74.4092758,149.242763 70.8484073,149.242763 L66.5374678,149.242763 L66.5374678,150.869193 L68.036809,150.869193 C70.2235039,150.869193 71.2232426,152.057054 71.2232426,154.121517 L71.2232426,173.697849 C71.2232426,176.199812 69.2866158,177.137731 67.8495915,177.137731 L66.34985,177.137731 L66.34985,178.763759 L80.2196899,178.763759 L80.2196899,177.137731 L78.7203487,177.137731 Z M88.1540817,163.94101 C88.1540817,157.874261 90.7156119,150.556331 99.2751739,150.556331 C107.771618,150.556331 110.020764,157.499013 110.020764,163.94101 C110.020764,170.383006 107.084398,176.887788 99.2751739,176.887788 C91.0904472,176.887788 88.1540817,170.383006 88.1540817,163.94101 Z M83.9058594,163.94101 C83.9058594,171.383844 88.216532,179.764598 99.2751739,179.764598 C110.395599,179.764598 114.206536,171.383844 114.206536,163.94101 C114.206536,156.372736 110.832885,147.679254 99.2751739,147.679254 C87.2795105,147.679254 83.9058594,156.372736 83.9058594,163.94101 Z M150.130008,177.075212 C147.194043,177.075212 146.381522,175.26176 146.381522,173.510025 L146.381522,152.74503 C146.381522,151.744593 145.944637,149.180244 142.695352,149.180244 L138.44713,149.180244 L138.44713,150.806674 C142.258467,150.806674 142.258467,152.995374 142.258467,154.934532 L142.258467,164.003395 C142.258467,170.57083 137.947528,176.887788 132.262281,176.887788 C127.763724,176.887788 125.514979,174.073097 125.514979,167.69362 L125.514979,153.558445 C125.514979,150.556331 123.515501,149.180244 121.328807,149.180244 L116.455681,149.180244 L116.455681,150.806674 L117.45542,150.806674 C120.829071,150.806674 121.391123,153.057893 121.391123,154.997051 L121.391123,169.757415 C121.391123,175.26176 124.140405,179.514255 131.637378,179.514255 C136.63527,179.514255 140.446341,176.637445 142.258467,173.072258 L142.258467,175.011416 C142.258467,177.575898 144.069926,178.701641 146.63159,178.701641 L151.255048,178.701641 L151.255048,177.075212 L150.130008,177.075212 Z" id="Fill-11" fill="#2B2A29"></path>
                                <path d="M18.8732038,195.34986 L15.1905497,191.443988 L15.1592745,191.443988 L15.1592745,195.34986 L14.1584683,195.34986 L14.1584683,183.483522 L15.1592745,183.483522 L15.1592745,191.068272 L15.1905497,191.068272 L18.6855527,187.334603 L19.9912921,187.334603 L16.2382687,191.209166 L20.2884064,195.34986 L18.8732038,195.34986 Z M27.0907612,195.34986 L27.0907612,190.731694 C27.0907612,188.920947 26.4339887,188.015586 25.120424,188.015586 C24.7711826,188.015586 24.4480088,188.084728 24.1508929,188.223013 C23.8537771,188.361297 23.5970624,188.553067 23.3807413,188.798326 C23.1644201,189.043586 22.9950145,189.334502 22.8725194,189.671082 C22.7500242,190.007661 22.6887776,190.371632 22.6887776,190.763004 L22.6887776,195.34986 L21.6879714,195.34986 L21.6879714,187.334603 L22.6887776,187.334603 L22.6887776,188.72788 L22.7200528,188.72788 C23.3142845,187.673785 24.2082248,187.146745 25.4019007,187.146745 C26.2776105,187.146745 26.944808,187.431138 27.4035132,187.999932 C27.8622183,188.568726 28.0915675,189.390594 28.0915675,190.465563 L28.0915675,195.34986 L27.0907612,195.34986 Z M33.7758341,195.537718 C33.1816024,195.537718 32.6486263,195.438572 32.1768898,195.240277 C31.7051532,195.041982 31.3024891,194.761503 30.9688854,194.398831 C30.6352816,194.03616 30.3798701,193.601744 30.2026431,193.095569 C30.0254161,192.589395 29.9368039,192.028437 29.9368039,191.412678 C29.9368039,190.744737 30.0306286,190.147251 30.2182807,189.620203 C30.4059328,189.093156 30.6730724,188.645694 31.0197076,188.277804 C31.3663427,187.909915 31.7846442,187.629436 32.2746247,187.436359 C32.7646052,187.243282 33.3119157,187.146745 33.9165725,187.146745 C34.4951665,187.146745 35.0164145,187.241977 35.4803322,187.432445 C35.9442499,187.622913 36.3377922,187.898174 36.6609708,188.258236 C36.9841494,188.618298 37.2317422,189.056628 37.4037567,189.573239 C37.5757711,190.08985 37.661777,190.676899 37.661777,191.334404 C37.661777,191.960599 37.5718617,192.530689 37.3920285,193.044691 C37.2121952,193.558693 36.9554805,194.000937 36.6218768,194.371435 C36.288273,194.741934 35.8816996,195.028936 35.4021442,195.232449 C34.9225888,195.435963 34.3804909,195.537718 33.7758341,195.537718 Z M33.8540221,188.015586 C33.4161672,188.015586 33.0200187,188.091251 32.6655647,188.242581 C32.3111107,188.393912 32.0074837,188.614381 31.7546746,188.903996 C31.5018655,189.193612 31.3077007,189.54845 31.1721741,189.968523 C31.0366476,190.388595 30.9688854,190.864757 30.9688854,191.397023 C30.9688854,191.897979 31.0366476,192.349355 31.1721741,192.751164 C31.3077007,193.152972 31.4992593,193.497374 31.7468558,193.78438 C31.9944524,194.071386 32.2954731,194.291856 32.6499271,194.445796 C33.0043811,194.599735 33.4005296,194.676704 33.8383845,194.676704 C34.2866645,194.676704 34.682813,194.602344 35.0268419,194.453623 C35.3708707,194.304902 35.6627696,194.088346 35.9025473,193.803949 C36.142325,193.519552 36.3234587,193.171236 36.4459538,192.758991 C36.5684489,192.346746 36.6296956,191.877106 36.6296956,191.350059 C36.6296956,190.269872 36.3899215,189.44409 35.9103661,188.872687 C35.4308107,188.301284 34.7453696,188.015586 33.8540221,188.015586 Z M46.9114158,195.34986 L45.9106096,195.34986 L44.2139303,189.463655 C44.1618047,189.281015 44.1201049,189.043586 44.0888295,188.751362 L44.0575543,188.751362 L44.0067321,189.040976 L44.0067321,189.040976 L43.9407068,189.29841 L43.9407068,189.29841 L42.0246667,195.34986 L41.0473168,195.34986 L38.6234892,187.334603 L39.6946647,187.334603 L41.4538944,193.549558 C41.5060199,193.732199 41.5425073,193.964409 41.5633575,194.246197 L41.6259079,194.246197 C41.636333,194.152268 41.6532736,194.045294 41.6767301,193.925274 C41.7001866,193.805253 41.7327646,193.677407 41.7744651,193.541731 L43.7135272,187.334603 L44.5423198,187.334603 L46.2780931,193.557386 C46.3250062,193.734808 46.3640998,193.967018 46.3953751,194.254024 L46.4579255,194.254024 C46.4527129,194.165313 46.4631379,194.062254 46.4892007,193.944842 L46.5341588,193.75992 L46.5341588,193.75992 L48.3500748,187.334603 L49.3586998,187.334603 L46.9114158,195.34986 Z M50.8833655,195.34986 L50.8833655,183.483522 L51.8841718,183.483522 L51.8841718,195.34986 L50.8833655,195.34986 Z M54.941322,191.522262 C54.9465346,192.012781 55.0116906,192.45372 55.136792,192.845092 C55.2618934,193.236464 55.441724,193.567821 55.6762891,193.839172 C55.9108542,194.110523 56.1962375,194.317947 56.5324476,194.46145 C56.8686576,194.604954 57.2478655,194.676704 57.6700828,194.676704 C58.5718554,194.676704 59.4240959,194.361002 60.2268299,193.729589 L60.2268299,194.715841 C59.4605838,195.263762 58.5327623,195.537718 57.4433376,195.537718 C56.9064441,195.537718 56.4190772,195.44379 55.9812223,195.255932 C55.5433673,195.068073 55.170675,194.795421 54.8631341,194.437968 C54.5555931,194.080515 54.3184252,193.640881 54.1516234,193.119051 C53.9848215,192.597222 53.9014218,192.002346 53.9014218,191.334404 C53.9014218,190.7343 53.9926402,190.178561 54.1750798,189.667168 C54.3575193,189.155775 54.6103246,188.713531 54.9335032,188.340424 C55.2566819,187.967316 55.6397992,187.675096 56.0828666,187.463755 C56.5259341,187.252414 57.0106948,187.146745 57.5371632,187.146745 C58.0532065,187.146745 58.5092985,187.236759 58.905453,187.41679 C59.3016074,187.596821 59.633903,187.853818 59.9023498,188.187789 C60.1707965,188.52176 60.3753864,188.928781 60.5161255,189.408864 C60.6568646,189.888947 60.727233,190.426423 60.727233,191.021308 L60.727233,191.522262 L54.941322,191.522262 Z M59.6951516,190.645593 C59.6795139,189.810666 59.4814397,189.163607 59.1009229,188.704398 C58.7204062,188.245188 58.1913394,188.015586 57.5137068,188.015586 C57.1748905,188.015586 56.8608386,188.075596 56.5715416,188.195617 C56.2822446,188.315637 56.0281361,188.489143 55.8092087,188.716139 C55.5902812,188.943134 55.4091475,189.2197 55.2658022,189.545843 C55.1224568,189.871986 55.0221166,190.238566 54.9647784,190.645593 L59.6951516,190.645593 Z M68.3036489,195.34986 L68.3036489,193.940928 L68.2723737,193.940928 C68.0065333,194.447103 67.6273253,194.839773 67.1347385,195.118952 C66.6421518,195.398131 66.0831133,195.537718 65.4576062,195.537718 C64.9572006,195.537718 64.5024117,195.445095 64.0932259,195.259845 C63.68404,195.074596 63.3335007,194.807162 63.0415974,194.457537 C62.7496942,194.107911 62.5242544,193.685236 62.3652714,193.189498 C62.2062883,192.69376 62.126798,192.132802 62.126798,191.506607 C62.126798,190.859539 62.214107,190.268576 62.3887278,189.733701 C62.5633485,189.198826 62.8109413,188.739623 63.1315136,188.356078 C63.452086,187.972534 63.8378095,187.675096 64.2886958,187.463755 C64.7395821,187.252414 65.2412834,187.146745 65.7938146,187.146745 C66.94579,187.146745 67.7719681,187.608557 68.2723737,188.532195 L68.3036489,188.532195 L68.3036489,183.483522 L69.3044552,183.483522 L69.3044552,195.34986 L68.3036489,195.34986 Z M68.3036489,190.512527 C68.3036489,190.162901 68.2437054,189.836763 68.1238166,189.534102 C68.0039277,189.231441 67.8371284,188.967921 67.6234135,188.743535 C67.4096986,188.519148 67.1529839,188.341729 66.8532618,188.211271 C66.5535397,188.080814 66.2238503,188.015586 65.8641838,188.015586 C65.4680293,188.015586 65.1031557,188.09386 64.769552,188.250408 C64.4359482,188.406957 64.1505649,188.632645 63.9133935,188.927479 C63.6762221,189.222312 63.491179,189.581064 63.3582588,190.003746 C63.2253386,190.426428 63.1588794,190.906504 63.1588794,191.443988 C63.1588794,191.950162 63.218823,192.404147 63.3387118,192.805955 C63.4586006,193.207764 63.6293094,193.546948 63.8508431,193.823517 C64.0723768,194.100087 64.3369102,194.311425 64.6444512,194.457537 C64.9519921,194.603649 65.2934096,194.676704 65.6687138,194.676704 C66.0752934,194.676704 66.4414701,194.603649 66.767255,194.457537 C67.0930399,194.311425 67.3693014,194.110523 67.5960477,193.854827 C67.822794,193.599131 67.997412,193.299083 68.1199072,192.954676 C68.2424023,192.610269 68.3036489,192.242384 68.3036489,191.851013 L68.3036489,190.512527 Z M78.4993624,194.731496 C78.4993624,196.218709 78.1618543,197.321057 77.486828,198.038572 C76.8118016,198.756088 75.7706087,199.11484 74.3632179,199.11484 C73.4875081,199.11484 72.6587237,198.919157 71.8768399,198.527785 L71.8768399,197.510223 C72.7473372,197.995524 73.5761216,198.238171 74.3632179,198.238171 C76.4534539,198.238171 77.4985562,197.13191 77.4985562,194.919353 L77.4985562,193.956583 L77.467281,193.956583 C76.8521991,195.010678 75.9139526,195.537718 74.6525135,195.537718 C74.1573204,195.537718 73.7051377,195.446399 73.2959519,195.263759 C72.886766,195.081119 72.5362267,194.817599 72.2443235,194.473192 C71.9524202,194.128784 71.7256773,193.710023 71.564088,193.216894 C71.4024987,192.723765 71.3217052,192.166721 71.3217052,191.545744 C71.3217052,190.888239 71.4077111,190.289449 71.5797256,189.749356 C71.75174,189.209262 71.9967266,188.746146 72.3146927,188.359992 C72.6326587,187.973838 73.0170791,187.675096 73.4679655,187.463755 C73.9188518,187.252414 74.4257655,187.146745 74.9887218,187.146745 C76.119847,187.146745 76.9460251,187.605948 77.467281,188.524367 L77.4985562,188.524367 L77.4985562,187.334603 L78.4993624,187.334603 L78.4993624,194.731496 Z M77.4985562,190.481217 C77.4985562,190.147247 77.4386126,189.831545 77.3187238,189.534102 C77.1988349,189.236659 77.0320356,188.975749 76.8183207,188.751362 C76.6046058,188.526975 76.3504974,188.348252 76.0559878,188.215185 C75.7614783,188.082119 75.4370014,188.015586 75.0825474,188.015586 C74.6655427,188.015586 74.288941,188.096469 73.952731,188.258236 C73.6165209,188.420003 73.3298345,188.649604 73.0926631,188.947047 C72.8554917,189.24449 72.6730549,189.605851 72.5453472,190.031142 C72.4176395,190.456433 72.3537866,190.935204 72.3537866,191.46747 C72.3537866,191.957989 72.4137302,192.401538 72.533619,192.798128 C72.6535079,193.194718 72.8229135,193.531293 73.0418409,193.807863 C73.2607684,194.084432 73.5253018,194.298379 73.835449,194.449709 C74.1455962,194.60104 74.490923,194.676704 74.8714398,194.676704 C75.2675943,194.676704 75.6272554,194.604954 75.950434,194.46145 C76.2736127,194.317947 76.5498741,194.119655 76.7792267,193.866568 C77.0085793,193.613481 77.1858036,193.316043 77.310905,192.974244 C77.4360064,192.632446 77.4985562,192.263258 77.4985562,191.866667 L77.4985562,190.481217 Z M81.5565127,191.522262 C81.5617252,192.012781 81.6268812,192.45372 81.7519826,192.845092 C81.877084,193.236464 82.0569146,193.567821 82.2914797,193.839172 C82.5260449,194.110523 82.8114282,194.317947 83.1476382,194.46145 C83.4838482,194.604954 83.8630562,194.676704 84.2852734,194.676704 C85.187046,194.676704 86.0392865,194.361002 86.8420206,193.729589 L86.8420206,194.715841 C86.0757745,195.263762 85.147953,195.537718 84.0585282,195.537718 C83.5216347,195.537718 83.0342678,195.44379 82.5964129,195.255932 C82.158558,195.068073 81.7858656,194.795421 81.4783247,194.437968 C81.1707837,194.080515 80.9336159,193.640881 80.766814,193.119051 C80.6000121,192.597222 80.5166124,192.002346 80.5166124,191.334404 C80.5166124,190.7343 80.6078308,190.178561 80.7902704,189.667168 C80.9727099,189.155775 81.2255152,188.713531 81.5486939,188.340424 C81.8718725,187.967316 82.2549898,187.675096 82.6980573,187.463755 C83.1411247,187.252414 83.6258854,187.146745 84.1523538,187.146745 C84.6683971,187.146745 85.1244891,187.236759 85.5206436,187.41679 C85.916798,187.596821 86.2490936,187.853818 86.5175404,188.187789 C86.7859872,188.52176 86.990577,188.928781 87.1313161,189.408864 C87.2720552,189.888947 87.3424237,190.426423 87.3424237,191.021308 L87.3424237,191.522262 L81.5565127,191.522262 Z M86.3103422,190.645593 C86.2947046,189.810666 86.0966303,189.163607 85.7161135,188.704398 C85.3355968,188.245188 84.80653,188.015586 84.1288974,188.015586 C83.7900811,188.015586 83.4760292,188.075596 83.1867322,188.195617 C82.8974352,188.315637 82.6433268,188.489143 82.4243993,188.716139 C82.2054719,188.943134 82.0243382,189.2197 81.8809928,189.545843 C81.7376474,189.871986 81.6373072,190.238566 81.5799691,190.645593 L86.3103422,190.645593 Z M93.2377979,193.909619 C93.388962,194.029639 93.5531552,194.136613 93.7303822,194.230542 C93.9076092,194.324471 94.090046,194.405354 94.2776981,194.473192 C94.4653502,194.541029 94.6543026,194.591907 94.844561,194.625826 C95.0348194,194.659745 95.2159531,194.676704 95.3879675,194.676704 C96.5764308,194.676704 97.1706536,194.230547 97.1706536,193.338219 C97.1706536,193.134705 97.1289537,192.95859 97.0455528,192.809869 C96.9621519,192.661148 96.8422648,192.525474 96.6858881,192.402844 C96.5295113,192.280214 96.341862,192.166718 96.1229346,192.062352 L95.646857,191.846664 L95.646857,191.846664 L95.3801487,191.733602 C95.010057,191.582271 94.6920957,191.428334 94.4262552,191.271785 C94.1604148,191.115236 93.9414906,190.94434 93.7694762,190.75909 C93.5974617,190.573841 93.469756,190.37033 93.386355,190.148553 C93.3029541,189.926776 93.2612542,189.674997 93.2612542,189.393209 C93.2612542,189.038365 93.3381383,188.722663 93.4919088,188.446093 C93.6456793,188.169524 93.8528754,187.934704 94.1135033,187.741627 C94.3741312,187.548551 94.675152,187.401136 95.0165745,187.299379 C95.3579971,187.197623 95.7163552,187.146745 96.0916594,187.146745 C96.7849296,187.146745 97.3895774,187.2772 97.9056207,187.538115 L97.9056207,188.594814 C97.3061764,188.20866 96.6598289,188.015586 95.9665586,188.015586 C95.7163558,188.015586 95.4883098,188.046896 95.2824137,188.109515 C95.0765176,188.172135 94.9005964,188.260844 94.7546448,188.375647 C94.6086932,188.490449 94.4953217,188.627427 94.4145271,188.786585 C94.3337324,188.945743 94.2933357,189.121858 94.2933357,189.314935 C94.2933357,189.51323 94.3246106,189.686736 94.3871613,189.835457 C94.449712,189.984178 94.547446,190.118547 94.6803662,190.238568 C94.8132864,190.358589 94.9852983,190.47339 95.1964069,190.582974 C95.337146,190.65603 95.4981544,190.732564 95.6794345,190.812577 L95.9665586,190.935207 C96.3522879,191.091755 96.6858867,191.246997 96.9673648,191.400937 C97.248843,191.554877 97.4807983,191.72186 97.6632379,191.901891 C97.8456774,192.081922 97.9812019,192.282823 98.0698154,192.5046 C98.1584289,192.726378 98.202735,192.983375 98.202735,193.275599 C98.202735,193.635662 98.1284572,193.956582 97.9798992,194.23837 C97.8313413,194.520157 97.6254483,194.757586 97.3622141,194.950663 C97.0989799,195.14374 96.7901405,195.28985 96.4356865,195.388997 C96.0812325,195.488145 95.695509,195.537718 95.2785043,195.537718 C94.4705577,195.537718 93.7903291,195.368126 93.2377979,195.028937 L93.2377979,193.909619 Z M105.599319,195.34986 L105.599319,190.637765 C105.599319,189.740219 105.437732,189.07881 105.114553,188.65352 C104.791374,188.228229 104.28837,188.015586 103.605525,188.015586 C103.282346,188.015586 102.97481,188.080814 102.682907,188.211271 C102.391003,188.341729 102.135592,188.529584 101.916664,188.774844 C101.697737,189.020104 101.523119,189.318847 101.392805,189.671082 C101.262491,190.023316 101.197335,190.421205 101.197335,190.86476 L101.197335,195.34986 L100.196529,195.34986 L100.196529,183.483522 L101.197335,183.483522 L101.197335,188.720052 L101.22861,188.720052 C101.854117,187.671176 102.750664,187.146745 103.918277,187.146745 C104.809624,187.146745 105.479428,187.420701 105.927708,187.968622 C106.375988,188.516543 106.600125,189.325366 106.600125,190.395116 L106.600125,195.34986 L105.599319,195.34986 Z M113.621406,195.34986 L113.621406,193.925274 L113.590131,193.925274 C113.329503,194.436666 112.973751,194.833251 112.522865,195.115038 C112.071978,195.396826 111.562458,195.537718 110.99429,195.537718 C110.60856,195.537718 110.260627,195.482927 109.95048,195.373343 C109.640333,195.263758 109.377102,195.108517 109.160781,194.907612 C108.94446,194.706708 108.777661,194.465366 108.660378,194.183578 C108.543096,193.90179 108.484455,193.591306 108.484455,193.252117 C108.484455,192.526774 108.708592,191.948857 109.156872,191.518348 C109.605152,191.087839 110.282774,190.80736 111.18976,190.676902 L113.621406,190.324669 C113.621406,188.785273 113.024577,188.015586 111.830901,188.015586 C110.897853,188.015586 110.032581,188.357379 109.23506,189.040976 L109.23506,187.94514 C109.401862,187.825119 109.590814,187.716841 109.801923,187.620303 C110.013031,187.523764 110.235865,187.440273 110.47043,187.369826 C110.704995,187.299379 110.946072,187.244588 111.193669,187.20545 C111.441265,187.166313 111.682343,187.146745 111.916908,187.146745 C112.808255,187.146745 113.481968,187.397219 113.938067,187.898175 C114.394166,188.399132 114.622212,189.145336 114.622212,190.136812 L114.622212,195.34986 L113.621406,195.34986 Z M111.557243,191.459642 C111.197577,191.511825 110.89004,191.577053 110.634625,191.655327 C110.379209,191.733602 110.168104,191.839271 110.001302,191.972337 C109.8345,192.105404 109.712007,192.269777 109.633819,192.465463 C109.55563,192.661149 109.516537,192.902492 109.516537,193.189498 C109.516537,193.403448 109.554327,193.60174 109.629909,193.78438 C109.705491,193.967021 109.814953,194.124872 109.958299,194.257938 C110.101644,194.391005 110.276262,194.494064 110.482158,194.56712 C110.688054,194.640176 110.921313,194.676704 111.181941,194.676704 C111.536395,194.676704 111.862175,194.608867 112.159291,194.473192 C112.456406,194.337516 112.713121,194.14966 112.929442,193.909619 C113.145763,193.669577 113.315169,193.382575 113.437664,193.048605 C113.560159,192.714634 113.621406,192.351968 113.621406,191.960596 L113.621406,191.170029 L111.557243,191.459642 Z M121.002352,188.359992 C120.767787,188.187788 120.465463,188.101688 120.095371,188.101688 C119.829531,188.101688 119.594969,188.152565 119.391679,188.254322 C119.18839,188.356079 119.009862,188.493057 118.856092,188.665261 C118.702321,188.837464 118.572009,189.037061 118.465152,189.264057 C118.358294,189.491052 118.272288,189.727177 118.207131,189.972436 C118.141974,190.217696 118.095062,190.465561 118.066393,190.716039 C118.037724,190.966518 118.02339,191.203946 118.02339,191.428333 L118.02339,195.34986 L117.030402,195.34986 L117.030402,187.334603 L118.02339,187.334603 L118.02339,189.048803 L118.054665,189.048803 C118.148491,188.756579 118.267075,188.494364 118.41042,188.26215 C118.553765,188.029935 118.719262,187.834252 118.906914,187.675095 C119.094566,187.515937 119.299156,187.394613 119.52069,187.31112 C119.742223,187.227628 119.975482,187.185882 120.220472,187.185882 C120.382061,187.185882 120.526708,187.196318 120.654415,187.217192 C120.782123,187.238065 120.898101,187.269374 121.002352,187.31112 L121.002352,188.359992 Z M122.722488,191.522262 C122.7277,192.012781 122.792856,192.45372 122.917958,192.845092 C123.043059,193.236464 123.22289,193.567821 123.457455,193.839172 C123.69202,194.110523 123.977403,194.317947 124.313613,194.46145 C124.649823,194.604954 125.029031,194.676704 125.451248,194.676704 C126.353021,194.676704 127.205261,194.361002 128.007995,193.729589 L128.007995,194.715841 C127.241749,195.263762 126.313928,195.537718 125.224503,195.537718 C124.68761,195.537718 124.200243,195.44379 123.762388,195.255932 C123.324533,195.068073 122.951841,194.795421 122.6443,194.437968 C122.336759,194.080515 122.099591,193.640881 121.932789,193.119051 C121.765987,192.597222 121.682587,192.002346 121.682587,191.334404 C121.682587,190.7343 121.773806,190.178561 121.956245,189.667168 C122.138685,189.155775 122.39149,188.713531 122.714669,188.340424 C123.037847,187.967316 123.420965,187.675096 123.864032,187.463755 C124.3071,187.252414 124.79186,187.146745 125.318329,187.146745 C125.834372,187.146745 126.290464,187.236759 126.686618,187.41679 C127.082773,187.596821 127.415069,187.853818 127.683515,188.187789 C127.951962,188.52176 128.156552,188.928781 128.297291,189.408864 C128.43803,189.888947 128.508399,190.426423 128.508399,191.021308 L128.508399,191.522262 L122.722488,191.522262 Z M127.476317,190.645593 C127.460679,189.810666 127.262605,189.163607 126.882088,188.704398 C126.501572,188.245188 125.972505,188.015586 125.294872,188.015586 C124.956056,188.015586 124.642004,188.075596 124.352707,188.195617 C124.06341,188.315637 123.809302,188.489143 123.590374,188.716139 C123.371447,188.943134 123.190313,189.2197 123.046968,189.545843 C122.903622,189.871986 122.803282,190.238566 122.745944,190.645593 L127.476317,190.645593 Z M136.084814,195.34986 L136.084814,193.940928 L136.053539,193.940928 C135.787699,194.447103 135.408491,194.839773 134.915904,195.118952 C134.423317,195.398131 133.864279,195.537718 133.238772,195.537718 C132.738366,195.537718 132.283577,195.445095 131.874391,195.259845 C131.465206,195.074596 131.114666,194.807162 130.822763,194.457537 C130.53086,194.107911 130.30542,193.685236 130.146437,193.189498 C129.987454,192.69376 129.907964,192.132802 129.907964,191.506607 C129.907964,190.859539 129.995273,190.268576 130.169893,189.733701 C130.344514,189.198826 130.592107,188.739623 130.912679,188.356078 C131.233252,187.972534 131.618975,187.675096 132.069861,187.463755 C132.520748,187.252414 133.022449,187.146745 133.57498,187.146745 C134.726956,187.146745 135.553134,187.608557 136.053539,188.532195 L136.084814,188.532195 L136.084814,183.483522 L137.085621,183.483522 L137.085621,195.34986 L136.084814,195.34986 Z" id="knowledgeshared" fill="#2B2A29" fill-rule="nonzero"></path>
                                <path d="M136.084814,190.512527 L136.084814,191.851013 C136.084814,192.242384 136.023568,192.610269 135.901073,192.954676 C135.778578,193.299083 135.603959,193.599131 135.377213,193.854827 C135.150467,194.110523 134.874205,194.311425 134.548421,194.457537 C134.222636,194.603649 133.856459,194.676704 133.449879,194.676704 C133.074575,194.676704 132.733158,194.603649 132.425617,194.457537 C132.118076,194.311425 131.853542,194.100087 131.632009,193.823517 C131.410475,193.546948 131.239766,193.207764 131.119877,192.805955 C130.999988,192.404147 130.940045,191.950162 130.940045,191.443988 C130.940045,190.906504 131.006504,190.426428 131.139424,190.003746 C131.272345,189.581064 131.457388,189.222312 131.694559,188.927479 C131.93173,188.632645 132.217114,188.406957 132.550717,188.250408 C132.884321,188.09386 133.249195,188.015586 133.645349,188.015586 C134.005016,188.015586 134.334705,188.080814 134.634427,188.211271 C134.934149,188.341729 135.190864,188.519148 135.404579,188.743535 C135.618294,188.967921 135.785093,189.231441 135.904982,189.534102 C136.024871,189.836763 136.084814,190.162901 136.084814,190.512527 Z" id="Path" fill="#FFFFFF" fill-rule="nonzero"></path>
                            </g>
                        </g>
                    </g>
                </g>
            </g>
        </g>
        <g id="Group-4" transform="translate(799.000000, 818.500000) scale(-1, 1) rotate(-66.000000) translate(-799.000000, -818.500000) translate(619.000000, 745.000000)">
            <g id="Path-23" transform="translate(0.822874, 0.170940)">
                <mask id="mask-38" fill="white">
                    <use xlink:href="#path-37"></use>
                </mask>
                <use id="Mask" fill="url(#linearGradient-36)" xlink:href="#path-37"></use>
                <path d="M-0.913545458,140.669044 C0.484211051,140.669044 66.7787575,74.8735595 150.426753,49.9093511 C206.192083,33.2665456 260.303504,30.0979357 312.761015,40.4035214" stroke="#FFFFFF" stroke-width="3.2" opacity="0.628138951" stroke-linecap="round" mask="url(#mask-38)" transform="translate(155.923735, 87.580491) rotate(-1.000000) translate(-155.923735, -87.580491) "></path>
            </g>
        </g>
        <g id="Group-4-Copy" transform="translate(277.625393, 735.427184) rotate(-68.000000) translate(-277.625393, -735.427184) translate(36.625393, 637.927184)">
            <g id="Path-23" transform="translate(0.485022, 0.273266)">
                <mask id="mask-41" fill="white">
                    <use xlink:href="#path-40"></use>
                </mask>
                <use id="Mask" fill="url(#linearGradient-39)" xlink:href="#path-40"></use>
                <path d="M0.465831087,188.767096 C2.32622756,188.767096 90.5634415,101.103966 201.89788,67.8427065 C276.120838,45.6685338 348.142464,41.4468115 417.962756,55.1775396" stroke="#FFFFFF" stroke-width="3.6" opacity="0.628138951" stroke-linecap="round" stroke-linejoin="round" mask="url(#mask-41)" transform="translate(209.214294, 118.034146) rotate(-1.000000) translate(-209.214294, -118.034146) "></path>
            </g>
        </g>
    </g>
</svg>