<?xml version="1.0" encoding="UTF-8"?>
<svg width="800px" height="1000px" viewBox="0 0 800 1000" version="1.1" xmlns="http://www.w3.org/2000/svg" xmlns:xlink="http://www.w3.org/1999/xlink">
    <title>hero-aeiou-mob</title>
    <defs>
        <rect id="path-1" x="0" y="-150" width="800" height="1200"></rect>
        <linearGradient x1="50%" y1="11.0547981%" x2="50%" y2="135.058874%" id="linearGradient-3">
            <stop stop-color="#FABFBF" offset="0%"></stop>
            <stop stop-color="#EC8B8B" offset="100%"></stop>
        </linearGradient>
        <linearGradient x1="50%" y1="0%" x2="50%" y2="100%" id="linearGradient-4">
            <stop stop-color="#F7B5B5" offset="0%"></stop>
            <stop stop-color="#F9D9D9" offset="100%"></stop>
        </linearGradient>
        <linearGradient x1="50%" y1="0%" x2="50%" y2="135.058874%" id="linearGradient-5">
            <stop stop-color="#FABFBF" offset="0%"></stop>
            <stop stop-color="#EC8B8B" offset="100%"></stop>
        </linearGradient>
        <linearGradient x1="69.8783661%" y1="6.06166293%" x2="30.9575046%" y2="96.7456339%" id="linearGradient-6">
            <stop stop-color="#FFC4C4" offset="0%"></stop>
            <stop stop-color="#EAA1A1" offset="100%"></stop>
        </linearGradient>
        <linearGradient x1="69.8783661%" y1="6.06166293%" x2="30.9575046%" y2="96.7456339%" id="linearGradient-7">
            <stop stop-color="#FFC4C4" offset="0%"></stop>
            <stop stop-color="#EAA1A1" offset="100%"></stop>
        </linearGradient>
        <linearGradient x1="50%" y1="0.659839527%" x2="50%" y2="100%" id="linearGradient-8">
            <stop stop-color="#FFA300" offset="0%"></stop>
            <stop stop-color="#FF6100" offset="100%"></stop>
        </linearGradient>
        <linearGradient x1="50%" y1="0.659839527%" x2="50%" y2="100%" id="linearGradient-9">
            <stop stop-color="#FFA300" offset="0%"></stop>
            <stop stop-color="#FF6100" offset="100%"></stop>
        </linearGradient>
    </defs>
    <g id="hero-aeiou-mob" stroke="none" stroke-width="1" fill="none" fill-rule="evenodd">
        <g id="hero-aeiou" transform="translate(0.000000, 150.000000)">
            <mask id="mask-2" fill="white">
                <use xlink:href="#path-1"></use>
            </mask>
            <use id="Mask" fill="#302060" xlink:href="#path-1"></use>
            <g id="Group-12" mask="url(#mask-2)">
                <g transform="translate(-349.000000, -353.000000)">
                    <g id="Group-3" transform="translate(474.000000, 483.000000)">
                        <ellipse id="Oval" fill="#1C0E46" cx="275.678821" cy="607.746492" rx="275.678821" ry="31.3271388"></ellipse>
                        <g id="Group" transform="translate(2.506171, 0.000000)">
                            <path d="M258.178585,174.429511 C256.955029,194.164747 252.385861,208.658647 244.471083,217.911212 C236.556305,227.163778 224.04082,233.109268 206.924629,235.747684 C228.215464,278.771324 250.185754,300.156369 272.8355,299.902817 C295.485246,299.649265 317.876959,279.210824 340.01064,238.587493 C324.680405,235.481885 311.934437,228.589791 301.772736,217.911212 C291.611035,207.232633 286.93237,192.738733 287.736742,174.429511 L258.178585,174.429511 Z" id="Path-3" fill="url(#linearGradient-3)"></path>
                            <circle id="Oval" fill="#120C20" cx="267.068821" cy="32.0789906" r="32.0789906"></circle>
                            <path d="M200.909819,473.331997 L273.087547,456.587397 L273.087547,537.43719 L126.875639,535.318156 C148.356531,523.076628 163.459276,513.303469 172.183873,505.998677 C180.90847,498.693886 190.483785,487.804992 200.909819,473.331997 Z" id="Rectangle" fill="#6C2A88"></path>
                            <path d="M345.867211,473.165111 L419.299456,459.414457 L419.230715,537.43719 L271.833032,535.151269 C293.313924,522.909742 308.416668,513.136583 317.141266,505.831791 C325.865863,498.526999 335.441178,487.638106 345.867211,473.165111 Z" id="Rectangle-Copy-3" fill="#6C2A88" transform="translate(345.566244, 498.425824) scale(-1, 1) translate(-345.566244, -498.425824) "></path>
                            <path d="M114.697531,530.143415 C153.793717,537.047463 228.890878,533.312127 234.727099,530.143415 C241.652794,526.383186 240.213157,517.410011 254.765082,512.342395 C270.012533,507.032566 285.583954,522.923941 297.979866,523.702353 C310.375777,524.480765 314.148168,516.721156 324.495195,516.721156 C334.842222,516.721156 335.921679,522.257847 343.845656,522.495068 C351.769632,522.732289 359.00174,518.94295 361.457414,523.702353 C363.913088,528.461757 359.829386,525.005076 348.193044,530.143415 C342.484072,532.664366 310.47599,539.133269 279.449609,550.642039 C268.305251,554.775871 233.524672,570.994458 193.958154,585.120004 C169.505201,593.849894 144.884888,601.455979 120.097215,607.938261" id="Path-5-Copy" fill="#EDA6A6" transform="translate(238.419999, 559.598587) scale(-1, 1) translate(-238.419999, -559.598587) "></path>
                            <path d="M271.082611,174.260692 C283.55881,174.260692 293.814003,165.874169 305.166538,157.703561 C321.740033,145.775341 334.62452,130.431995 334.62452,110.27153 C334.62452,73.7307595 307.623381,44.1086121 271.082611,44.1086121 C234.54184,44.1086121 204.919692,73.7307595 204.919692,110.27153 C204.919692,146.812301 234.54184,174.260692 271.082611,174.260692 Z" id="Oval" fill="#120C20"></path>
                            <path d="M229.913115,130.071222 C229.913115,157.167038 251.384495,190.23 273.505353,190.23 C295.626212,190.23 315.619829,153.200044 315.619829,130.071222 C306.653845,123.706501 280.232841,116.312803 273.837969,93.6642977 C273.837969,93.6642977 263.025161,125.062957 229.913115,130.071222 Z" id="Path" fill="url(#linearGradient-4)"></path>
                            <path d="M316.602479,119.196124 C312.299772,122.568026 309.709136,126.666294 308.830571,131.490928 C307.600295,138.246979 311.409587,145.719865 310.484207,156.507645 C310.08065,161.212173 308.308094,170.34366 305.166538,183.902107 C314.985865,172.75542 322.500458,161.088538 327.710317,148.901462 C332.920176,136.714385 335.22491,123.138329 334.62452,108.173294" id="Path-2" fill="#120C20"></path>
                            <path d="M273.837969,372.918266 L273.932819,373.316266 L334.576069,383.993548 C328.685068,402.739665 325.69206,417.453208 325.597044,428.134177 L325.594708,428.656219 C325.594708,439.377902 332.251886,454.269829 345.566244,473.331997 C315.365675,467.123157 291.20611,466.404408 273.087547,471.175751 L273.087547,471.175751 C254.968985,466.404408 230.909742,467.123157 200.909819,473.331997 C212.63184,455.059673 218.492851,440.562669 218.492851,429.840985 C218.492851,419.119302 215.973402,403.836823 210.934503,383.993548 L271.579819,373.315266 L271.672603,372.918266 L272.754819,373.109266 L273.837969,372.918266 Z" id="Combined-Shape" fill="url(#linearGradient-5)"></path>
                            <path d="M421.452879,621.530433 C466.852018,621.530433 527.930921,605.586557 527.930921,605.586557 C508.01954,571.685168 527.170747,529.498205 527.170747,528.337384 C516.44267,521.646415 447.19603,503.239165 421.452879,503.239165 C376.05374,503.239165 339.250466,531.963672 339.250466,567.397146 C339.250466,602.830621 376.05374,621.530433 421.452879,621.530433 Z" id="Oval-Copy" fill="#8440A0" transform="translate(433.590693, 562.384799) scale(-1, 1) translate(-433.590693, -562.384799) "></path>
                            <path d="M339.250466,527.538904 C345.418843,542.332646 348.503032,555.618727 348.503032,567.397146 C348.503032,579.175565 345.418843,591.905369 339.250466,605.586557" id="Path-11" stroke="#101011" stroke-width="5.37036665" stroke-linecap="round"></path>
                            <path d="M183.802241,529.325391 C222.898426,536.229439 297.995587,532.494102 303.831808,529.325391 C310.757504,525.565162 309.317866,516.591986 323.869792,511.52437 C339.117242,506.214542 354.688664,522.105917 367.084575,522.884329 C379.480486,523.66274 383.252877,515.903131 393.599904,515.903131 C403.946932,515.903131 405.026388,521.439823 412.950365,521.677044 C420.874341,521.914264 428.106449,518.124925 430.562123,522.884329 C433.017797,527.643732 428.934096,524.187051 417.297753,529.325391 C411.588781,531.846341 379.580699,538.315245 348.554318,549.824014 C337.40996,553.957846 302.629381,570.176434 263.062863,584.30198 C249.753319,589.053588 230.132201,595.761163 204.199508,604.424706 C189.724751,609.260404 163.950128,610.431589 126.875639,607.938261" id="Path-5" fill="#FABFBF"></path>
                            <path d="M104.672847,621.530433 C150.071986,621.530433 211.150889,605.586557 211.150889,605.586557 C191.239508,571.685168 206.289177,530.22283 206.289177,529.06201 C195.5611,522.371041 130.415998,503.239165 104.672847,503.239165 C59.2737076,503.239165 22.4704335,531.963672 22.4704335,567.397146 C22.4704335,602.830621 59.2737076,621.530433 104.672847,621.530433 Z" id="Oval" fill="#8440A0"></path>
                            <path d="M212.597956,234.645353 C202.953602,237.381782 157.328121,234.764861 142.12647,279.849305 C126.92482,324.933748 141.95988,409.280271 136.336687,423.125132 C132.645641,432.212853 117.11315,440.76154 101.803755,456.587397 C86.4943603,472.413253 69.0183896,493.06313 62.8867837,498.425824 C58.7990464,502.000953 51.2179747,503.854983 40.1435688,503.987915 C35.8033323,503.575696 31.2724581,503.575696 26.5509462,503.987915 C19.4686783,504.606243 3.21254335,511.676989 6.90888082,517.149025 C10.6052183,522.621062 26.8015482,506.911242 28.9059706,512.638893 C29.7290635,514.879122 30.7010424,519.537995 29.4145806,521.174709 C28.1281189,522.811423 26.7553061,523.607605 22.4704335,524.239752 C18.1855609,524.871898 13.0823932,518.378919 10.4014976,518.378919 C7.72060204,518.378919 9.35660669,523.995052 14.1248944,526.295122 C17.0769229,527.719087 20.0366384,528.92117 18.886435,529.751063 C3.24265271,541.038351 -1.00525414,543.700656 0.189449466,545.362315 C0.721179008,546.101874 2.34920694,546.249314 5.07353327,545.804634 C4.78617076,546.871418 5.28451219,547.543797 6.56855755,547.821772 C7.85260291,548.099746 9.34755131,547.862488 11.0534027,547.109997 C10.9945504,548.572425 12.1825248,549.099808 14.617326,548.692147 C18.2695278,548.080654 48.9936641,525.418769 69.0183258,514.145031 C103.18094,494.911731 154.102832,462.693405 161.884607,448.67869 C172.478239,429.599915 179.821983,391.760751 183.915837,335.161196 C193.677778,307.912318 198.789904,289.475021 199.252214,279.849305 C200.576981,252.266439 230.994699,233.294977 212.597956,234.645353 Z" id="Path-4" fill="url(#linearGradient-6)"></path>
                            <path d="M540.90637,235.647818 C531.262016,238.384247 485.636535,235.767326 470.434885,280.851769 C455.233234,325.936213 470.268294,410.282736 464.645101,424.127596 C460.954056,433.215318 445.421564,441.764005 430.11217,457.589861 C414.802775,473.415718 397.326804,494.065595 391.195198,499.428289 C387.107461,503.003418 379.526389,504.857448 368.451983,504.99038 C364.111747,504.578161 359.580872,504.578161 354.859361,504.99038 C347.777093,505.608708 331.520958,512.679454 335.217295,518.15149 C338.913633,523.623527 355.109963,507.913707 357.214385,513.641358 C358.037478,515.881587 359.009457,520.54046 357.722995,522.177174 C356.436533,523.813888 355.06372,524.61007 350.778848,525.242216 C346.493975,525.874362 341.390808,519.381383 338.709912,519.381383 C336.029016,519.381383 337.665021,524.997517 342.433309,527.297587 C345.385337,528.721551 348.345053,529.923634 347.194849,530.753528 C331.551067,542.040816 327.30316,544.703121 328.497864,546.36478 C329.029593,547.104339 330.657621,547.251779 333.381948,546.807099 C333.094585,547.873883 333.592927,548.546262 334.876972,548.824237 C336.161017,549.102211 337.655966,548.864953 339.361817,548.112462 C339.302965,549.57489 340.490939,550.102273 342.92574,549.694612 C346.577942,549.083119 377.302078,526.421233 397.32674,515.147496 C431.489355,495.914196 482.411247,463.69587 490.193022,449.681155 C500.786654,430.60238 508.130397,392.763215 512.224252,336.163661 C521.986193,308.914783 527.098318,290.477486 527.560628,280.851769 C528.885395,253.268904 559.303114,234.297442 540.90637,235.647818 Z" id="Path-4-Copy" fill="url(#linearGradient-7)" transform="translate(437.554840, 392.703997) scale(-1, 1) translate(-437.554840, -392.703997) "></path>
                            <path d="M220.927808,233.740379 L220.934002,233.774351 L220.934002,233.774351 C227.83861,273.447508 245.139358,293.519335 272.836248,293.989833 C300.57466,293.52588 318.565521,273.74461 326.809362,234.646131 C327.046116,233.523266 328.123608,232.784765 329.256267,232.969054 L329.256267,232.969054 L347.353281,235.913431 C348.375513,236.079747 349.133537,236.951765 349.155959,237.987196 C349.658787,261.212046 350.458661,277.569543 351.555581,287.059686 C353.882723,307.193248 363.027108,323.191203 361.797858,335.161196 C359.677359,355.809839 350.198333,373.969471 333.360778,389.640093 C324.418035,385.207194 315.304974,382.132906 306.021594,380.417229 C296.738213,378.701551 285.449051,377.843713 272.154107,377.843713 L272.835241,377.844136 L272.413624,377.845699 C259.596321,377.892032 248.674915,378.749209 239.649407,380.417229 C230.366027,382.132906 221.252965,385.207194 212.310223,389.640093 C195.501131,373.969471 186.036335,355.809839 183.915837,335.161196 C182.686587,323.191203 191.788277,307.193248 194.115419,287.059686 C195.213105,277.562916 196.01333,261.189199 196.516094,237.938535 C196.538012,236.924965 197.265575,236.064695 198.261445,235.874834 L218.415393,232.032528 C219.580785,231.81037 220.70563,232.574992 220.927808,233.740379 Z" id="Combined-Shape" fill="#8440A0"></path>
                            <path d="M200.909819,473.331997 C217.325261,469.725619 228.852274,467.800121 235.490857,467.555504 C253.110689,466.906251 265.802229,470.946287 272.856607,470.946287 C280.261182,470.946287 293.300827,466.84019 312.574614,467.555504 C318.885212,467.789711 329.882422,469.715209 345.566244,473.331997" id="Path-9" stroke="#101011" stroke-width="5.37036665" stroke-linecap="round"></path>
                            <path d="M206.289177,529.06201 C202.702938,541.875882 200.909819,554.654261 200.909819,567.397146 C200.909819,580.140032 204.323509,592.869835 211.150889,605.586557" id="Path-10" stroke="#101011" stroke-width="5.37036665" stroke-linecap="round"></path>
                            <path d="M212.310223,389.640093 C232.471249,381.941747 252.646341,378.092574 272.8355,378.092574 C293.024659,378.092574 313.199752,381.941747 333.360778,389.640093" id="Path-12" stroke="#101011" stroke-width="5.37036665" stroke-linecap="round"></path>
                        </g>
                    </g>
                    <g id="Group-9" transform="translate(485.000000, 521.500000) rotate(20.000000) translate(-485.000000, -521.500000) translate(124.000000, 98.000000)">
                        <g id="Group-2" transform="translate(361.271509, 423.377721) rotate(10.000000) translate(-361.271509, -423.377721) translate(61.771509, 46.877721)">
                            <g id="Group-4" transform="translate(299.213681, 376.349915) rotate(-60.000000) translate(-299.213681, -376.349915) translate(-52.286319, 233.849915)">
                                <path d="M0.603835205,284.610824 C21.5547608,156.188011 49.3937566,85.5482241 84.1208225,72.6914622 C118.847888,59.8347003 133.168097,74.1084987 127.081447,115.512857 C173.906737,44.9504944 215.143617,7.00942812 250.792085,1.6896585 C286.440553,-3.63011112 297.87316,20.0371568 285.089904,72.6914622 C454.148782,-9.08969858 577.32632,-21.2145063 654.622516,36.317039 C706.592427,74.9982343 720.923066,133.561066 673.719694,152.103009 C624.317821,171.508544 532.912919,152.025458 466.457692,147.250225 C419.791387,143.896953 385.767517,156.767238 385.767517,156.767238 C385.767517,156.767238 443.287328,200.767334 398.302538,219.963739 C353.317748,239.160144 284.862861,208.059485 236.787288,197.985862 C204.736906,191.270114 184.06716,195.498664 174.778051,210.671513 C219.153561,237.146925 226.100004,257.456296 195.617378,271.599625 C149.89344,292.81462 104.168323,275.550717 41.4022884,274.073594 C29.4301809,273.791845 15.8306965,277.304255 0.603835205,284.610824 Z" id="Path-13" fill="#402C80"></path>
                                <path d="M1.23332768,272.517531 C3.96955822,272.517531 133.746928,143.963985 297.49519,95.1880317 C406.660699,62.6707293 512.588535,56.4797871 615.278697,76.6152053" id="Path-23" stroke="#FFFFFF" stroke-width="4.83565171" opacity="0.628138951" stroke-linecap="round" stroke-linejoin="round"></path>
                            </g>
                        </g>
                        <g id="Group-4-Copy" transform="translate(335.462524, 459.421541) rotate(-68.000000) translate(-335.462524, -459.421541) translate(54.462524, 345.421541)">
                            <path d="M0.728141054,227.224334 C17.4811515,124.595518 39.7420766,68.1438825 67.5109164,57.8694286 C95.2797562,47.5949748 106.730639,59.0018503 101.863565,92.0900552 C139.306521,35.7002934 172.28081,5.37977127 200.786431,1.12848874 C229.292053,-3.12279379 238.43392,15.7908528 228.212032,57.8694286 C363.396758,-7.48581146 461.893341,-17.1753257 523.701779,28.8008859 C565.258532,59.7128806 576.717756,106.513243 538.972475,121.330996 C499.469203,136.838889 426.379007,121.269022 373.239345,117.452905 C335.923519,114.773144 308.716976,125.058405 308.716976,125.058405 C308.716976,125.058405 354.711603,160.220988 318.740368,175.561754 C282.769134,190.902521 228.030481,166.048495 189.587761,157.998181 C163.959281,152.631305 147.431111,156.010542 140.00325,168.135892 C175.487286,189.293661 181.041877,205.523851 156.667023,216.826463 C120.104743,233.78038 83.5415204,219.983969 33.3518506,218.80353 C23.7785818,218.57837 12.904012,221.385305 0.728141054,227.224334 Z" id="Path-13" fill="url(#linearGradient-8)"></path>
                            <path d="M1.26996616,218.58838 C3.45466026,218.58838 107.073068,115.644128 237.814925,76.5848853 C324.976164,50.5453904 409.55234,45.5877527 491.543455,61.711972" id="Path-23" stroke="#FFFFFF" stroke-width="4.01995078" opacity="0.628138951" stroke-linecap="round" stroke-linejoin="round"></path>
                        </g>
                    </g>
                    <g id="Group-11" transform="translate(1134.000000, 787.000000) rotate(-8.000000) translate(-1134.000000, -787.000000) translate(786.000000, 379.000000)">
                        <g id="Group-2" transform="translate(348.311938, 407.876453) scale(-1, 1) rotate(10.000000) translate(-348.311938, -407.876453) translate(59.311938, 45.376453)">
                            <g id="Group-4" transform="translate(289.190325, 362.835091) rotate(-60.000000) translate(-289.190325, -362.835091) translate(-49.309675, 225.335091)">
                                <path d="M0.581727996,274.190843 C20.7656124,150.469761 47.5853855,82.41619 81.0410475,70.0301313 C114.496709,57.6440725 128.292636,71.3952882 122.428826,111.283778 C167.539781,43.3047971 207.266923,6.75280364 241.610254,1.62779786 C275.953584,-3.49720793 286.967628,19.3035699 274.652384,70.0301313 C437.521792,-8.75691265 556.189636,-20.4378151 630.655916,34.9874239 C680.72314,72.2524493 694.529115,128.671218 649.053921,146.534316 C601.460716,165.229388 513.402269,146.459604 449.380057,141.859199 C404.422267,138.628694 371.644055,151.027781 371.644055,151.027781 C371.644055,151.027781 427.05799,193.416975 383.720153,211.910574 C340.382316,230.404174 274.433653,200.442151 228.118191,190.737337 C197.241216,184.267461 177.328217,188.341198 168.379194,202.95855 C211.130058,228.464661 217.822182,248.030479 188.455566,261.656002 C144.405642,282.094288 100.354583,265.46244 39.8864957,264.039396 C28.3527029,263.767962 15.2511137,267.151778 0.581727996,274.190843 Z" id="Path-13" fill="#402C80"></path>
                                <path d="M1.18817392,262.540302 C3.82422743,262.540302 128.850275,138.693273 286.603496,91.7030715 C391.772311,60.3762706 493.821988,54.4119871 592.752527,73.8102209" id="Path-23" stroke="#FFFFFF" stroke-width="4.65861208" opacity="0.628138951" stroke-linecap="round" stroke-linejoin="round"></path>
                            </g>
                        </g>
                        <g id="Group-2" transform="translate(289.721003, 500.312740) scale(-1, 1) translate(-289.721003, -500.312740) translate(73.221003, 228.812740)">
                            <g id="Group-4" transform="translate(216.757065, 271.851125) rotate(-60.000000) translate(-216.757065, -271.851125) translate(-36.742935, 168.851125)">
                                <path d="M0.43515981,205.107603 C15.5336514,112.558434 35.5960989,61.6511734 60.6225023,52.3858208 C85.6489057,43.1204683 95.9689052,53.4070222 91.5825008,83.2454826 C125.327609,32.3940182 155.045374,5.05141366 180.735795,1.2176691 C206.426216,-2.61607546 214.665237,14.4399751 205.452857,52.3858208 C327.286809,-6.55058114 416.055919,-15.2884437 471.760187,26.1722331 C509.212817,54.0482189 519.540334,96.2521028 485.522758,109.614537 C449.920809,123.599328 384.048963,109.558649 336.157347,106.11733 C302.526813,103.700762 278.007174,112.97586 278.007174,112.97586 C278.007174,112.97586 319.459395,144.684964 287.040662,158.519043 C254.621928,172.353122 205.289237,149.940124 170.6431,142.680469 C147.545675,137.840698 132.649819,140.888045 125.95553,151.822509 C157.93518,170.902276 162.941203,185.538425 140.973597,195.730955 C108.022189,211.01975 75.0699321,198.578348 29.8369684,197.513845 C21.2091508,197.3108 11.4085479,199.842053 0.43515981,205.107603 Z" id="Path-13" fill="url(#linearGradient-9)"></path>
                                <path d="M0.888809787,196.392453 C2.86070138,196.392453 96.3860455,103.749069 214.39285,68.598196 C293.064053,45.1642806 369.401995,40.7027169 443.406676,55.2135051" id="Path-23" stroke="#FFFFFF" stroke-width="3.88217673" opacity="0.628138951" stroke-linecap="round" stroke-linejoin="round"></path>
                            </g>
                        </g>
                    </g>
                </g>
            </g>
        </g>
    </g>
</svg>