<?xml version="1.0" encoding="UTF-8"?>
<svg width="1600px" height="900px" viewBox="0 0 1600 900" version="1.1" xmlns="http://www.w3.org/2000/svg" xmlns:xlink="http://www.w3.org/1999/xlink">
    <title>hero-aeiou</title>
    <defs>
        <rect id="path-1" x="0" y="0" width="1600" height="900"></rect>
        <linearGradient x1="50%" y1="11.0547981%" x2="50%" y2="135.058874%" id="linearGradient-3">
            <stop stop-color="#FABFBF" offset="0%"></stop>
            <stop stop-color="#EC8B8B" offset="100%"></stop>
        </linearGradient>
        <linearGradient x1="50%" y1="0%" x2="50%" y2="100%" id="linearGradient-4">
            <stop stop-color="#F7B5B5" offset="0%"></stop>
            <stop stop-color="#F9D9D9" offset="100%"></stop>
        </linearGradient>
        <linearGradient x1="50%" y1="0%" x2="50%" y2="135.058874%" id="linearGradient-5">
            <stop stop-color="#FABFBF" offset="0%"></stop>
            <stop stop-color="#EC8B8B" offset="100%"></stop>
        </linearGradient>
        <linearGradient x1="69.8783661%" y1="6.06166293%" x2="30.9575046%" y2="96.7456339%" id="linearGradient-6">
            <stop stop-color="#FFC4C4" offset="0%"></stop>
            <stop stop-color="#EAA1A1" offset="100%"></stop>
        </linearGradient>
        <linearGradient x1="69.8783661%" y1="6.06166293%" x2="30.9575046%" y2="96.7456339%" id="linearGradient-7">
            <stop stop-color="#FFC4C4" offset="0%"></stop>
            <stop stop-color="#EAA1A1" offset="100%"></stop>
        </linearGradient>
        <linearGradient x1="50%" y1="0.659839527%" x2="50%" y2="100%" id="linearGradient-8">
            <stop stop-color="#FFA300" offset="0%"></stop>
            <stop stop-color="#FF6100" offset="100%"></stop>
        </linearGradient>
        <linearGradient x1="50%" y1="0.659839527%" x2="50%" y2="100%" id="linearGradient-9">
            <stop stop-color="#FFA300" offset="0%"></stop>
            <stop stop-color="#FF6100" offset="100%"></stop>
        </linearGradient>
    </defs>
    <g id="Page-1" stroke="none" stroke-width="1" fill="none" fill-rule="evenodd">
        <g id="Work---AEIOU">
            <g id="hero-aeiou">
                <mask id="mask-2" fill="white">
                    <use xlink:href="#path-1"></use>
                </mask>
                <use id="Mask" fill="#302060" xlink:href="#path-1"></use>
                <g id="Group-12" mask="url(#mask-2)">
                    <g transform="translate(-125.000000, 62.000000)">
                        <g id="Group-3" transform="translate(649.000000, 116.000000)">
                            <ellipse id="Oval" fill="#1C0E46" cx="275.678821" cy="607.746492" rx="275.678821" ry="31.3271388"></ellipse>
                            <g id="Group" transform="translate(2.506171, 0.000000)">
                                <path d="M258.178585,174.429511 C256.955029,194.164747 252.385861,208.658647 244.471083,217.911212 C236.556305,227.163778 224.04082,233.109268 206.924629,235.747684 C228.215464,278.771324 250.185754,300.156369 272.8355,299.902817 C295.485246,299.649265 317.876959,279.210824 340.01064,238.587493 C324.680405,235.481885 311.934437,228.589791 301.772736,217.911212 C291.611035,207.232633 286.93237,192.738733 287.736742,174.429511 L258.178585,174.429511 Z" id="Path-3" fill="url(#linearGradient-3)"></path>
                                <circle id="Oval" fill="#120C20" cx="267.068821" cy="32.0789906" r="32.0789906"></circle>
                                <path d="M200.909819,473.331997 L273.087547,456.587397 L273.087547,537.43719 L126.875639,535.318156 C148.356531,523.076628 163.459276,513.303469 172.183873,505.998677 C180.90847,498.693886 190.483785,487.804992 200.909819,473.331997 Z" id="Rectangle" fill="#6C2A88"></path>
                                <path d="M345.867211,473.165111 L419.299456,459.414457 L419.230715,537.43719 L271.833032,535.151269 C293.313924,522.909742 308.416668,513.136583 317.141266,505.831791 C325.865863,498.526999 335.441178,487.638106 345.867211,473.165111 Z" id="Rectangle-Copy-3" fill="#6C2A88" transform="translate(345.566244, 498.425824) scale(-1, 1) translate(-345.566244, -498.425824) "></path>
                                <path d="M114.697531,530.143415 C153.793717,537.047463 228.890878,533.312127 234.727099,530.143415 C241.652794,526.383186 240.213157,517.410011 254.765082,512.342395 C270.012533,507.032566 285.583954,522.923941 297.979866,523.702353 C310.375777,524.480765 314.148168,516.721156 324.495195,516.721156 C334.842222,516.721156 335.921679,522.257847 343.845656,522.495068 C351.769632,522.732289 359.00174,518.94295 361.457414,523.702353 C363.913088,528.461757 359.829386,525.005076 348.193044,530.143415 C342.484072,532.664366 310.47599,539.133269 279.449609,550.642039 C268.305251,554.775871 233.524672,570.994458 193.958154,585.120004 C169.505201,593.849894 144.884888,601.455979 120.097215,607.938261" id="Path-5-Copy" fill="#EDA6A6" transform="translate(238.419999, 559.598587) scale(-1, 1) translate(-238.419999, -559.598587) "></path>
                                <path d="M271.082611,174.260692 C283.55881,174.260692 293.814003,165.874169 305.166538,157.703561 C321.740033,145.775341 334.62452,130.431995 334.62452,110.27153 C334.62452,73.7307595 307.623381,44.1086121 271.082611,44.1086121 C234.54184,44.1086121 204.919692,73.7307595 204.919692,110.27153 C204.919692,146.812301 234.54184,174.260692 271.082611,174.260692 Z" id="Oval" fill="#120C20"></path>
                                <path d="M229.913115,130.071222 C229.913115,157.167038 251.384495,190.23 273.505353,190.23 C295.626212,190.23 315.619829,153.200044 315.619829,130.071222 C306.653845,123.706501 280.232841,116.312803 273.837969,93.6642977 C273.837969,93.6642977 263.025161,125.062957 229.913115,130.071222 Z" id="Path" fill="url(#linearGradient-4)"></path>
                                <path d="M316.602479,119.196124 C312.299772,122.568026 309.709136,126.666294 308.830571,131.490928 C307.600295,138.246979 311.409587,145.719865 310.484207,156.507645 C310.08065,161.212173 308.308094,170.34366 305.166538,183.902107 C314.985865,172.75542 322.500458,161.088538 327.710317,148.901462 C332.920176,136.714385 335.22491,123.138329 334.62452,108.173294" id="Path-2" fill="#120C20"></path>
                                <path d="M273.837969,372.918266 L273.932819,373.316266 L334.576069,383.993548 C328.685068,402.739665 325.69206,417.453208 325.597044,428.134177 L325.594708,428.656219 C325.594708,439.377902 332.251886,454.269829 345.566244,473.331997 C315.365675,467.123157 291.20611,466.404408 273.087547,471.175751 L273.087547,471.175751 C254.968985,466.404408 230.909742,467.123157 200.909819,473.331997 C212.63184,455.059673 218.492851,440.562669 218.492851,429.840985 C218.492851,419.119302 215.973402,403.836823 210.934503,383.993548 L271.579819,373.315266 L271.672603,372.918266 L272.754819,373.109266 L273.837969,372.918266 Z" id="Combined-Shape" fill="url(#linearGradient-5)"></path>
                                <path d="M421.452879,621.530433 C466.852018,621.530433 527.930921,605.586557 527.930921,605.586557 C508.01954,571.685168 527.170747,529.498205 527.170747,528.337384 C516.44267,521.646415 447.19603,503.239165 421.452879,503.239165 C376.05374,503.239165 339.250466,531.963672 339.250466,567.397146 C339.250466,602.830621 376.05374,621.530433 421.452879,621.530433 Z" id="Oval-Copy" fill="#8440A0" transform="translate(433.590693, 562.384799) scale(-1, 1) translate(-433.590693, -562.384799) "></path>
                                <path d="M339.250466,527.538904 C345.418843,542.332646 348.503032,555.618727 348.503032,567.397146 C348.503032,579.175565 345.418843,591.905369 339.250466,605.586557" id="Path-11" stroke="#101011" stroke-width="5.37036665" stroke-linecap="round"></path>
                                <path d="M183.802241,529.325391 C222.898426,536.229439 297.995587,532.494102 303.831808,529.325391 C310.757504,525.565162 309.317866,516.591986 323.869792,511.52437 C339.117242,506.214542 354.688664,522.105917 367.084575,522.884329 C379.480486,523.66274 383.252877,515.903131 393.599904,515.903131 C403.946932,515.903131 405.026388,521.439823 412.950365,521.677044 C420.874341,521.914264 428.106449,518.124925 430.562123,522.884329 C433.017797,527.643732 428.934096,524.187051 417.297753,529.325391 C411.588781,531.846341 379.580699,538.315245 348.554318,549.824014 C337.40996,553.957846 302.629381,570.176434 263.062863,584.30198 C249.753319,589.053588 230.132201,595.761163 204.199508,604.424706 C189.724751,609.260404 163.950128,610.431589 126.875639,607.938261" id="Path-5" fill="#FABFBF"></path>
                                <path d="M104.672847,621.530433 C150.071986,621.530433 211.150889,605.586557 211.150889,605.586557 C191.239508,571.685168 206.289177,530.22283 206.289177,529.06201 C195.5611,522.371041 130.415998,503.239165 104.672847,503.239165 C59.2737076,503.239165 22.4704335,531.963672 22.4704335,567.397146 C22.4704335,602.830621 59.2737076,621.530433 104.672847,621.530433 Z" id="Oval" fill="#8440A0"></path>
                                <path d="M212.597956,234.645353 C202.953602,237.381782 157.328121,234.764861 142.12647,279.849305 C126.92482,324.933748 141.95988,409.280271 136.336687,423.125132 C132.645641,432.212853 117.11315,440.76154 101.803755,456.587397 C86.4943603,472.413253 69.0183896,493.06313 62.8867837,498.425824 C58.7990464,502.000953 51.2179747,503.854983 40.1435688,503.987915 C35.8033323,503.575696 31.2724581,503.575696 26.5509462,503.987915 C19.4686783,504.606243 3.21254335,511.676989 6.90888082,517.149025 C10.6052183,522.621062 26.8015482,506.911242 28.9059706,512.638893 C29.7290635,514.879122 30.7010424,519.537995 29.4145806,521.174709 C28.1281189,522.811423 26.7553061,523.607605 22.4704335,524.239752 C18.1855609,524.871898 13.0823932,518.378919 10.4014976,518.378919 C7.72060204,518.378919 9.35660669,523.995052 14.1248944,526.295122 C17.0769229,527.719087 20.0366384,528.92117 18.886435,529.751063 C3.24265271,541.038351 -1.00525414,543.700656 0.189449466,545.362315 C0.721179008,546.101874 2.34920694,546.249314 5.07353327,545.804634 C4.78617076,546.871418 5.28451219,547.543797 6.56855755,547.821772 C7.85260291,548.099746 9.34755131,547.862488 11.0534027,547.109997 C10.9945504,548.572425 12.1825248,549.099808 14.617326,548.692147 C18.2695278,548.080654 48.9936641,525.418769 69.0183258,514.145031 C103.18094,494.911731 154.102832,462.693405 161.884607,448.67869 C172.478239,429.599915 179.821983,391.760751 183.915837,335.161196 C193.677778,307.912318 198.789904,289.475021 199.252214,279.849305 C200.576981,252.266439 230.994699,233.294977 212.597956,234.645353 Z" id="Path-4" fill="url(#linearGradient-6)"></path>
                                <path d="M540.90637,235.647818 C531.262016,238.384247 485.636535,235.767326 470.434885,280.851769 C455.233234,325.936213 470.268294,410.282736 464.645101,424.127596 C460.954056,433.215318 445.421564,441.764005 430.11217,457.589861 C414.802775,473.415718 397.326804,494.065595 391.195198,499.428289 C387.107461,503.003418 379.526389,504.857448 368.451983,504.99038 C364.111747,504.578161 359.580872,504.578161 354.859361,504.99038 C347.777093,505.608708 331.520958,512.679454 335.217295,518.15149 C338.913633,523.623527 355.109963,507.913707 357.214385,513.641358 C358.037478,515.881587 359.009457,520.54046 357.722995,522.177174 C356.436533,523.813888 355.06372,524.61007 350.778848,525.242216 C346.493975,525.874362 341.390808,519.381383 338.709912,519.381383 C336.029016,519.381383 337.665021,524.997517 342.433309,527.297587 C345.385337,528.721551 348.345053,529.923634 347.194849,530.753528 C331.551067,542.040816 327.30316,544.703121 328.497864,546.36478 C329.029593,547.104339 330.657621,547.251779 333.381948,546.807099 C333.094585,547.873883 333.592927,548.546262 334.876972,548.824237 C336.161017,549.102211 337.655966,548.864953 339.361817,548.112462 C339.302965,549.57489 340.490939,550.102273 342.92574,549.694612 C346.577942,549.083119 377.302078,526.421233 397.32674,515.147496 C431.489355,495.914196 482.411247,463.69587 490.193022,449.681155 C500.786654,430.60238 508.130397,392.763215 512.224252,336.163661 C521.986193,308.914783 527.098318,290.477486 527.560628,280.851769 C528.885395,253.268904 559.303114,234.297442 540.90637,235.647818 Z" id="Path-4-Copy" fill="url(#linearGradient-7)" transform="translate(437.554840, 392.703997) scale(-1, 1) translate(-437.554840, -392.703997) "></path>
                                <path d="M220.927808,233.740379 L220.934002,233.774351 L220.934002,233.774351 C227.83861,273.447508 245.139358,293.519335 272.836248,293.989833 C300.57466,293.52588 318.565521,273.74461 326.809362,234.646131 C327.046116,233.523266 328.123608,232.784765 329.256267,232.969054 L329.256267,232.969054 L347.353281,235.913431 C348.375513,236.079747 349.133537,236.951765 349.155959,237.987196 C349.658787,261.212046 350.458661,277.569543 351.555581,287.059686 C353.882723,307.193248 363.027108,323.191203 361.797858,335.161196 C359.677359,355.809839 350.198333,373.969471 333.360778,389.640093 C324.418035,385.207194 315.304974,382.132906 306.021594,380.417229 C296.738213,378.701551 285.449051,377.843713 272.154107,377.843713 L272.835241,377.844136 L272.413624,377.845699 C259.596321,377.892032 248.674915,378.749209 239.649407,380.417229 C230.366027,382.132906 221.252965,385.207194 212.310223,389.640093 C195.501131,373.969471 186.036335,355.809839 183.915837,335.161196 C182.686587,323.191203 191.788277,307.193248 194.115419,287.059686 C195.213105,277.562916 196.01333,261.189199 196.516094,237.938535 C196.538012,236.924965 197.265575,236.064695 198.261445,235.874834 L218.415393,232.032528 C219.580785,231.81037 220.70563,232.574992 220.927808,233.740379 Z" id="Combined-Shape" fill="#8440A0"></path>
                                <path d="M200.909819,473.331997 C217.325261,469.725619 228.852274,467.800121 235.490857,467.555504 C253.110689,466.906251 265.802229,470.946287 272.856607,470.946287 C280.261182,470.946287 293.300827,466.84019 312.574614,467.555504 C318.885212,467.789711 329.882422,469.715209 345.566244,473.331997" id="Path-9" stroke="#101011" stroke-width="5.37036665" stroke-linecap="round"></path>
                                <path d="M206.289177,529.06201 C202.702938,541.875882 200.909819,554.654261 200.909819,567.397146 C200.909819,580.140032 204.323509,592.869835 211.150889,605.586557" id="Path-10" stroke="#101011" stroke-width="5.37036665" stroke-linecap="round"></path>
                                <path d="M212.310223,389.640093 C232.471249,381.941747 252.646341,378.092574 272.8355,378.092574 C293.024659,378.092574 313.199752,381.941747 333.360778,389.640093" id="Path-12" stroke="#101011" stroke-width="5.37036665" stroke-linecap="round"></path>
                            </g>
                        </g>
                        <g id="Group-9">
                            <g id="Group-2" transform="translate(400.578405, 470.130009) rotate(10.000000) translate(-400.578405, -470.130009) translate(67.578405, 52.130009)">
                                <g id="Group-4" transform="translate(332.576206, 418.298018) rotate(-60.000000) translate(-332.576206, -418.298018) translate(-57.923794, 259.798018)">
                                    <path d="M0.670928005,316.234248 C23.9497342,173.542235 54.8819517,95.0535824 93.4675805,80.7682914 C132.053209,66.4830004 147.964552,82.3427764 141.201607,128.347619 C193.229708,49.9449938 239.048463,7.78825346 278.657872,1.87739833 C318.267282,-4.0334568 330.970177,22.2635075 316.76656,80.7682914 C504.609758,-10.0996651 641.473688,-23.5716737 727.358351,40.3522655 C785.102696,83.3313714 801.025629,148.401185 748.577438,169.003343 C693.686467,190.565049 592.125466,168.917175 518.286325,163.611361 C466.434875,159.885503 428.630574,174.18582 428.630574,174.18582 C428.630574,174.18582 492.541476,223.074815 442.558376,244.404154 C392.575276,265.733494 316.51429,231.177205 263.096987,219.984291 C227.485451,212.522349 204.519067,217.220738 194.197834,234.079459 C243.503957,263.496584 251.222226,286.062551 217.352642,301.777362 C166.548267,325.349577 115.742582,306.167464 46.0025427,304.526216 C32.700201,304.213161 17.5896628,308.115839 0.670928005,316.234248 Z" id="Path-13" fill="#402C80"></path>
                                    <path d="M1.37036409,302.797257 C4.41062025,302.797257 148.607697,159.959984 330.550212,105.76448 C451.845221,69.6341436 569.542816,62.755319 683.642997,85.1280059" id="Path-23" stroke="#FFFFFF" stroke-width="5.37294635" opacity="0.628138951" stroke-linecap="round" stroke-linejoin="round"></path>
                                </g>
                            </g>
                            <g id="Group-4-Copy" transform="translate(371.574554, 510.148393) rotate(-68.000000) translate(-371.574554, -510.148393) translate(59.074554, 383.648393)">
                                <path d="M0.809045615,252.471482 C19.4235016,138.439464 44.1578629,75.715425 75.0121293,64.2993651 C105.866396,52.8833053 118.589599,65.5576115 113.181739,102.322284 C154.785023,39.6669927 191.423122,5.97752364 223.096035,1.25387638 C254.768948,-3.46977088 264.926578,17.545392 253.568924,64.2993651 C403.774176,-8.31756829 513.214823,-19.0836952 581.890865,32.0009843 C628.065036,66.3476451 640.797507,118.348048 598.858306,134.812218 C554.965782,152.043209 473.754452,134.743358 414.710383,130.503228 C373.248355,127.525716 343.018862,138.953784 343.018862,138.953784 C343.018862,138.953784 394.124003,178.02332 354.155965,195.068616 C314.187926,212.113912 253.367201,184.498328 210.653068,175.553534 C182.176979,169.590339 163.812345,173.345047 155.559167,186.817658 C194.985873,210.32629 201.157641,228.359835 174.07447,240.918292 C133.449714,259.755978 92.8239116,244.426632 37.0576118,243.115033 C26.4206465,242.864856 14.3377911,245.983672 0.809045615,252.471482 Z" id="Path-13" fill="url(#linearGradient-8)"></path>
                                <path d="M1.41107351,242.875978 C3.8385114,242.875978 118.970076,128.493475 264.238806,85.094317 C361.084626,56.1615449 455.058156,50.6530585 546.159394,68.5688578" id="Path-23" stroke="#FFFFFF" stroke-width="4.46661197" opacity="0.628138951" stroke-linecap="round" stroke-linejoin="round"></path>
                            </g>
                        </g>
                        <g id="Group-11" transform="translate(1076.000000, 18.000000)">
                            <g id="Group-2" transform="translate(386.069459, 452.393923) scale(-1, 1) rotate(10.000000) translate(-386.069459, -452.393923) translate(65.069459, 50.393923)">
                                <g id="Group-4" transform="translate(321.026466, 401.996326) rotate(-60.000000) translate(-321.026466, -401.996326) translate(-54.973534, 249.496326)">
                                    <path d="M0.64636444,304.656493 C23.0729026,167.188623 52.8726506,91.5735445 90.0456083,77.811257 C127.218566,64.0489694 142.547373,79.328098 136.032029,123.648643 C186.155312,48.1164413 230.296582,7.50311516 268.455838,1.80866429 C306.615094,-3.88578659 318.85292,21.448411 305.169315,77.811257 C486.135324,-9.72990294 617.988485,-22.7086834 700.728796,38.8749155 C756.359044,80.2804992 771.699016,142.96802 721.171024,162.815906 C668.289684,183.588209 570.446966,162.732893 499.311174,157.621332 C449.358075,154.031883 412.937839,167.808646 412.937839,167.808646 C412.937839,167.808646 474.508878,214.90775 426.355726,235.456194 C378.202573,256.004638 304.926281,222.713501 253.464657,211.930374 C219.156907,204.741623 197.031353,209.267998 187.087994,225.5095 C234.588954,253.849624 242.024647,275.589421 209.395073,290.728892 C160.450713,313.438097 111.505092,294.958266 44.3183285,293.377107 C31.5030032,293.075514 16.9456819,296.835309 0.64636444,304.656493 Z" id="Path-13" fill="#402C80"></path>
                                    <path d="M1.32019324,291.711447 C4.24914158,291.711447 143.166972,154.103636 318.448329,101.892302 C435.302567,67.0847451 548.691097,60.4577634 658.613919,82.0113565" id="Path-23" stroke="#FFFFFF" stroke-width="5.17623565" opacity="0.628138951" stroke-linecap="round" stroke-linejoin="round"></path>
                                </g>
                            </g>
                            <g id="Group-2" transform="translate(321.356670, 555.236378) scale(-1, 1) translate(-321.356670, -555.236378) translate(81.356670, 254.236378)">
                                <g id="Group-4" transform="translate(240.372950, 300.867810) rotate(-60.000000) translate(-240.372950, -300.867810) translate(-41.127050, 186.867810)">
                                    <path d="M0.483510899,227.897337 C17.2596127,125.064927 39.551221,68.5013038 67.3583359,58.2064676 C95.1654507,47.9116314 106.632117,59.3411358 101.758334,92.4949807 C139.252899,35.9933535 172.272638,5.61268185 200.81755,1.35296567 C229.362463,-2.90675051 238.51693,16.0444168 228.280953,58.2064676 C363.65201,-7.27842349 462.284355,-16.9871597 524.177986,29.080259 C565.792019,60.0535766 577.267038,106.946781 539.469731,121.79393 C499.91201,137.332586 426.72107,121.731832 373.508164,117.908145 C336.140904,115.223068 308.89686,125.528733 308.89686,125.528733 C308.89686,125.528733 354.954884,160.761071 318.934068,176.13227 C282.913253,191.503469 228.099152,166.600138 189.603444,158.533854 C163.939639,153.156331 147.388688,156.542272 139.950589,168.691676 C175.483534,189.891418 181.045781,206.153805 156.63733,217.478839 C120.024655,234.466389 83.4110356,220.642609 33.1521872,219.459828 C23.5657231,219.234222 12.6761644,222.046725 0.483510899,227.897337 Z" id="Path-13" fill="url(#linearGradient-9)"></path>
                                    <path d="M0.98756643,218.213836 C3.17855708,218.213836 107.095606,115.276744 238.214278,76.2202178 C325.626725,50.182534 410.446661,45.225241 492.674084,61.348339" id="Path-23" stroke="#FFFFFF" stroke-width="4.31352971" opacity="0.628138951" stroke-linecap="round" stroke-linejoin="round"></path>
                                </g>
                            </g>
                        </g>
                    </g>
                </g>
            </g>
        </g>
    </g>
</svg>