<?xml version="1.0" encoding="UTF-8"?>
<svg width="800px" height="800px" viewBox="0 0 800 800" version="1.1" xmlns="http://www.w3.org/2000/svg" xmlns:xlink="http://www.w3.org/1999/xlink">
    <title>illustration-aeiou</title>
    <defs>
        <linearGradient x1="50%" y1="2.29888091%" x2="50%" y2="100%" id="linearGradient-1">
            <stop stop-color="#FFD960" offset="0%"></stop>
            <stop stop-color="#FFFFFF" offset="100%"></stop>
        </linearGradient>
        <linearGradient x1="1.2103659%" y1="50.0790764%" x2="68.7531382%" y2="54.4918235%" id="linearGradient-2">
            <stop stop-color="#F7A69A" offset="0%"></stop>
            <stop stop-color="#FFC0AC" offset="100%"></stop>
        </linearGradient>
        <linearGradient x1="87.5423239%" y1="66.3475969%" x2="6.63906696%" y2="45.0089131%" id="linearGradient-3">
            <stop stop-color="#1BBEDA" offset="0%"></stop>
            <stop stop-color="#0393AC" offset="100%"></stop>
        </linearGradient>
        <linearGradient x1="83.2568583%" y1="29.3174816%" x2="43.845138%" y2="67.2613052%" id="linearGradient-4">
            <stop stop-color="#F7A398" offset="0%"></stop>
            <stop stop-color="#FFC0AC" offset="100%"></stop>
        </linearGradient>
        <linearGradient x1="50%" y1="0%" x2="50%" y2="100%" id="linearGradient-5">
            <stop stop-color="#FFCFC0" offset="0%"></stop>
            <stop stop-color="#F09E88" offset="100%"></stop>
        </linearGradient>
        <linearGradient x1="75.6805573%" y1="11.4708254%" x2="15.2859728%" y2="97.4871272%" id="linearGradient-6">
            <stop stop-color="#0393AC" offset="0%"></stop>
            <stop stop-color="#1BBFDC" offset="100%"></stop>
        </linearGradient>
    </defs>
    <g id="illustration-aeiou" stroke="none" stroke-width="1" fill="none" fill-rule="evenodd">
        <g id="yoga-illustration" transform="translate(81.000000, 82.000000)">
            <g id="Group-4" transform="translate(0.034285, 0.000000)">
                <path d="M525.817648,601.373533 C583.394665,546.815393 619.274009,469.827977 619.274009,384.509692 C619.274009,219.07144 484.36774,84.9572386 317.952423,84.9572386 C151.537106,84.9572386 16.630837,219.07144 16.630837,384.509692 C16.630837,468.82959 56.3549855,551.555895 112.754456,605.992481 C112.754456,605.992481 525.817648,601.373533 525.817648,601.373533 Z" id="Oval" fill="url(#linearGradient-1)" transform="translate(317.952423, 345.474860) rotate(-360.000000) translate(-317.952423, -345.474860) "></path>
                <ellipse id="Oval" fill="#F0F0F0" cx="359.293239" cy="620.307187" rx="358.552002" ry="15.1695078"></ellipse>
                <g id="Group" transform="translate(60.298793, 0.174033)">
                    <path d="M251.558209,65.4085552 C244.476653,97.4667084 239.341571,129.126215 236.152961,160.387074 C235.930688,168.906216 242.461381,178.035019 242.892924,186.577985 C244.581694,220.009463 251.8149,243.769176 249.545735,259.738749 C248.252457,268.84038 236.085972,279.840273 231.823876,290.473376 C226.895279,302.769271 230.500976,314.734539 240.935875,325.280735 C260.394548,344.946949 286.149483,310.2413 291.946214,290.473376 C297.742945,270.705453 288.053074,253.817155 273.36104,217.045998 C268.039779,203.727969 270.150801,182.883627 269.93783,154.748308 C269.818471,138.97995 269.818471,110.130745 269.93783,68.2006935 C283.008891,60.3801859 290.118588,54.1254624 291.266922,49.4365229 C292.989423,42.4031137 284.100068,48.3004974 283.179497,46.1088645 C282.258926,43.9172317 283.234798,36.8930168 284.108494,32.394225 C286.829708,18.382289 289.249573,14.7788286 289.600148,8.30710389 C289.833865,3.99262074 287.54234,3.28575192 282.725575,6.18649743 C282.757739,2.06216581 281.837511,1.46980685e-13 279.96489,1.46980685e-13 C278.09227,1.46980685e-13 275.890986,2.06216581 273.36104,6.18649743 C273.11252,3.5900253 271.97145,2.61100207 269.93783,3.24942774 C266.8874,4.20706624 265.873662,10.8084463 264.630451,11.4087991 C264.075952,11.6765696 261.802242,8.95212188 259.179722,11.4087991 C256.247726,14.155382 252.882558,22.4809943 251.053378,30.5979664 C248.743186,40.8494239 248.911463,52.4529535 251.558209,65.4085552 Z" id="Path-6" fill="#EC9C93"></path>
                    <path d="M297.000241,265.680414 C300.437627,271.356709 301.995052,279.006061 301.672518,288.628469 C301.349984,298.250877 298.377264,311.438314 292.754357,328.19078 L259.519781,288.579498 L271.662797,255.906392 L297.000241,265.680414 Z" id="Path-16" fill="#EC9C93"></path>
                    <ellipse id="Oval" fill="#40290F" cx="300.810321" cy="239.078375" rx="28.9419676" ry="31.8"></ellipse>
                    <ellipse id="Oval" fill="#40290F" transform="translate(341.109955, 222.810165) rotate(94.000000) translate(-341.109955, -222.810165) " cx="341.109955" cy="222.810165" rx="17.9584718" ry="17.6369211"></ellipse>
                    <path d="M294.723756,248.442981 C315.435656,248.417911 328.248977,260.684436 336.411892,222.682649 C344.574807,184.680863 315.52646,173.677643 294.81456,173.70267 C274.102659,173.727783 257.90075,190.133732 257.266944,211.11824 C256.633139,232.102748 274.011855,248.468051 294.723756,248.442981 Z" id="Oval" fill="#40290F" transform="translate(297.536077, 212.007060) rotate(58.000000) translate(-297.536077, -212.007060) "></path>
                    <path d="M249.764546,184.437689 C249.810952,182.45103 248.561109,187.665946 246.015017,200.082436 L239.577991,210.410815 C238.218402,212.592312 238.88469,215.462929 241.066186,216.822518 C241.452327,217.063175 241.871668,217.24591 242.31083,217.364892 L244.515854,217.962302 L244.515854,217.962302 C246.01607,218.955716 246.766248,220.694086 246.766386,223.177413 C246.766594,226.902402 245.436999,231.303981 246.016888,233.607341 C248.267629,242.547442 270.019713,238.078669 277.52031,234.354098 C282.520708,231.871051 286.520902,227.649619 289.520891,221.689803 C289.473046,222.698137 287.222777,222.201347 282.770084,220.199431 C279.492198,218.725705 278.03082,214.105801 274.518159,201.574023 C271.005497,189.042244 254.335511,197.102909 249.764546,184.437689 Z" id="Path-17" fill="#EC9C93" transform="translate(262.892867, 211.427078) rotate(40.000000) translate(-262.892867, -211.427078) "></path>
                    <ellipse id="Oval" fill="#EC9C93" transform="translate(274.881694, 233.783882) rotate(40.000000) translate(-274.881694, -233.783882) " cx="274.881694" cy="233.783882" rx="8.10413051" ry="7.71837147"></ellipse>
                    <path d="M498.727524,585.769106 C511.419388,588.92311 518.390263,590.348335 519.640148,590.044782 C521.514977,589.589454 525.414822,576.092467 534.792409,575.049441 C544.169996,574.006415 558.75604,592.887338 567.199026,595.117504 C575.642013,597.347669 616.101794,614.570488 607.945687,619.296553 C605.781487,620.550601 574.630854,617.774819 567.199026,617.774819 C555.200121,617.774819 547.486778,618.887578 536.220607,617.774819 C529.218458,617.083218 516.720764,614.969896 498.727524,611.434853 L498.727524,585.769106 Z" id="Path-20" fill="url(#linearGradient-2)"></path>
                    <path d="M259.08116,518.398543 C290.102651,563.308951 343.04046,605.969724 358.709057,612.072176 C365.081841,614.554187 384.396048,612.072176 418.425054,612.072176 C432.478451,612.072176 460.153782,612.072176 501.451046,612.072176 L501.451046,584.63736 C468.687508,577.965411 445.228809,574.23809 431.074951,573.455397 C404.450285,571.983083 399.248487,581.492049 384.295033,574.486124 C378.477265,571.76041 323.127855,507.098038 323.127855,494.880005 C323.127855,482.661972 321.003938,461.32072 315.857921,463.794781 C310.711904,466.268841 259.08116,518.398543 259.08116,518.398543 Z" id="Path-15" fill="url(#linearGradient-3)"></path>
                    <path d="M69.8138079,559.925188 C68.2387813,570.467659 65.0943166,578.773887 60.3804138,584.843872 C56.000741,590.483478 32.1994637,601.831345 17.5922457,610.706083 C10.1201979,615.245789 -2.59877429,612.983953 0.468394012,619.031059 C3.53556232,625.078166 42.1283711,620.339096 58.050931,620.79277 C72.943312,621.217091 91.6205599,626.664599 96.6808542,620.094714 C101.741149,613.524829 95.0656383,606.945706 94.2965085,592.800716 C93.7837553,583.370723 94.8174287,573.680106 97.3975288,563.728866 L69.8138079,559.925188 Z" id="Path-19" fill="url(#linearGradient-4)"></path>
                    <path d="M248.471066,65.4085552 C241.38951,97.4667084 236.254427,129.126215 233.065818,160.387074 C232.843545,168.906216 239.374238,178.035019 239.805781,186.577985 C241.494551,220.009463 248.727757,243.769176 246.458592,259.738749 C245.165314,268.84038 232.998828,279.840273 228.736733,290.473376 C223.808136,302.769271 227.413833,314.734539 237.848732,325.280735 C257.307405,344.946949 283.062339,310.2413 288.859071,290.473376 C294.655802,270.705453 284.96593,253.817155 270.273897,217.045998 C264.952636,203.727969 267.063657,182.883627 266.850687,154.748308 C266.731328,138.97995 266.731328,110.130745 266.850687,68.2006935 C279.921747,60.3801859 287.031445,54.1254624 288.179779,49.4365229 C289.90228,42.4031137 281.012925,48.3004974 280.092354,46.1088645 C279.171783,43.9172317 280.147655,36.8930168 281.021351,32.394225 C283.742564,18.382289 286.162429,14.7788286 286.513005,8.30710389 C286.746722,3.99262074 284.455197,3.28575192 279.638431,6.18649743 C279.670596,2.06216581 278.750367,1.46980685e-13 276.877747,1.46980685e-13 C275.005126,1.46980685e-13 272.803843,2.06216581 270.273897,6.18649743 C270.025377,3.5900253 268.884307,2.61100207 266.850687,3.24942774 C263.800257,4.20706624 262.786518,10.8084463 261.543308,11.4087991 C260.988809,11.6765696 258.715098,8.95212188 256.092579,11.4087991 C253.160582,14.155382 249.795415,22.4809943 247.966235,30.5979664 C245.656043,40.8494239 245.82432,52.4529535 248.471066,65.4085552 Z" id="Path-6" fill="url(#linearGradient-5)"></path>
                    <path d="M235.779619,278.374714 C226.691969,287.845516 219.775794,294.73997 215.031093,299.058076 C200.412011,312.362759 191.265733,320.558473 189.930416,327.673614 C187.945024,338.252642 191.726525,346.605265 201.274919,352.731484 C200.885952,363.808394 201.885801,375.966411 204.274467,389.205536 C205.477828,395.875139 208.554839,404.047957 210.908483,413.734583 C212.049829,418.431894 211.997135,426.296351 213.772024,436.15327 C215.031093,443.145567 220.658748,446.754438 218.238984,446.754438 C217.154292,446.754438 201.208499,437.840007 173.290203,429.267462 C138.927526,418.716115 90.6071034,408.753635 80.6006426,426.194191 C70.5941818,443.634746 69.9035222,478.935675 69.450741,532.181532 C69.3961523,538.601016 68.7446746,548.582405 67.4963078,562.1257 L97.1564566,566.705045 C105.660593,539.3294 111.225125,517.836251 113.850054,502.225599 C116.474982,486.614947 116.474982,475.01539 113.850054,467.426928 C118.654855,466.163644 128.239731,469.796969 142.604681,478.326905 C164.152105,491.121808 189.927771,515.810094 237.312772,522.654682 C280.099647,528.835088 310.863304,518.877684 320.689942,489.524292 C330.516579,460.1709 291.899089,434.162795 284.369638,419.729486 C280.800965,412.888648 278.383883,385.500996 290.562618,339.589158 C295.409438,321.31744 298.506631,285.077038 289.877702,270.907971 C291.914717,282.060475 276.410444,328.647732 248.369259,326.548078 C229.695254,325.149816 225.498707,309.092028 235.779619,278.374714 Z" id="Path-14" fill="url(#linearGradient-6)"></path>
                    <path d="M67.4963078,562.1257 C72.5024606,563.867735 77.0680792,565.066467 81.1931634,565.721898 C85.3182477,566.377329 90.6393454,566.705045 97.1564566,566.705045" id="Path-21" stroke="#204D54" stroke-width="3.6" stroke-linecap="round"></path>
                    <path d="M501.451046,584.63736 C502.039454,590.670849 502.333657,595.243318 502.333657,598.354768 C502.333657,601.466218 502.039454,606.038688 501.451046,612.072176" id="Path-22" stroke="#204D54" stroke-width="3.6" stroke-linecap="round"></path>
                </g>
            </g>
        </g>
    </g>
</svg>