<?xml version="1.0" encoding="UTF-8"?>
<svg width="160px" height="160px" viewBox="0 0 160 160" version="1.1" xmlns="http://www.w3.org/2000/svg" xmlns:xlink="http://www.w3.org/1999/xlink">
    <title>logo-aeiou</title>
    <g id="logo-aeiou" stroke="none" stroke-width="1" fill="none" fill-rule="evenodd">
        <g transform="translate(25.000000, 15.000000)" id="logo">
            <g transform="translate(0.666667, 0.000000)">
                <g id="Group" transform="translate(5.574722, 0.000000)">
                    <path d="M48.8339497,37.2347727 C52.9467817,37.2347727 56.2808617,40.5725205 56.2808617,44.6899732 C56.2808617,48.8076181 52.9467817,52.1453659 48.8339497,52.1453659 C44.7207337,52.1453659 41.3866537,48.8076181 41.3866537,44.6899732 C41.3866537,40.5725205 44.7207337,37.2347727 48.8339497,37.2347727" id="Fill-1" fill="#FECC00"></path>
                    <path d="M51.5717737,30.9793546 C57.8614057,21.4324154 60.9529897,21.4030071 66.6023977,14.5665345 C69.5157097,11.0405158 69.7214377,9.02537333 68.4525097,4.78538601 C67.8019177,2.90402257 68.7981097,0.850726203 70.6775017,0.199322375 C72.5567977,-0.451985348 74.6074537,0.545302573 75.2581417,2.42666601 C80.1254377,19.1159819 66.3819817,21.5798415 57.9495337,34.328539 C57.0257257,36.0916925 54.8492137,36.7710631 53.0878057,35.8462388 C51.3265897,34.9216067 50.6478697,32.742412 51.5717737,30.9793546" id="Fill-2" fill="#15B4CB"></path>
                    <path d="M63.3104617,46.1049361 C73.8847657,50.4320912 74.5125097,53.4628778 82.3067497,57.6862388 C86.3265577,59.8642803 88.3414057,59.6761055 92.2508137,57.6081049 C93.9684457,56.6044741 96.1734697,57.1847597 97.1757097,58.9042813 C98.1782377,60.6238029 97.5985897,62.8312527 95.8809577,63.8348836 C80.4691177,71.8491304 75.3911977,58.8288384 61.2640297,53.0177166 C59.3572777,52.452135 58.2695977,50.4460265 58.8345577,48.5371769 C59.3994217,46.6279428 61.4034217,45.5393546 63.3104617,46.1049361" id="Fill-3" fill="#E31E24"></path>
                    <path d="M57.7427497,54.9333897 C63.1679017,64.9978576 61.7310697,67.7382129 65.0740777,75.9553387 C66.7985257,80.1932117 68.4745897,81.3284112 72.8063017,82.215466 C74.7699817,82.5317496 76.1052457,84.3817826 75.7893097,86.3473345 C75.4730857,88.3131748 73.6253737,89.6499077 71.6616937,89.3336242 C54.6720937,85.7294715 59.0067817,72.4427748 51.7777897,58.9737657 C50.6631337,57.3247856 51.0952297,55.0835067 52.7424937,53.9676244 C54.3896617,52.8520305 56.6283817,53.2844096 57.7427497,54.9333897" id="Fill-4" fill="#834E98"></path>
                    <path d="M46.0957417,30.9793546 C39.8058217,21.4324154 36.7145257,21.4030071 31.0651177,14.5665345 C28.1515177,11.0405158 27.9457897,9.02537333 29.2150057,4.78538601 C29.8655977,2.90402257 28.8694057,0.850726203 26.9901097,0.199322375 C25.1108137,-0.451985348 23.0597737,0.545302573 22.4093737,2.42666601 C17.5421737,19.1159819 31.2856297,21.5798415 39.7179817,34.328539 C40.6415017,36.0916925 42.8183017,36.7710631 44.5795177,35.8462388 C46.3406377,34.9216067 47.0193577,32.742412 46.0957417,30.9793546" id="Fill-5" fill="#15B4CB"></path>
                    <path d="M34.3570537,46.1049361 C23.7828457,50.4320912 23.1550057,53.4628778 15.3604777,57.6862388 C11.3406697,59.8642803 9.32610969,59.6761055 5.41670169,57.6081049 C3.69906969,56.6044741 1.49404569,57.1847597 0.491517687,58.9042813 C-0.511010313,60.6238029 0.0689256873,62.8312527 1.78655769,63.8348836 C17.1983977,71.8491304 22.2760297,58.8288384 36.4034857,53.0177166 C38.3102377,52.452135 39.3979177,50.4460265 38.8327657,48.5371769 C38.2678057,46.6279428 36.2639017,45.5393546 34.3570537,46.1049361" id="Fill-6" fill="#E31E24"></path>
                    <path d="M39.9244777,54.9333897 C34.4994217,64.9978576 35.9364457,67.7382129 32.5931497,75.9553387 C30.8689897,80.1932117 29.1929257,81.3284112 24.8609257,82.215466 C22.8975337,82.5317496 21.5619817,84.3817826 21.8782057,86.3473345 C22.1941417,88.3131748 24.0421417,89.6499077 26.0058217,89.3336242 C42.9954217,85.7294715 38.6607337,72.4427748 45.8897257,58.9737657 C47.0040937,57.3247856 46.5722857,55.0835067 44.9251177,53.9676244 C43.2779497,52.8520305 41.0391337,53.2844096 39.9244777,54.9333897" id="Fill-7" fill="#834E98"></path>
                    <path d="M18.2627497,38.7094172 C21.5622697,38.7094172 24.2367337,41.3870156 24.2367337,44.6899732 C24.2367337,47.993123 21.5622697,50.6707215 18.2627497,50.6707215 C14.9634217,50.6707215 12.2887657,47.993123 12.2887657,44.6899732 C12.2887657,41.3870156 14.9634217,38.7094172 18.2627497,38.7094172" id="Fill-8" fill="#FF6100"></path>
                    <path d="M48.8336617,11.9569789 C52.1331817,11.9569789 54.8076457,14.6345773 54.8076457,17.9375349 C54.8076457,21.2406848 52.1331817,23.9182832 48.8336617,23.9182832 C45.5343337,23.9182832 42.8596777,21.2406848 42.8596777,17.9375349 C42.8596777,14.6345773 45.5343337,11.9569789 48.8336617,11.9569789" id="Fill-10" fill="#15B4CB"></path>
                    <path d="M94.8392617,32.1313725 C83.9251177,35.5091964 81.5181097,33.5670943 72.8177257,35.2580725 C68.3306857,36.130327 66.8935657,37.5564382 65.1848617,41.6390045 C64.4942377,43.5059521 62.4225577,44.4592236 60.5576617,43.7677438 C58.6924777,43.0766483 57.7405417,41.0026892 58.4309737,39.1354533 C65.2553257,23.1479006 77.4359977,29.9797601 92.0357737,25.4899943 C93.8677417,24.7149026 95.9803177,25.5736062 96.7544617,27.4075896 C97.5287017,29.2414768 96.6712297,31.3563769 94.8392617,32.1313725" id="Fill-12" fill="#FF6100"></path>
                    <path d="M2.82825369,32.1313725 C13.7422057,35.5091964 16.1494057,33.5670943 24.8497897,35.2580725 C29.3369257,36.130327 30.7739497,37.5564382 32.4826537,41.6390045 C33.1732777,43.5059521 35.2450537,44.4592236 37.1098537,43.7677438 C38.9750377,43.0766483 39.9269737,41.0026892 39.2362537,39.1354533 C32.4121897,23.1479006 20.2315177,29.9797601 5.63145369,25.4899943 C3.79948569,24.7149026 1.68700569,25.5736062 0.912765687,27.4075896 C0.138621687,29.2414768 0.996285687,31.3563769 2.82825369,32.1313725" id="Fill-13" fill="#FF6100"></path>
                </g>
                <path d="M84.979488,38.7094172 C88.278816,38.7094172 90.953472,41.3870156 90.953472,44.6899732 C90.953472,47.993123 88.278816,50.6707215 84.979488,50.6707215 C81.679968,50.6707215 79.005312,47.993123 79.005312,44.6899732 C79.005312,41.3870156 81.679968,38.7094172 84.979488,38.7094172" id="Fill-9" fill="#FF6100"></path>
                <path d="M20.046432,127.391446 C18.338592,127.391446 17.754048,126.13179 17.754048,124.016697 L17.754048,113.892836 C17.754048,108.08825 14.607744,106.198429 9.663744,106.198429 C5.169024,106.198429 1.798272,108.178108 1.798272,110.923077 C1.798272,113.262672 4.000512,113.307938 4.000512,113.307938 C4.000512,111.14806 5.25888,108.133131 9.663744,108.133131 C14.652672,108.133131 14.74272,111.868083 14.74272,113.892836 L14.74272,116.00764 L11.86608,116.00764 C5.303808,116.00764 1.25055521e-13,117.267297 1.25055521e-13,122.801923 C1.25055521e-13,127.346565 4.449792,128.876182 7.236384,128.876182 C12.135744,128.876182 12.585312,127.21144 12.585312,126.266338 C12.585312,125.591868 11.821152,125.006681 11.641344,125.006681 C11.641344,125.006681 10.382976,127.031627 7.37136,127.031627 C5.438784,127.031627 3.146304,125.771586 3.146304,122.8469 C3.146304,119.202095 6.292896,117.942438 11.821152,117.942438 L14.74272,117.942438 L14.74272,124.826579 C14.74272,126.086812 14.83248,128.561532 18.428352,128.561532 L20.720832,128.561532 L20.720832,127.391446 L20.046432,127.391446 Z M39.822912,118.707343 C42.520032,118.707343 43.643328,118.707343 43.643328,115.422453 C43.643328,109.97807 39.77808,106.198429 34.42944,106.198429 C27.193056,106.198429 23.50704,111.418117 23.50704,118.077275 C23.50704,123.116861 26.563584,129.101165 33.979872,129.101165 C39.86784,129.101165 42.429888,126.851525 42.429888,124.871845 C42.429888,124.331539 41.755584,123.431991 41.036352,123.16203 C40.092576,124.691743 38.384448,127.121485 33.979872,127.121485 C29.485152,127.121485 26.608512,122.576939 26.608512,118.077275 C26.608512,113.127836 29.035584,108.178108 34.294464,108.178108 C38.699328,108.178108 40.676832,111.688077 40.676832,115.467719 C40.676832,116.412725 40.227552,116.682686 39.283584,116.682686 L33.799968,116.682686 C31.912224,116.682686 29.844864,116.682686 29.844864,118.077275 C29.844864,118.347524 30.024768,119.247072 30.384288,119.60718 C31.822464,118.707343 32.81136,118.707343 39.822912,118.707343 Z M54.790464,99.9437797 C54.790464,98.7290048 53.891328,98.0539589 52.587552,98.0539589 C51.419328,98.0539589 50.430144,98.7290048 50.430144,99.9437797 C50.430144,101.068888 51.464256,101.74403 52.587552,101.74403 C53.80128,101.74403 54.790464,101.113865 54.790464,99.9437797 Z M56.632992,127.436423 C55.599168,127.436423 54.20592,126.626541 54.20592,124.961704 L54.20592,110.878099 C54.20592,108.673148 53.53152,107.368226 50.96976,107.368226 L47.868384,107.368226 L47.868384,108.538312 L48.94704,108.538312 C50.520192,108.538312 51.239424,109.392883 51.239424,110.878099 L51.239424,124.961704 C51.239424,126.761666 49.846176,127.436423 48.812352,127.436423 L47.733408,127.436423 L47.733408,128.606221 L57.711648,128.606221 L57.711648,127.436423 L56.632992,127.436423 Z M63.419808,117.942438 C63.419808,113.577898 65.262624,108.313233 71.420544,108.313233 C77.533056,108.313233 79.151136,113.307938 79.151136,117.942438 C79.151136,122.576939 77.038656,127.25661 71.420544,127.25661 C65.532288,127.25661 63.419808,122.576939 63.419808,117.942438 Z M60.363552,117.942438 C60.363552,123.296963 63.464736,129.326244 71.420544,129.326244 C79.4208,129.326244 82.162464,123.296963 82.162464,117.942438 C82.162464,112.497671 79.735392,106.243406 71.420544,106.243406 C62.790624,106.243406 60.363552,112.497671 60.363552,117.942438 Z M108.006528,127.391446 C105.894336,127.391446 105.309792,126.086812 105.309792,124.826579 L105.309792,109.887827 C105.309792,109.168092 104.995488,107.323249 102.657888,107.323249 L99.601632,107.323249 L99.601632,108.493335 C102.343584,108.493335 102.343584,110.067929 102.343584,111.462998 L102.343584,117.98732 C102.343584,122.712064 99.242208,127.25661 95.152128,127.25661 C91.915776,127.25661 90.297984,125.231665 90.297984,120.642141 L90.297984,110.473014 C90.297984,108.313233 88.85952,107.323249 87.286368,107.323249 L83.780544,107.323249 L83.780544,108.493335 L84.499776,108.493335 C86.926848,108.493335 87.3312,110.112907 87.3312,111.507976 L87.3312,122.126877 C87.3312,126.086812 89.309088,129.146142 94.70256,129.146142 C98.298144,129.146142 101.039904,127.076508 102.343584,124.511641 L102.343584,125.90671 C102.343584,127.75165 103.646784,128.561532 105.489696,128.561532 L108.815904,128.561532 L108.815904,127.391446 L108.006528,127.391446 Z" id="Fill-11" fill="#000000"></path>
            </g>
        </g>
    </g>
</svg>