<?xml version="1.0" encoding="UTF-8"?>
<svg width="1600px" height="900px" viewBox="0 0 1600 900" version="1.1" xmlns="http://www.w3.org/2000/svg" xmlns:xlink="http://www.w3.org/1999/xlink">
    <title>hero-imultifamily</title>
    <defs>
        <rect id="path-1" x="0" y="0" width="1600" height="900"></rect>
    </defs>
    <g id="Page-1" stroke="none" stroke-width="1" fill="none" fill-rule="evenodd">
        <g id="Work---I-Multifamily">
            <g id="hero-imultifamily">
                <mask id="mask-2" fill="white">
                    <use xlink:href="#path-1"></use>
                </mask>
                <use id="Mask" fill="#00AFFF" xlink:href="#path-1"></use>
                <g id="imultifamily-rocket" mask="url(#mask-2)">
                    <g transform="translate(402.000000, 206.000000)">
                        <path d="M294.261281,707.921047 C294.261281,645.505576 243.665088,594.907839 181.251521,594.907839 C118.837954,594.907839 68.2348638,645.505576 68.2348638,707.921047 C68.2348638,707.921047 294.261281,707.921047 294.261281,707.921047 Z" id="Oval" fill="#DFF5FF"></path>
                        <path d="M136.042789,707.921047 C136.042789,670.471764 105.685073,640.113122 68.2369331,640.113122 C30.788793,640.113122 0.426938787,670.471764 0.426938787,707.921047 C0.426938787,707.921047 136.042789,707.921047 136.042789,707.921047 Z" id="Oval" fill="#DFF5FF"></path>
                        <path d="M796.039926,707.921047 C796.039926,662.981908 759.610667,626.551537 714.672899,626.551537 C669.735131,626.551537 633.300906,662.981908 633.300906,707.921047 C633.300906,707.921047 796.039926,707.921047 796.039926,707.921047 Z" id="Oval" fill="#DFF5FF"></path>
                        <path d="M712.410152,710.181311 C712.410152,647.76584 661.813959,597.168103 599.400392,597.168103 C536.986825,597.168103 486.383735,647.76584 486.383735,710.181311 C486.383735,710.181311 712.410152,710.181311 712.410152,710.181311 Z" id="Oval" fill="#DFF5FF"></path>
                        <path d="M540.630075,707.921047 C540.630075,633.022481 479.914644,572.305197 405.018363,572.305197 C330.122083,572.305197 269.398375,633.022481 269.398375,707.921047 C269.398375,707.921047 540.630075,707.921047 540.630075,707.921047 Z" id="Oval" fill="#DFF5FF"></path>
                        <circle id="Oval" fill="#DFF5FF" cx="269.398375" cy="583.606518" r="113.013208"></circle>
                        <path d="M247.925865,438.949611 C285.999303,438.949611 316.863922,469.814231 316.863922,507.887668 C316.863922,545.031656 287.487845,575.314494 250.700982,576.770889 C256.861832,588.226148 260.357318,601.329975 260.357318,615.250216 C260.357318,660.189356 223.926948,696.619726 178.987808,696.619726 C161.756033,696.619726 145.775315,691.263313 132.619841,682.124671 C124.705113,703.771257 103.925049,719.222368 79.5361847,719.222368 C48.3284489,719.222368 23.0295805,693.9235 23.0295805,662.715764 C23.0295805,631.508028 48.3284489,606.20916 79.5361847,606.20916 C85.9421397,606.20916 92.0991244,607.275128 97.8394352,609.239361 C100.91287,567.10743 136.070081,533.880706 178.987808,533.880706 C180.713011,533.880706 182.425674,533.934396 184.124218,534.040197 C180.812766,525.977463 178.987808,517.145687 178.987808,507.887668 C178.987808,469.814231 209.852428,438.949611 247.925865,438.949611 Z" id="Combined-Shape" fill="#ECEFF0" opacity="0.4"></path>
                        <path d="M544.020471,438.949611 C582.093909,438.949611 612.958528,469.814231 612.958528,507.887668 C612.958528,517.145687 611.13357,525.977463 607.82377,534.042884 C609.519991,533.934418 611.232987,533.880706 612.958528,533.880706 C655.876595,533.880706 691.034022,567.107956 694.109524,609.241169 C699.846497,607.275252 706.003825,606.20916 712.410152,606.20916 C743.617887,606.20916 768.916756,631.508028 768.916756,662.715764 C768.916756,688.138019 693.921668,692.850952 666.115572,676.854563 C651.862235,689.170002 633.28037,696.619726 612.958528,696.619726 C568.019389,696.619726 531.589018,660.189356 531.589018,615.250216 C531.589018,601.329975 535.084505,588.226148 541.245614,576.768599 C504.458491,575.314494 475.082414,545.031656 475.082414,507.887668 C475.082414,469.814231 505.947034,438.949611 544.020471,438.949611 Z" id="Combined-Shape" fill="#ECEFF0" opacity="0.4"></path>
                        <circle id="Oval" fill="#DFF5FF" cx="530.458886" cy="571.175065" r="91.5406988"></circle>
                        <circle id="Oval" fill="#DFF5FF" cx="395.973168" cy="484.154895" r="113.013208"></circle>
                        <circle id="Oval" fill="#FFFFFF" cx="338.336432" cy="463.48729" r="66.6777929"></circle>
                        <circle id="Oval" fill="#FFFFFF" cx="429.877131" cy="442.014781" r="67.807925"></circle>
                        <circle id="Oval" fill="#FFFFFF" cx="368.849998" cy="539.20614" r="45.2052834"></circle>
                        <circle id="Oval" fill="#FFFFFF" cx="441.178452" cy="518.863762" r="45.2052834"></circle>
                        <circle id="Oval" fill="#FFFFFF" cx="438.918187" cy="602.493537" r="22.6026417"></circle>
                        <g id="rocket" stroke-width="1" fill="none" transform="translate(249.055997, 0.000000)">
                            <path d="M183.698635,447.381552 C192.242625,482.449995 194.317757,510.050533 189.924032,530.183165 C186.540367,545.687569 173.846072,564.946813 158.923043,589.30926 C155.953255,594.157559 152.16476,602.049399 147.55756,612.984779 L147.715443,612.610552 L147.716118,612.984779 L147.636443,612.797552 L147.55756,612.984779 L147.557443,612.610552 L147.423153,612.290909 C142.948076,601.714953 139.257236,594.054404 136.350635,589.30926 C121.427606,564.946813 108.733311,545.687569 105.349646,530.183165 C100.955921,510.050533 103.031053,482.449995 111.575043,447.381552 Z" id="Combined-Shape" fill="#FF6B6B"></path>
                            <path d="M174.764306,447.381552 C181.28755,473.517467 182.871891,494.087679 179.517329,509.092188 C176.933938,520.647357 167.241981,535.000945 155.84841,553.157862 C153.784664,556.44667 151.203089,561.614605 148.103684,568.661665 L148.102691,570.802825 C147.946107,570.440029 147.790762,570.081728 147.636655,569.727921 L147.447389,570.16412 L147.447389,570.16412 L147.170987,570.802825 L147.170434,568.662667 C144.070834,561.615094 141.489112,556.446826 139.425268,553.157862 C128.031697,535.000945 118.33974,520.647357 115.756349,509.092188 C112.401787,494.087679 113.986129,473.517467 120.509372,447.381552 Z" id="Combined-Shape" fill="#FFC46B"></path>
                            <path d="M165.908371,447.381552 C170.33173,465.908276 171.406059,480.489693 169.131358,491.1258 C167.379581,499.316806 160.807543,509.491501 153.081655,522.362228 C151.737286,524.601842 150.068859,528.070774 148.076374,532.769024 L148.076114,534.870049 C147.927992,534.511288 147.781505,534.158728 147.636653,533.812368 L147.434674,534.297691 L147.434674,534.297691 L147.197564,534.870049 L147.19646,532.767034 C145.204348,528.069794 143.536202,524.601525 142.192023,522.362228 C134.466135,509.491501 127.894097,499.316806 126.14232,491.1258 C123.86762,480.489693 124.941948,465.908276 129.365307,447.381552 Z" id="Combined-Shape" fill="#FFF66B"></path>
                            <g id="Group" transform="translate(0.000000, 303.650449)">
                                <g id="Group-2">
                                    <path d="M210.071582,-2.73767974e-14 C255.833938,22.1062376 282.691725,50.3506972 290.644942,84.733379 C298.025474,116.64028 290.872844,161.385372 269.187051,218.968655 L269.187052,218.968656 C268.274777,221.391064 265.571481,222.615268 263.149073,221.702992 C261.726814,221.167372 260.652555,219.975384 260.267188,218.505281 C238.189713,134.283787 218.012247,94.7859106 199.734792,100.011652 C180.465943,105.520845 183.91154,72.1836272 210.071582,-2.73767974e-14 Z" id="Path-48" stroke="#424444" stroke-width="3.61642267" fill="#FFFFFF"></path>
                                    <path d="M22.5962306,-2.73767974e-14 C68.3585869,22.1062376 95.2163735,50.3506972 103.169591,84.733379 C110.550123,116.64028 103.397493,161.385372 81.7116995,218.968655 L81.7117013,218.968656 C80.7994254,221.391064 78.0961297,222.615268 75.6737214,221.702992 C74.2514627,221.167372 73.1772037,219.975384 72.791837,218.505281 C50.7143617,134.283787 30.5368962,94.7859106 12.2594406,100.011652 C-7.00940786,105.520845 -3.56381121,72.1836272 22.5962306,-2.73767974e-14 Z" id="Path-48" stroke="#424444" stroke-width="3.61642267" fill="#FFFFFF" transform="translate(52.990346, 116.302439) scale(-1, 1) translate(-52.990346, -116.302439) "></path>
                                    <path d="M36.9041797,32.3980598 C72.4055282,50.1567033 94.1328109,76.2273659 102.086028,110.610048 C110.039245,144.992729 112.655926,181.6048 109.936069,220.446258 C86.7771192,133.313995 65.5632198,92.5024596 46.2943714,98.011652 C27.0255229,103.520845 23.895459,81.6496471 36.9041797,32.3980598 Z" id="Path-48" fill="#ECEFF0" transform="translate(70.007811, 126.422159) scale(-1, 1) translate(-70.007811, -126.422159) "></path>
                                    <path d="M196.849119,28.3160024 C230.608927,43.516283 251.46544,68.3077642 259.418657,102.690446 C267.371874,137.073128 268.432632,175.479588 262.600933,217.909826 C239.959021,131.801851 219.00364,91.5024596 199.734792,97.011652 C180.465943,102.520845 179.504052,79.6222946 196.849119,28.3160024 Z" id="Path-48" fill="#ECEFF0"></path>
                                </g>
                            </g>
                            <path d="M146.855581,3.68988753 L145.316098,4.74255005 C87.2038468,44.7900769 54.4739114,97.9178187 46.9216814,164.349175 C39.248998,231.840071 58.9076972,324.791449 106.011508,443.049132 L106.494009,444.256963 L187.216214,444.256963 L187.702776,443.041891 C234.33399,325.969281 254.066227,233.69907 247.011689,166.381465 L246.789716,164.349175 C239.236757,97.9114024 206.501916,44.7820024 148.393203,4.74097795 L146.855581,3.68988753 Z" id="Combined-Shape" fill="#424444" fill-rule="nonzero"></path>
                            <path d="M166.822711,12.9264898 C216.249968,52.0526516 244.458878,102.272923 251.449441,163.587305 C259.220671,231.748937 239.411993,325.146134 192.023405,443.778895 L190.578945,447.381552 L104.694733,447.381552 C56.2646748,327.03552 35.9745095,232.437438 43.8242369,163.587305 C50.8875052,101.635223 79.6127787,51.0092195 130.000057,11.7092947 C135.610426,7.33344715 161.30295,8.55709733 166.822711,12.9264898 Z" id="Path" stroke="#424444" stroke-width="3.61642267" fill="#FFFFFF" fill-rule="nonzero" stroke-linejoin="round"></path>
                            <path d="M145.293397,0.565298347 L147.11297,1.795677 C206.882038,42.5366607 240.623389,96.9879684 248.337024,165.1496 C256.050658,233.311232 236.38879,326.708428 189.351419,445.34119 L187.917664,448.943846 C223.755729,354.592536 237.686335,265.460898 229.70948,181.548931 C217.744197,55.6809804 145.09129,0.565298347 145.293397,0.565298347 Z" id="Path" fill="#ECEFF0" fill-rule="nonzero"></path>
                            <path d="M147.636839,3.68988753 C157.877409,3.68988753 175.076219,19.5451376 185.913057,30.2356269 C185.913057,30.2356269 177.71101,36.0864762 147.441552,36.0864762 C117.172094,36.0864762 109.360621,30.2488956 109.360621,30.2488956 C111.351467,28.2846331 113.386484,26.3439495 115.465671,24.4268447 C125.219555,15.4333226 137.396269,3.68988753 147.636839,3.68988753 Z" id="Path" stroke="#424444" stroke-width="4.68688378" fill="#424444" fill-rule="nonzero" stroke-linejoin="round"></path>
                            <path d="M198.944003,419 C198.944003,419.169711 195.671315,428.022714 189.12594,445.559008 L105.783211,445.559008 C102.358466,436.565794 99.0787299,427.712791 95.9440028,419 C95.9440028,419 198.944003,419 198.944003,419 Z" id="Path" fill="#ECEFF0" fill-rule="nonzero"></path>
                            <circle id="Oval" stroke="#424444" stroke-width="4.68688378" fill="#03AFFF" cx="147.246265" cy="149.373858" r="48.4311324"></circle>
                            <circle id="Oval" stroke="#ECEFF0" stroke-width="7.81147296" cx="147.246265" cy="149.373858" r="54.6803107"></circle>
                            <path d="M132.63523,115.890679 C125.621549,118.666741 115.359341,126.962647 111.307773,138.720217" id="Oval" stroke="#FFFFFF" stroke-width="5.85860472" stroke-linecap="round"></path>
                            <line x1="147.636839" y1="306.775039" x2="147.636839" y2="517.684809" id="Path-49" stroke="#424444" stroke-width="6.56163729" stroke-linecap="round"></line>
                            <rect id="Rectangle" fill="#424444" x="93.9440028" y="419" width="108" height="3.6"></rect>
                            <line x1="147.636839" y1="306.775039" x2="147.636839" y2="394.263536" id="Path-49" stroke="#424444" stroke-width="6.56163729" stroke-linecap="round"></line>
                            <rect id="Rectangle" fill="#424444" x="45.3065432" y="239.596371" width="203.098297" height="15.6229459"></rect>
                        </g>
                    </g>
                </g>
            </g>
        </g>
    </g>
</svg>