<?xml version="1.0" encoding="UTF-8"?>
<svg width="900px" height="450px" viewBox="0 0 900 450" version="1.1" xmlns="http://www.w3.org/2000/svg" xmlns:xlink="http://www.w3.org/1999/xlink">
    <title>card-imultifamily</title>
    <defs>
        <rect id="path-1" x="0" y="0" width="900" height="450"></rect>
    </defs>
    <g id="Page-1" stroke="none" stroke-width="1" fill="none" fill-rule="evenodd">
        <g id="home" transform="translate(-350.000000, -2078.000000)">
            <g id="card-imultifamily" transform="translate(350.000000, 2078.000000)">
                <mask id="mask-2" fill="white">
                    <use xlink:href="#path-1"></use>
                </mask>
                <use id="Mask" fill="#00AFFF" xlink:href="#path-1"></use>
                <g id="Group-18" mask="url(#mask-2)">
                    <g transform="translate(210.000000, 39.000000)">
                        <g id="smoke" transform="translate(0.000000, 223.973289)">
                            <path d="M177.126976,203.014765 C177.126976,165.389946 146.626965,134.889005 109.003295,134.889005 C71.3796248,134.889005 40.875456,165.389946 40.875456,203.014765 C40.875456,203.014765 177.126976,203.014765 177.126976,203.014765 Z" id="Oval" fill="#DFF5FF"></path>
                            <path d="M81.7509119,203.014765 C81.7509119,180.439874 63.4509054,162.139309 40.8767033,162.139309 C18.3025013,162.139309 9.39482215e-14,180.439874 9.39482215e-14,203.014765 C9.39482215e-14,203.014765 81.7509119,203.014765 81.7509119,203.014765 Z" id="Oval" fill="#DFF5FF"></path>
                            <path d="M479.60535,203.014765 C479.60535,175.924895 457.645342,153.964217 430.5563,153.964217 C403.467257,153.964217 381.504256,175.924895 381.504256,203.014765 C381.504256,203.014765 479.60535,203.014765 479.60535,203.014765 Z" id="Oval" fill="#DFF5FF"></path>
                            <path d="M429.192288,204.37728 C429.192288,166.752462 398.692277,136.25152 361.068607,136.25152 C323.444937,136.25152 292.940768,166.752462 292.940768,204.37728 C292.940768,204.37728 429.192288,204.37728 429.192288,204.37728 Z" id="Oval" fill="#DFF5FF"></path>
                            <path d="M325.641133,203.014765 C325.641133,157.864983 289.041119,121.263853 243.892715,121.263853 C198.744311,121.263853 162.139309,157.864983 162.139309,203.014765 C162.139309,203.014765 325.641133,203.014765 325.641133,203.014765 Z" id="Oval" fill="#DFF5FF"></path>
                            <circle id="Oval" fill="#DFF5FF" cx="162.139309" cy="128.076429" r="68.1257599"></circle>
                            <path d="M149.195414,40.875456 C172.146553,40.875456 190.752128,59.4810304 190.752128,82.4321695 C190.752128,104.822843 173.044153,123.077597 150.868831,123.955805 C154.58227,130.86174 156.689248,138.760635 156.689248,147.151641 C156.689248,174.241511 134.72857,196.202189 107.638701,196.202189 C97.2508956,196.202189 87.6172838,192.973103 79.6868804,187.463948 C74.9168482,200.512901 62.390192,209.827341 47.688032,209.827341 C28.8756228,209.827341 13.625152,194.57687 13.625152,175.764461 C13.625152,156.952052 28.8756228,141.701581 47.688032,141.701581 C51.5497808,141.701581 55.2614349,142.344213 58.7218878,143.528371 C60.574445,118.130307 81.7675362,98.1010943 107.638701,98.1010943 C108.678668,98.1010943 109.711075,98.133459 110.734972,98.197236 C108.738746,93.3366206 107.638701,88.0128597 107.638701,82.4321695 C107.638701,59.4810304 126.244275,40.875456 149.195414,40.875456 Z" id="Combined-Shape" fill="#ECEFF0" opacity="0.4"></path>
                            <path d="M327.684905,40.875456 C350.636044,40.875456 369.241619,59.4810304 369.241619,82.4321695 C369.241619,88.0128597 368.141574,93.3366206 366.146492,98.1984443 C367.169244,98.133459 368.201652,98.1010943 369.241619,98.1010943 C395.112783,98.1010943 416.305875,118.130307 418.160362,143.528203 C421.618885,142.344213 425.330539,141.701581 429.192288,141.701581 C448.004697,141.701581 463.255168,156.952052 463.255168,175.764461 C463.255168,191.08955 418.045787,193.930414 401.284556,184.287051 C392.692698,191.711626 381.491572,196.202189 369.241619,196.202189 C342.15175,196.202189 320.191072,174.241511 320.191072,147.151641 C320.191072,138.760635 322.29805,130.86174 326.011806,123.955156 C303.836166,123.077597 286.128192,104.822843 286.128192,82.4321695 C286.128192,59.4810304 304.733766,40.875456 327.684905,40.875456 Z" id="Combined-Shape" fill="#ECEFF0" opacity="0.4"></path>
                            <circle id="Oval" fill="#DFF5FF" cx="319.509814" cy="120.582595" r="55.1818656"></circle>
                            <circle id="Oval" fill="#DFF5FF" cx="238.44016" cy="68.1257599" r="68.1257599"></circle>
                            <circle id="Oval" fill="#FFFFFF" cx="203.696022" cy="55.6670724" r="40.1941984"></circle>
                            <circle id="Oval" fill="#FFFFFF" cx="258.877888" cy="42.723178" r="40.875456"></circle>
                            <circle id="Oval" fill="#FFFFFF" cx="222.089977" cy="101.311332" r="27.250304"></circle>
                            <circle id="Oval" fill="#FFFFFF" cx="265.690464" cy="89.0486947" r="27.250304"></circle>
                            <circle id="Oval" fill="#FFFFFF" cx="264.327949" cy="139.461757" r="13.625152"></circle>
                        </g>
                        <g id="rocket" transform="translate(151.452421, 0.000000)">
                            <path d="M110.73581,269.4868 C115.886232,290.626491 117.137148,307.264436 114.488556,319.400636 C112.448841,328.746882 104.796562,340.356593 95.8007762,355.042577 C94.010551,357.965192 91.7267998,362.722491 88.9495223,369.314473 L89.0448534,369.0868 L89.0451032,369.314473 L88.9968534,369.1998 L88.9495223,369.314473 L88.9488534,369.0868 L88.793983,368.720256 C86.1298698,362.435854 83.9298252,357.876628 82.1938493,355.042577 C73.1980631,340.356593 65.5457846,328.746882 63.5060696,319.400636 C60.857478,307.264436 62.1083934,290.626491 67.2588158,269.4868 Z" id="Combined-Shape" fill="#FF6B6B"></path>
                            <path d="M105.350086,269.4868 C109.282377,285.241852 110.237438,297.641831 108.215267,306.686734 C106.657966,313.652333 100.815535,322.304853 93.9473493,333.250068 C92.7032998,335.232599 91.1470976,338.347886 89.2787424,342.59593 L89.2781343,343.886669 C89.1835469,343.667516 89.0897093,343.451083 88.9966214,343.237371 L88.9422374,343.36552 L88.9422374,343.36552 L88.7164912,343.886669 L88.7158831,342.59593 C86.847528,338.347886 85.2913257,335.232599 84.0472762,333.250068 C77.1790909,322.304853 71.3366592,313.652333 69.7793589,306.686734 C67.7571879,297.641831 68.7122482,285.241852 72.64454,269.4868 Z" id="Combined-Shape" fill="#FFC46B"></path>
                            <path d="M100.011618,269.4868 C102.678074,280.654938 103.325692,289.444796 101.954474,295.856374 C100.898482,300.794013 96.9367761,306.927445 92.2795152,314.686078 C91.4691424,316.036096 90.4634378,318.127108 89.2624012,320.959115 L89.2621129,322.225948 C89.1726225,322.009195 89.0841219,321.796198 88.9966111,321.586955 L88.9186081,321.777198 L88.9186081,321.777198 L88.7325126,322.225948 L88.7322243,320.959115 C87.5311878,318.127108 86.5254831,316.036096 85.7151103,314.686078 C81.0578495,306.927445 77.0961438,300.794013 76.040151,295.856374 C74.6689332,289.444796 75.3165519,280.654938 77.9830071,269.4868 Z" id="Combined-Shape" fill="#FFF66B"></path>
                            <g id="Group" transform="translate(0.000000, 182.843913)">
                                <g id="Group-2">
                                    <path d="M126.633748,-1.65030721e-14 C154.219862,13.3259135 170.410068,30.3520231 175.204366,51.078329 C179.653442,70.3122036 175.341748,97.2850986 162.269284,131.997014 L162.269285,131.997014 C161.719354,133.457272 160.089774,134.195237 158.629516,133.645306 C157.772161,133.322427 157.124584,132.603883 156.89228,131.717686 C143.583705,80.9479278 131.420479,57.1381193 120.402603,60.288261 C108.787103,63.6092703 110.864151,43.5131833 126.633748,-1.65030721e-14 Z" id="Path-48" stroke="#424444" stroke-width="2.18002432" fill="#FFFFFF"></path>
                                    <path d="M13.6212873,-1.65030721e-14 C41.2074017,13.3259135 57.3976077,30.3520231 62.1919053,51.078329 C66.6409818,70.3122036 62.3292877,97.2850986 49.2568232,131.997014 L49.2568243,131.997014 C48.7068931,133.457272 47.077313,134.195237 45.6170553,133.645306 C44.7597002,133.322427 44.1121235,132.603883 43.8798197,131.717686 C30.5712445,80.9479278 18.4080188,57.1381193 7.39014245,60.288261 C-4.22535776,63.6092703 -2.14830948,43.5131833 13.6212873,-1.65030721e-14 Z" id="Path-48" stroke="#424444" stroke-width="2.18002432" fill="#FFFFFF" transform="translate(31.943236, 70.108549) scale(-1, 1) translate(-31.943236, -70.108549) "></path>
                                    <path d="M22.246296,19.5335726 C43.646948,30.2387026 56.7444228,45.9544205 61.5387204,66.6807263 C66.333018,87.4070321 67.9103854,109.477241 66.2708225,132.891353 C52.3103209,80.3669466 39.5223199,55.7652482 27.9068197,59.0862576 C16.2913195,62.407267 14.4044783,49.2230387 22.246296,19.5335726 Z" id="Path-48" fill="#ECEFF0" transform="translate(42.201575, 76.212463) scale(-1, 1) translate(-42.201575, -76.212463) "></path>
                                    <path d="M118.663084,17.6756703 C139.013914,26.8385874 151.586477,41.7831989 156.380775,62.5095048 C161.175073,83.2358106 161.814511,106.3877 158.299091,131.965172 C144.650266,80.0582198 132.018103,55.7652482 120.402603,59.0862576 C108.787103,62.407267 108.207263,48.6037379 118.663084,17.6756703 Z" id="Path-48" fill="#ECEFF0"></path>
                                </g>
                            </g>
                            <path d="M88.5263605,2.02397596 L87.5983411,2.65853394 C52.5675575,26.7996785 32.8375476,58.8257384 28.28497,98.8713818 C23.6597815,139.555729 35.5102886,195.587969 63.9050481,266.875163 L64.1959059,267.603258 L112.856249,267.603258 L113.149555,266.870798 C141.259428,196.297981 153.154265,140.676356 148.901702,100.096471 L148.767894,98.8713818 C144.214876,58.8218706 124.481909,26.7948111 89.4532585,2.65758626 L88.5263605,2.02397596 Z" id="Combined-Shape" fill="#424444" fill-rule="nonzero"></path>
                            <path d="M100.562794,7.59191405 C130.358156,31.1776484 147.362836,61.4510494 151.576833,98.4121173 C156.261427,139.500792 144.320511,195.801777 115.754084,267.315074 L114.883346,269.4868 L63.1112799,269.4868 C33.9170419,196.940723 21.6858793,139.915829 26.4177921,98.4121173 C30.6756176,61.0666358 47.9915678,30.5486546 78.3656426,6.85817382 C81.747642,4.22035876 97.2354133,4.95799023 100.562794,7.59191405 Z" id="Path" stroke="#424444" stroke-width="2.18002432" fill="#FFFFFF" fill-rule="nonzero" stroke-linejoin="round"></path>
                            <path d="M87.584657,0.140434946 L88.6815183,0.882122419 C124.711052,25.4412914 145.050755,58.2652132 149.70063,99.3538878 C154.350504,140.442562 142.498086,196.743548 114.143377,268.256844 L113.279092,270.42857 C134.882721,213.552433 143.280263,159.822779 138.471716,109.239607 C131.258896,33.3648499 87.4628243,0.140434946 87.584657,0.140434946 Z" id="Path" fill="#ECEFF0" fill-rule="nonzero"></path>
                            <path d="M88.9973128,2.02397596 C95.1704548,2.02397596 105.53811,11.5817168 112.07069,18.026076 C112.07069,18.026076 107.126395,21.5530403 88.8795915,21.5530403 C70.6327879,21.5530403 65.9239354,18.0340745 65.9239354,18.0340745 C67.1240419,16.8499928 68.3507751,15.6801247 69.604135,14.5244702 C75.4838968,9.10306386 82.8241707,2.02397596 88.9973128,2.02397596 Z" id="Path" stroke="#424444" stroke-width="2.82531152" fill="#424444" fill-rule="nonzero" stroke-linejoin="round"></path>
                            <circle id="Oval" stroke="#424444" stroke-width="2.82531152" fill="#03AFFF" cx="88.7618701" cy="89.8440756" r="29.1948857"></circle>
                            <circle id="Oval" stroke="#ECEFF0" stroke-width="4.70885253" cx="88.7618701" cy="89.8440756" r="32.9619677"></circle>
                            <path d="M79.954157,69.6600009 C75.7262238,71.3334456 69.540038,76.3343203 67.0977025,83.4219288" id="Oval" stroke="#FFFFFF" stroke-width="3.5316394" stroke-linecap="round"></path>
                            <rect id="Rectangle" fill="#424444" x="27.3113447" y="144.231322" width="122.430166" height="9.41770505"></rect>
                            <polygon id="Path-18" fill="#ECEFF0" points="58.8223302 255.225376 119.133969 255.225376 114.143377 268.447412 63.8864722 268.447412"></polygon>
                            <line x1="88.9973128" y1="184.727454" x2="88.9973128" y2="311.866472" id="Path-49" stroke="#424444" stroke-width="3.95543612" stroke-linecap="round"></line>
                            <rect id="Rectangle" fill="#424444" x="57.6961603" y="254.023372" width="62.5041736" height="2.16360601"></rect>
                        </g>
                    </g>
                </g>
            </g>
        </g>
    </g>
</svg>