<?xml version="1.0" encoding="UTF-8"?>
<svg width="160px" height="160px" viewBox="0 0 160 160" version="1.1" xmlns="http://www.w3.org/2000/svg" xmlns:xlink="http://www.w3.org/1999/xlink">
    <title>i-multifamily</title>
    <g id="i-multifamily" stroke="none" stroke-width="1" fill="none" fill-rule="evenodd">
        <g transform="translate(6.000000, 21.000000)">
            <g id="logo-text" transform="translate(0.000000, 82.000000)" fill="#202022">
                <g id="I-Multifamily" transform="translate(1.554000, 8.843000)">
                    <polygon id="I" fill-rule="nonzero" points="4.144 18.907 4.144 0.777 -4.92939023e-15 0.777 -4.92939023e-15 18.907"></polygon>
                    <path d="M17.871,18.907 L17.871,8.3657 L22.5589,16.058 L23.0251,16.058 L27.713,8.3657 L27.713,18.907 L31.857,18.907 L31.857,0.777 L27.713,0.777 L22.792,8.8319 L17.871,0.777 L13.727,0.777 L13.727,18.907 L17.871,18.907 Z M39.4975,19.2696 C41.2069,19.2696 42.5019,18.648 43.2012,17.6897 L43.2012,18.907 L47.0862,18.907 L47.0862,5.957 L43.2012,5.957 L43.2012,13.0277 C43.2012,14.8666 42.217,15.6954 40.7925,15.6954 C39.5493,15.6954 38.5392,14.9443 38.5392,13.3385 L38.5392,5.957 L34.6542,5.957 L34.6542,13.9083 C34.6542,17.4048 36.8816,19.2696 39.4975,19.2696 Z M53.8202,18.907 L53.8202,1.64313008e-15 L49.9352,1.64313008e-15 L49.9352,18.907 L53.8202,18.907 Z M64.2579,18.907 L64.2579,15.3846 C62.5485,15.4882 61.5902,15.3846 61.5902,14.2709 L61.5902,9.6866 L64.2579,9.6866 L64.2579,5.957 L61.5902,5.957 L61.5902,2.331 L57.7052,3.4965 L57.7052,5.957 L55.6332,5.957 L55.6332,9.6866 L57.7052,9.6866 L57.7052,14.2709 C57.7052,17.8969 59.1815,19.425 64.2579,18.907 Z M68.6609,4.8174 C69.93,4.8174 70.9919,3.7555 70.9919,2.4864 C70.9919,1.2173 69.93,0.1554 68.6609,0.1554 C67.3918,0.1554 66.3299,1.2173 66.3299,2.4864 C66.3299,3.7555 67.3918,4.8174 68.6609,4.8174 Z M70.6034,18.907 L70.6034,5.957 L66.7184,5.957 L66.7184,18.907 L70.6034,18.907 Z M78.1662,18.907 L78.1662,9.6866 L80.5749,9.6866 L80.5749,5.957 L78.1662,5.957 C78.1662,4.4548 79.1245,4.0145 80.5749,4.144 L80.5749,0.4144 C76.2755,0.1554 74.2812,2.331 74.2812,5.957 L72.5459,5.957 L72.5459,9.6866 L74.2812,9.6866 L74.2812,18.907 L78.1662,18.907 Z M87.542,19.2696 C89.2773,19.2696 90.5464,18.6739 91.4011,17.6897 L91.4011,18.907 L95.2861,18.907 L95.2861,5.957 L91.4011,5.957 L91.4011,7.1743 C90.5464,6.1901 89.2773,5.5944 87.542,5.5944 C84.1491,5.5944 81.3519,8.5729 81.3519,12.432 C81.3519,16.2911 84.1491,19.2696 87.542,19.2696 Z M88.319,15.5918 C86.5319,15.5918 85.2369,14.3745 85.2369,12.432 C85.2369,10.4895 86.5319,9.2722 88.319,9.2722 C90.1061,9.2722 91.4011,10.4895 91.4011,12.432 C91.4011,14.3745 90.1061,15.5918 88.319,15.5918 Z M102.0201,18.907 L102.0201,11.6032 C102.0201,10.0751 102.7453,9.1686 104.0403,9.1686 C105.2835,9.1686 105.9051,9.9974 105.9051,11.2924 L105.9051,18.907 L109.7901,18.907 L109.7901,11.6032 C109.7901,10.0751 110.5153,9.1686 111.8103,9.1686 C113.0535,9.1686 113.6751,9.9974 113.6751,11.2924 L113.6751,18.907 L117.5601,18.907 L117.5601,10.9557 C117.5601,7.7182 115.6176,5.5944 112.6391,5.5944 C110.8002,5.5944 109.6088,6.2678 108.8836,7.3038 C108.1584,6.216 107.0188,5.5944 105.4907,5.5944 C103.7554,5.5944 102.6158,6.2678 102.0201,7.1484 L102.0201,5.957 L98.1351,5.957 L98.1351,18.907 L102.0201,18.907 Z M122.1703,4.8174 C123.4394,4.8174 124.5013,3.7555 124.5013,2.4864 C124.5013,1.2173 123.4394,0.1554 122.1703,0.1554 C120.9012,0.1554 119.8393,1.2173 119.8393,2.4864 C119.8393,3.7555 120.9012,4.8174 122.1703,4.8174 Z M124.1128,18.907 L124.1128,5.957 L120.2278,5.957 L120.2278,18.907 L124.1128,18.907 Z M130.8468,18.907 L130.8468,1.64313008e-15 L126.9618,1.64313008e-15 L126.9618,18.907 L130.8468,18.907 Z M141.5694,18.5185 L145.9983,5.957 L141.8543,5.957 L139.4197,13.8824 L136.5448,5.957 L132.2713,5.957 L137.4254,18.3113 C136.8556,19.8912 136.0009,20.461 134.1879,20.461 L134.1879,24.087 C137.8139,24.2683 140.119,22.6366 141.5694,18.5185 Z" id="Multifamily" fill-rule="nonzero"></path>
                </g>
            </g>
            <g id="logo-mark" transform="translate(34.000000, 0.000000)">
                <g id="pig" transform="translate(10.000000, 7.000000)">
                    <ellipse id="Oval" fill="#E9E9EE" cx="32" cy="64" rx="30" ry="5"></ellipse>
                    <path d="M4.53557227,12.4586132 C4.83906313,10.6701616 5.62692333,10.1536169 5.62692333,10.1536169 C5.62692333,10.1536169 10.4056062,9.24111182 14.4274519,17.3619209 C18.4492976,25.48273 4.23208141,14.2470648 4.53557227,12.4586132 Z" id="Path-2" stroke="#202022" fill="#00AFFF" transform="translate(9.837742, 15.199903) rotate(-20.000000) translate(-9.837742, -15.199903) "></path>
                    <path d="M2.16578156,23.9941019 C2.76429647,15.7607365 4.27051979,11.6318202 6.68445151,11.6073531 C9.09838323,11.582886 11.0934896,14.1636441 12.6697705,19.3496274" id="Path" stroke="#202022" stroke-width="2" fill="#00AFFF" transform="translate(7.417776, 17.800641) rotate(-20.000000) translate(-7.417776, -17.800641) "></path>
                    <g id="Group-2" transform="translate(24.197561, 0.000000)" fill="#FFFFFF" stroke="#202022">
                        <circle id="Oval" stroke-width="2" cx="7.5" cy="7.5" r="7.5"></circle>
                        <circle id="Oval" stroke-width="0.666666667" cx="7.5" cy="7.5" r="4.6875"></circle>
                    </g>
                    <rect id="Rectangle" stroke="#202022" stroke-width="1.33333333" fill="#00AFFF" x="29.6666667" y="32.4455338" width="14.1666667" height="31.8333333" rx="5.33333333"></rect>
                    <rect id="Rectangle" stroke="#202022" stroke-width="1.33333333" fill="#00AFFF" x="10.1666667" y="32.4455338" width="14.1666667" height="31.8333333" rx="5.33333333"></rect>
                    <path d="M28.1666667,12.6122005 C42.89426,12.6122005 54.8333333,23.8050818 54.8333333,37.6122005 C54.8333333,37.6509808 54.8332391,37.6897405 54.833051,37.7284793 C54.8332562,37.7454134 54.8333333,37.7621313 54.8333333,37.7788672 L54.8333333,58.9455338 C54.8333333,61.8910525 52.4455187,64.2788672 49.5,64.2788672 L46,64.2788672 C43.3020155,64.2788672 41.0719376,62.2755212 40.716171,59.6752342 C37.7258544,61.1746264 34.3930734,62.1544796 30.8566458,62.4865828 C29.9542142,64.1495713 28.192321,65.2788672 26.1666667,65.2788672 L22.6666667,65.2788672 C19.8995916,65.2788672 17.6246945,63.1716033 17.359217,60.4743173 C8.01681797,56.586908 1.5,47.8130313 1.5,37.6122005 C1.5,23.8050818 13.4390733,12.6122005 28.1666667,12.6122005 Z" id="Combined-Shape" stroke="#202022" stroke-width="2" fill="#00AFFF"></path>
                    <circle id="Oval" fill="#202022" cx="6.66666667" cy="33.6122005" r="2.33333333"></circle>
                    <g id="Group" transform="translate(0.000000, 35.695534)">
                        <ellipse id="Oval" stroke="#202022" fill="#00AFFF" cx="8.78233726" cy="7.1034258" rx="8.75229358" ry="6.96941896"></ellipse>
                        <ellipse id="Oval" stroke="#202022" fill="#FFFFFF" cx="7.89089995" cy="7.1034258" rx="7.86085627" ry="6.96941896"></ellipse>
                        <ellipse id="Oval" fill="#202022" cx="4.08203145" cy="7.1034258" rx="1.13455657" ry="2.26911315"></ellipse>
                        <ellipse id="Oval" fill="#202022" cx="9.59273482" cy="7.26550531" rx="1.13455657" ry="2.26911315"></ellipse>
                    </g>
                    <circle id="Oval" fill="#202022" cx="19" cy="34.2788672" r="2.66666667"></circle>
                    <path d="M22.5,13.2013882 C23.0968316,10.9132153 23.7357205,9.47000079 24.4166667,8.87174479 C27.6895948,8.22471006 31.0521305,9.98893333 34.5042738,14.1644146 C36.0946585,16.0880374 37.8553306,19.386187 38.2181229,20.9748193" id="Path-2" stroke="#202022" fill="#00AFFF" stroke-linecap="round" stroke-linejoin="round"></path>
                    <path d="M19.6666667,19.713431 C20.7777778,12.6289895 22.8203602,9.09524595 25.7944139,9.11220051 C28.1811161,9.12580668 30.7555936,11.6323623 32.8988122,16.9087124 C33.8003727,19.1282475 34.5007686,21.6960769 35,24.6122005" id="Path" stroke="#202022" stroke-width="2" fill="#00AFFF" stroke-linecap="round" stroke-linejoin="round"></path>
                    <path d="M49.7521988,22.9322456 C51.9821506,25.0709345 53.9749541,25.553755 55.7306095,24.3807072 C58.3640924,22.6211355 57.214831,19.311976 55.4761234,18.4544445 C53.7374158,17.5969129 51.9331911,19.2525146 52.6646998,20.9748193 C53.3962086,22.697124 56.9224049,23.5621375 59.9522468,21.7573579" id="Path-3" stroke="#202022" stroke-width="2" stroke-linecap="round" stroke-linejoin="round"></path>
                </g>
            </g>
        </g>
    </g>
</svg>