<?xml version="1.0" encoding="UTF-8"?>
<svg width="160px" height="160px" viewBox="0 0 160 160" version="1.1" xmlns="http://www.w3.org/2000/svg" xmlns:xlink="http://www.w3.org/1999/xlink">
    <title>logo-icarasia</title>
    <g id="logo-icarasia" stroke="none" stroke-width="1" fill="none" fill-rule="evenodd">
        <g transform="translate(6.000000, 53.000000)">
            <g id="Group" transform="translate(0.789333, 24.534759)">
                <path d="M0.0394666667,3.36363636 C0.0394666667,2.29518717 0.315733333,1.54331551 0.907733333,1.02887701 C1.49973333,0.514438503 2.44693333,0.277005348 3.74933333,0.277005348 C5.05173333,0.277005348 5.99893333,0.554010695 6.59093333,1.0684492 C7.18293333,1.5828877 7.49866667,2.37433155 7.49866667,3.40320856 C7.49866667,5.46096257 6.23573333,6.48983957 3.74933333,6.48983957 C1.26293333,6.45026738 0.0394666667,5.42139037 0.0394666667,3.36363636 Z M7.2224,28.7294118 L0.2368,28.7294118 L0.2368,8.42887701 L7.2224,8.42887701 L7.2224,28.7294118 Z" id="Shape" fill="#FFC627" fill-rule="nonzero"></path>
                <path d="M23.2458667,7.9540107 C21.5488,7.9540107 20.2464,8.62673797 19.2992,10.0117647 C18.352,11.3967914 17.8784,13.2962567 17.8784,15.7101604 C17.8784,20.7358289 19.7728,23.2684492 23.6010667,23.2684492 C24.7456,23.2684492 25.8901333,23.1101604 26.9557333,22.7935829 C28.0213333,22.4770053 29.1264,22.0812834 30.2314667,21.6459893 L30.2314667,27.6213904 C28.0608,28.571123 25.5744,29.0855615 22.8512,29.0855615 C18.9045333,29.0855615 15.9050667,27.9379679 13.7738667,25.6427807 C11.6821333,23.3475936 10.6165333,20.0235294 10.6165333,15.7101604 C10.6165333,12.9796791 11.1296,10.6053476 12.1557333,8.54759358 C13.1818667,6.48983957 14.6421333,4.90695187 16.5365333,3.79893048 C18.4309333,2.69090909 20.6805333,2.1368984 23.2853333,2.1368984 C26.1269333,2.1368984 28.8106667,2.77005348 31.376,3.99679144 L29.2053333,9.57647059 C28.2581333,9.14117647 27.2714667,8.74545455 26.3242667,8.42887701 C25.3770667,8.11229947 24.3509333,7.9540107 23.2458667,7.9540107 Z" id="Path" fill="#003A5D"></path>
                <path d="M47.2810667,28.7294118 L45.9392,26.0385027 L45.7813333,26.0385027 C44.8341333,27.2256684 43.8869333,28.0171123 42.9002667,28.4524064 C41.9136,28.8877005 40.6506667,29.0855615 39.1114667,29.0855615 C37.2170667,29.0855615 35.7173333,28.5315508 34.6122667,27.3839572 C33.5072,26.2363636 32.9546667,24.6139037 32.9546667,22.5561497 C32.9546667,20.3796791 33.7045333,18.7967914 35.2042667,17.7283422 C36.704,16.659893 38.8746667,16.0663102 41.7162667,15.9475936 L45.1104,15.828877 L45.1104,15.5518717 C45.1104,13.8898396 44.2816,13.0588235 42.6634667,13.0588235 C41.2032,13.0588235 39.3088,13.573262 37.0197333,14.5625668 L35.0069333,9.93262032 C37.3749333,8.70588235 40.3349333,8.11229947 43.9264,8.11229947 C46.5312,8.11229947 48.544,8.74545455 49.9648,10.0513369 C51.3856,11.3572193 52.096,13.1379679 52.096,15.4727273 L52.096,28.768984 L47.2810667,28.768984 L47.2810667,28.7294118 Z M42.0714667,24.1390374 C42.9002667,24.1390374 43.6501333,23.8620321 44.2421333,23.3475936 C44.8341333,22.7935829 45.1498667,22.1208556 45.1498667,21.2502674 L45.1498667,19.6673797 L43.5317333,19.7465241 C41.2426667,19.8256684 40.0981333,20.6962567 40.0981333,22.2791444 C40.0981333,23.5058824 40.7690667,24.1390374 42.0714667,24.1390374 Z" id="Shape" fill="#003A5D" fill-rule="nonzero"></path>
                <path d="M68.1984,8.07272727 C68.7904,8.07272727 69.3824,8.11229947 69.9349333,8.23101604 L70.3296,8.31016043 L69.6981333,14.9187166 C69.1456,14.7604278 68.3168,14.7208556 67.3301333,14.7208556 C65.7909333,14.7208556 64.6858667,15.0770053 64.0149333,15.7497326 C63.344,16.4224599 62.9888,17.4513369 62.9888,18.7572193 L62.9888,28.7294118 L56.0032,28.7294118 L56.0032,8.42887701 L61.1733333,8.42887701 L62.2784,11.6737968 L62.6336,11.6737968 C63.2256,10.6053476 64.0149333,9.73475936 65.0805333,9.06203209 C66.1066667,8.38930481 67.1328,8.07272727 68.1984,8.07272727 Z" id="Path" fill="#003A5D"></path>
                <path d="M88.7210667,28.7294118 L87.4186667,23.8224599 L78.9333333,23.8224599 L77.6309333,28.7294118 L69.856,28.7294118 L78.3808,2.41390374 L87.8133333,2.41390374 L96.4565333,28.7294118 L88.7210667,28.7294118 Z M85.9584,18.0053476 L84.8138667,13.6919786 C84.5376,12.742246 84.2218667,11.515508 83.8666667,9.97219251 C83.472,8.4684492 83.2352,7.36042781 83.1168,6.72727273 C82.9984,7.32085561 82.8010667,8.34973262 82.4853333,9.73475936 C82.1696,11.1197861 81.4592,13.8898396 80.3936,18.0053476 L85.9584,18.0053476 L85.9584,18.0053476 Z" id="Shape" fill="#FFC627" fill-rule="nonzero"></path>
                <path d="M113.585067,22.4770053 C113.585067,24.6534759 112.8352,26.2759358 111.374933,27.3839572 C109.914667,28.4919786 107.783467,29.0459893 105.0208,29.0459893 C103.521067,29.0459893 102.218667,28.9668449 101.1136,28.8085561 C100.008533,28.6502674 98.864,28.3336898 97.7194667,27.9379679 L97.7194667,22.3187166 C98.7850667,22.7935829 100.008533,23.1893048 101.271467,23.5058824 C102.573867,23.8224599 103.7184,23.9807487 104.744533,23.9807487 C106.244267,23.9807487 106.994133,23.6245989 106.994133,22.9518717 C106.994133,22.5957219 106.7968,22.2791444 106.362667,22.002139 C105.928533,21.7251337 104.705067,21.171123 102.692267,20.3796791 C100.837333,19.6278075 99.5349333,18.7572193 98.7850667,17.7679144 C98.0352,16.7786096 97.68,15.5518717 97.68,14.0877005 C97.68,12.1882353 98.3904,10.7240642 99.8506667,9.69518717 C101.310933,8.62673797 103.3632,8.11229947 106.007467,8.11229947 C107.349333,8.11229947 108.612267,8.27058824 109.7568,8.54759358 C110.9408,8.82459893 112.164267,9.25989305 113.4272,9.81390374 L111.5328,14.3251337 C110.5856,13.8898396 109.6384,13.5336898 108.5728,13.2566845 C107.546667,12.9796791 106.6784,12.8213904 106.046933,12.8213904 C104.9024,12.8213904 104.349867,13.0983957 104.349867,13.6524064 C104.349867,14.0085561 104.5472,14.2855615 104.941867,14.5229947 C105.336533,14.7604278 106.481067,15.2748663 108.414933,16.026738 C109.835733,16.6203209 110.901333,17.1743316 111.572267,17.7283422 C112.282667,18.2823529 112.795733,18.9550802 113.111467,19.7069519 C113.4272,20.4588235 113.585067,21.4085561 113.585067,22.4770053 Z" id="Path" fill="#FFC627"></path>
                <path d="M116.466133,3.36363636 C116.466133,2.29518717 116.7424,1.54331551 117.3344,1.02887701 C117.9264,0.514438503 118.8736,0.277005348 120.176,0.277005348 C121.4784,0.277005348 122.4256,0.554010695 123.0176,1.0684492 C123.6096,1.5828877 123.925333,2.37433155 123.925333,3.40320856 C123.925333,5.46096257 122.6624,6.48983957 120.176,6.48983957 C117.6896,6.45026738 116.466133,5.42139037 116.466133,3.36363636 Z M123.6096,28.7294118 L116.624,28.7294118 L116.624,8.42887701 L123.6096,8.42887701 L123.6096,28.7294118 Z" id="Shape" fill="#FFC627" fill-rule="nonzero"></path>
                <path d="M140.817067,28.7294118 L139.4752,26.0385027 L139.317333,26.0385027 C138.370133,27.2256684 137.422933,28.0171123 136.436267,28.4524064 C135.4496,28.8877005 134.186667,29.0855615 132.647467,29.0855615 C130.753067,29.0855615 129.253333,28.5315508 128.148267,27.3839572 C127.0432,26.2363636 126.490667,24.6139037 126.490667,22.5561497 C126.490667,20.3796791 127.240533,18.7967914 128.740267,17.7283422 C130.24,16.659893 132.410667,16.0663102 135.252267,15.9475936 L138.6464,15.828877 L138.6464,15.5518717 C138.6464,13.8898396 137.8176,13.0588235 136.199467,13.0588235 C134.7392,13.0588235 132.8448,13.573262 130.555733,14.5625668 L128.542933,9.93262032 C130.910933,8.70588235 133.870933,8.11229947 137.4624,8.11229947 C140.0672,8.11229947 142.08,8.74545455 143.5008,10.0513369 C144.9216,11.3572193 145.632,13.1379679 145.632,15.4727273 L145.632,28.768984 L140.817067,28.768984 L140.817067,28.7294118 Z M135.646933,24.1390374 C136.475733,24.1390374 137.2256,23.8620321 137.8176,23.3475936 C138.4096,22.7935829 138.725333,22.1208556 138.725333,21.2502674 L138.725333,19.6673797 L137.1072,19.7465241 C134.818133,19.8256684 133.6736,20.6962567 133.6736,22.2791444 C133.6736,23.5058824 134.305067,24.1390374 135.646933,24.1390374 Z" id="Shape" fill="#FFC627" fill-rule="nonzero"></path>
            </g>
            <path d="M0.197333333,22.5561497 C0.197333333,22.5561497 15.5498667,8.58716578 47.6362667,11.1197861 C47.6362667,11.1197861 66.1856,0.079144385 76.3285333,0.356149733 C76.3285333,0.356149733 133.634133,1.93903743 147.684267,22.5561497 C147.684267,22.5561497 108.4544,11.6737968 89.8261333,17.0160428 C89.8261333,17.0160428 101.9424,9.69518717 125.7408,13.1775401 C125.7408,13.1775401 108.336,4.31336898 73.2501333,3.28449198 C73.2501333,3.28449198 61.1338667,4.51122995 49.5701333,14.2855615 C49.3728,14.4438503 25.4165333,9.73475936 0.197333333,22.5561497 Z" id="Path" fill="#003A5D"></path>
        </g>
    </g>
</svg>