<?xml version="1.0" encoding="UTF-8"?>
<svg width="160px" height="160px" viewBox="0 0 160 160" version="1.1" xmlns="http://www.w3.org/2000/svg" xmlns:xlink="http://www.w3.org/1999/xlink">
    <title>logo-carlist</title>
    <g id="logo-carlist" stroke="none" stroke-width="1" fill="none" fill-rule="evenodd">
        <path d="M143.558896,82.2849126 L146.405462,92.1706614 C146.543392,92.6876319 146.637513,93.3108341 146.686627,94.0412218 L146.805733,94.0412218 C146.884111,93.3418332 147.003388,92.7285269 147.160998,92.2012433 L150.081662,82.2849126 L155.996235,82.2849126 L149.355047,100.61179 C148.50539,102.94394 147.45979,104.591664 146.219958,105.55538 C144.979441,106.518082 143.361242,107 141.364847,107 C140.594251,107 139.803462,106.9135 138.992994,106.741157 L138.992994,102.072029 C139.516821,102.194416 140.114576,102.254984 140.786601,102.254984 C141.300502,102.254984 141.750572,102.152746 142.136127,101.950596 C142.52151,101.747492 142.857266,101.461405 143.144079,101.091681 C143.430549,100.720406 143.736871,100.115148 144.063043,99.273044 L137.451803,82.2849126 L143.558896,82.2849126 Z M95.3154781,78.8325012 L95.3154781,82.2849126 L99.4369574,82.2849126 L99.4369574,86.741458 L95.3154781,86.741458 L95.3154781,93.4484226 C95.3154781,94.5635575 95.8398184,95.122198 96.8866167,95.122198 C97.6679933,95.122198 98.6015039,94.923863 99.6885176,94.5280277 L99.6885176,98.8630206 C98.9079966,99.2074689 98.1642684,99.4534353 97.4580176,99.6005024 C96.7515956,99.7481657 95.9233295,99.8205964 94.9747595,99.8205964 C93.0274786,99.8205964 91.6250736,99.3318232 90.7649775,98.3531442 C89.9050525,97.3747633 89.4753467,95.8715429 89.4753467,93.8442579 L89.4753467,86.741458 L87.4448969,86.741458 L87.4448969,84.3231068 L90.0241585,82.452308 L91.5205136,78.8325012 L95.3154781,78.8325012 Z M32.2459264,82.2349562 C34.4002738,82.2349562 36.0681005,82.7742819 37.2490641,83.8536485 C38.4300278,84.9328959 39.0205952,86.4421969 39.0205952,88.3797036 L39.0205952,99.517222 L35.0031625,99.517222 L33.8915062,97.2685912 L33.7729136,97.2685912 C32.9922215,98.2487009 32.1962989,98.9175076 31.3863437,99.2769786 C30.5757039,99.6372245 29.52805,99.8168407 28.2435531,99.8168407 C26.6621468,99.8168407 25.4168385,99.3365923 24.5077993,98.377407 C23.598418,97.4184005 23.1440695,96.0699374 23.1440695,94.3310042 C23.1440695,92.5222037 23.7669804,91.1757675 25.0121175,90.2913974 C26.2570836,89.4066101 28.0604447,88.9101467 30.4225431,88.7993844 L33.224444,88.7099637 L33.224444,88.4701376 C33.224444,87.0717182 32.5424936,86.3715546 31.1784215,86.3715546 C29.9533065,86.3715546 28.3965427,86.7915931 26.5091571,87.6309548 L24.8339719,83.7638702 C26.790836,82.7448327 29.2610882,82.2349562 32.2459264,82.2349562 Z M79.9169167,82.2349562 C81.0239525,82.2349562 82.0637344,82.3551972 83.0369471,82.5960368 C84.0111865,82.837234 85.0210208,83.1882398 86.0683324,83.6499483 L84.4973649,87.3650775 C83.7265983,87.0206292 82.9113381,86.728641 82.051242,86.4870265 C81.1921726,86.2469619 80.4896866,86.1265421 79.9465221,86.1265421 C78.9979521,86.1265421 78.5234104,86.3569493 78.5234104,86.8196712 C78.5234104,87.1045057 78.6885502,87.3474914 79.0200278,87.5492243 C79.3509919,87.7501823 80.3067494,88.1609807 81.8878135,88.7800695 C83.0643277,89.2615102 83.9415368,89.7331146 84.5196118,90.1952404 C85.0976867,90.656174 85.5229432,91.1998514 85.7946966,91.8238286 C86.0659366,92.448223 86.2023267,93.2080003 86.2023267,94.1022663 C86.2023267,95.8901423 85.5895125,97.2419438 84.3643974,98.1559419 C83.1385979,99.0689266 81.379217,99.5264621 79.086426,99.5264621 C77.8414599,99.5264621 76.7592379,99.4607678 75.8406155,99.3269349 C74.9206241,99.1942347 73.9821508,98.9522624 73.0241686,98.5976798 L73.0241686,93.9839926 C73.9227689,94.3772049 74.9084739,94.7007883 75.9809416,94.9564121 C77.0532381,95.2122147 78.0098512,95.3397882 78.8494118,95.3397882 C80.1043033,95.3397882 80.7321769,95.0551325 80.7321769,94.4854038 C80.7321769,94.1897196 80.5565982,93.9269422 80.2061253,93.6969523 C79.855139,93.4660087 78.8348658,93.014971 77.1447923,92.3469393 C75.6034302,91.718193 74.5253153,91.0040202 73.9130145,90.2027518 C73.3003714,89.4020794 72.9940499,88.3868572 72.9940499,87.1583966 C72.9940499,85.605816 73.5967675,84.3970875 74.8028871,83.5320919 C76.0086645,82.6670963 77.7127706,82.2349562 79.9169167,82.2349562 Z M130.472121,81.9807036 C132.45842,81.9807036 133.926025,82.5030393 134.874937,83.5471146 C135.823849,84.5915476 136.298391,86.1778695 136.298391,88.307869 L136.298391,99.517222 L130.501898,99.517222 L130.501898,90.1480859 C130.501898,88.9819813 130.346341,88.107686 130.035057,87.5245442 C129.723259,86.940866 129.231604,86.6506662 128.559922,86.6506662 C127.670562,86.6506662 127.017875,87.0401229 126.603229,87.8212419 C126.188069,88.6024205 125.980489,89.8235487 125.980489,91.4866532 L125.980489,99.517222 L120.169278,99.517222 L120.169278,90.1480859 C120.169278,88.9819813 120.021423,88.107686 119.724856,87.5245442 C119.428117,86.940866 118.948955,86.6506662 118.286856,86.6506662 C117.377474,86.6506662 116.715546,87.0658164 116.300728,87.8968918 C115.885055,88.7289209 115.677646,90.0872799 115.677646,91.9734591 L115.677646,99.517222 L109.881666,99.517222 L109.881666,82.2849126 L114.254706,82.2849126 L114.980979,84.4143159 L115.322211,84.4143159 C115.766634,83.6228837 116.411962,83.0204271 117.256657,82.6046807 C118.101694,82.1887556 119.062414,81.9807036 120.139673,81.9807036 C122.56064,81.9807036 124.260981,82.7363675 125.238986,84.2470993 L125.698981,84.2470993 C126.173352,83.5368014 126.832713,82.9823339 127.67775,82.5811929 C128.522444,82.1808866 129.454415,81.9807036 130.472121,81.9807036 Z M51.7156551,81.9807036 C52.219631,81.9807036 52.6986221,82.0213602 53.1534839,82.1020772 L53.4796564,82.1627044 L52.9609634,87.775697 C52.4864217,87.6534888 51.8291138,87.5931001 50.9888687,87.5931001 C49.7240517,87.5931001 48.8049159,87.8892016 48.2319748,88.4825969 C47.6586915,89.0757537 47.3725632,89.9298996 47.3725632,91.0456306 L47.3725632,99.517222 L41.5757276,99.517222 L41.5757276,82.2849126 L45.8897274,82.2849126 L46.7938038,85.0376969 L47.0759961,85.0376969 C47.5597787,84.1250699 48.2343707,83.3874093 49.0989161,82.825192 C49.9641461,82.2621997 50.8360502,81.9807036 51.7156551,81.9807036 Z M60.8592675,76.6515917 L60.8592675,99.517222 L55.0629452,99.517222 L55.0629452,76.6515917 L60.8592675,76.6515917 Z M69.9431558,82.2659554 L69.9431558,99.517222 L64.1470046,99.517222 L64.1470046,82.2659554 L69.9431558,82.2659554 Z M104.296175,93.8827088 C105.274522,93.8827088 106.025609,94.1274829 106.549093,94.6168522 C107.073263,95.1075926 107.334748,95.8022717 107.334748,96.7039893 C107.334748,97.5854383 107.065904,98.274156 106.526846,98.7680559 C105.988816,99.263327 105.245259,99.5104856 104.296175,99.5104856 C103.317829,99.5104856 102.54672,99.2658904 101.983533,98.7753884 C101.420689,98.2860191 101.138839,97.5949169 101.138839,96.7039893 C101.138839,95.8022717 101.408196,95.1075926 101.946398,94.6168522 C102.485627,94.1274829 103.268715,93.8827088 104.296175,93.8827088 Z M14.9166836,76.597522 C17.3453514,76.597522 19.6668922,77.1204538 21.8802793,78.1670925 L20.0202743,82.905909 C19.1901258,82.5200292 18.3598062,82.1952535 17.5301711,81.9303896 C16.6998515,81.667016 15.8080964,81.5343754 14.8552482,81.5343754 C13.410232,81.5343754 12.2828318,82.1210344 11.4732188,83.294233 C10.663777,84.4682067 10.2588849,86.0855278 10.2588849,88.1475676 C10.2588849,92.4349888 11.9037803,94.577984 15.1933998,94.577984 C16.1873191,94.577984 17.1504351,94.4415877 18.0832612,94.1665895 C19.015745,93.8927835 19.9531916,93.5615695 20.8961144,93.1760474 L20.8961144,98.2650947 C19.02105,99.0882414 16.8995595,99.4996359 14.5324983,99.4996359 C11.1403722,99.4996359 8.54006172,98.5250703 6.73139559,96.5737333 C4.92255834,94.6228136 4.01831084,91.803858 4.01831084,88.1169857 C4.01831084,85.8117219 4.45623085,83.7847946 5.33241314,82.0373366 C6.20825316,80.2901171 7.46930536,78.9464231 9.11402957,78.0067911 C10.759096,77.0677553 12.6930288,76.597522 14.9166836,76.597522 Z M33.2538783,91.9325641 L31.9197538,91.9931912 C30.0125172,92.0622836 29.0589845,92.7719257 29.0589845,94.1214023 C29.0589845,95.1611258 29.6072829,95.6792885 30.7043932,95.6792885 C31.4060235,95.6792885 32.0065164,95.45526 32.5053585,95.0047589 C33.0042006,94.5562846 33.2538783,93.9705795 33.2538783,93.2514588 L33.2538783,91.9325641 Z M67.0671559,76.6385959 C68.1444152,76.6385959 68.9295566,76.8535631 69.4244627,77.2850474 C69.9186843,77.7161741 70.1657951,78.352849 70.1657951,79.1953702 C70.1657951,80.8803529 69.1326872,81.7231126 67.0671559,81.7231126 C65.0214756,81.7231126 63.9989777,80.8803529 63.9989777,79.1953702 C63.9989777,78.3332957 64.2407835,77.6917324 64.7250796,77.2698459 C65.2093756,76.8492113 65.9902389,76.6385959 67.0671559,76.6385959 Z M82.4597277,54.0055188 C82.4597277,54.0055188 141.511333,55.6080557 156,76.6385959 C156,76.6385959 115.545706,65.5677852 96.357827,71.0058711 C96.357827,71.0058711 108.836922,63.5570729 133.372421,67.1061778 C133.372421,67.1061778 115.449873,58.0748132 79.2768929,57.0220344 C79.2768929,57.0220344 66.7897552,58.257589 54.873505,68.2219088 C54.7037447,68.3634318 30.0089235,63.5772224 4,76.6385959 C4,76.6385959 19.8219354,62.3862588 52.8947363,64.9803513 C52.8947363,64.9803513 71.9965369,53.7151402 82.4597277,54.0055188 Z" id="logo" fill="#0A96FF"></path>
    </g>
</svg>