<?xml version="1.0" encoding="UTF-8"?>
<svg width="160px" height="160px" viewBox="0 0 160 160" version="1.1" xmlns="http://www.w3.org/2000/svg" xmlns:xlink="http://www.w3.org/1999/xlink">
    <title>logo-mymahi</title>
    <defs>
        <linearGradient x1="16.9543652%" y1="7.92162259%" x2="88.476439%" y2="92.5906033%" id="linearGradient-1">
            <stop stop-color="#AA39F3" offset="0%"></stop>
            <stop stop-color="#6F00B7" offset="100%"></stop>
        </linearGradient>
        <linearGradient x1="82.1295423%" y1="7.70735397%" x2="12.506195%" y2="92.2616142%" id="linearGradient-2">
            <stop stop-color="#00E1FA" offset="0%"></stop>
            <stop stop-color="#0090F0" offset="100%"></stop>
        </linearGradient>
        <linearGradient x1="17.2491448%" y1="87.2997034%" x2="83.3324945%" y2="11.1849327%" id="linearGradient-3">
            <stop stop-color="#F05200" offset="0%"></stop>
            <stop stop-color="#FF8700" offset="100%"></stop>
        </linearGradient>
    </defs>
    <g id="logo-mymahi" stroke="none" stroke-width="1" fill="none" fill-rule="evenodd">
        <g transform="translate(21.000000, 26.000000)" fill-rule="nonzero" id="Group">
            <g transform="translate(0.935484, 0.000000)">
                <path d="M67.092344,4.56649462 L56.9758021,16.615015 L90.4517203,54.3764129 C94.8777074,59.3644301 102.465114,59.9264602 107.558512,55.6409806 L111.317088,52.4795612 C116.515867,48.1238279 117.183277,40.3607871 112.827544,35.1620086 C112.75729,35.0917548 112.687036,35.021501 112.65191,34.9512473 L95.3343569,15.2801935 L85.7095913,4.35573333 C81.2133505,-0.737664515 73.4503096,-1.22944086 68.3569118,3.23167312 C67.9353892,3.6531957 67.4787397,4.10984516 67.092344,4.56649462 Z" id="Rectangle-Copy-2" fill="url(#linearGradient-1)"></path>
                <path d="M47.1402752,4.88263655 L56.9758021,16.6501419 L25.6777505,53.9900172 C21.3220172,59.1887956 13.5589763,59.8913333 8.36019784,55.5004731 L4.53136774,52.3039268 C-0.667410752,47.9481935 -1.36994839,40.1851526 3.02091183,34.9863742 C3.02091183,34.9863742 3.02091183,34.9863742 3.02091183,34.9863742 L28.3122666,4.84750967 C32.668,-0.351268817 40.3959139,-1.01867957 45.6298193,3.33705376 C46.1567225,3.79370322 46.6836258,4.32060645 47.1402752,4.88263655 Z" id="Rectangle" fill="url(#linearGradient-2)"></path>
                <path d="M85.7447182,4.35573333 L96.493544,16.5798882 L66.7410752,52.5146881 C62.4204688,57.7485935 54.6574279,58.486258 49.4235225,54.1656516 C48.7209849,53.6036215 48.088701,52.9362107 47.5617978,52.2336731 L37.7262709,39.5879957 L67.092344,4.56649462 C71.4480774,-0.63228387 79.2111182,-1.29969462 84.4098967,3.05603871 C84.901673,3.44243441 85.3231956,3.89908387 85.7447182,4.35573333 Z" id="Rectangle-Copy" fill="url(#linearGradient-3)"></path>
                <polygon id="Rectangle-Copy-3" fill="#000000" opacity="0.1986" points="56.9758021 16.615015 40.8525634 43.5924602 37.7262709 39.5879957"></polygon>
                <polygon id="Rectangle-Copy-4" fill="#000000" opacity="0.1986" points="96.493544 16.5798882 80.756701 43.4519526 77.3845204 39.6582494"></polygon>
            </g>
            <g transform="translate(0.000000, 77.000000)" fill="#011E42">
                <path d="M0.571085036,24.7351206 C0.428313777,24.5923494 0.321235333,24.3781925 0.321235333,24.1640356 L0.321235333,1.85602637 C0.321235333,1.60617667 0.392620963,1.39201978 0.535392222,1.24924852 C0.678163481,1.10647726 0.89232037,0.999398814 1.14217007,0.999398814 L3.92620963,0.999398814 C4.3545234,0.999398814 4.71145155,1.2135557 4.96130125,1.64186948 L11.564472,13.9201978 L18.1676427,1.64186948 C18.4174924,1.2135557 18.7744206,0.999398814 19.2027344,0.999398814 L21.9510811,0.999398814 C22.2009308,0.999398814 22.4150877,1.07078444 22.5578589,1.24924852 C22.7006302,1.39201978 22.8077086,1.60617667 22.8077086,1.85602637 L22.8077086,24.1640356 C22.8077086,24.4138853 22.736323,24.6280422 22.5578589,24.7708135 C22.4150877,24.9135847 22.2009308,24.9849703 21.9510811,24.9849703 L18.9885775,24.9849703 C18.7744206,24.9849703 18.5602637,24.9135847 18.4174924,24.7351206 C18.2747212,24.5923494 18.1676427,24.3781925 18.1676427,24.1640356 L18.1676427,9.4229031 L13.4204984,18.4531852 C13.1706487,18.9528846 12.7780277,19.2027344 12.2783283,19.2027344 L10.8506157,19.2027344 C10.3866091,19.2027344 9.99398814,18.9528846 9.67275281,18.4531852 L4.92560844,9.4229031 L4.92560844,24.1640356 C4.92560844,24.3781925 4.85422281,24.5923494 4.71145155,24.7351206 C4.56868029,24.8778919 4.3545234,24.9849703 4.1046737,24.9849703 L1.14217007,24.9849703 C0.928013184,24.9849703 0.713856296,24.9135847 0.571085036,24.7351206 Z" id="Shape"></path>
                <path d="M29.6964219,31.3025986 C29.5536506,31.1598273 29.482265,31.017056 29.482265,30.838592 C29.482265,30.6958207 29.5179578,30.4816638 29.6250363,30.3031997 L32.3376902,23.9498787 L25.7702123,8.42350429 C25.6631338,8.2093474 25.627441,8.06657614 25.627441,7.9594977 C25.6631338,7.74534081 25.7345195,7.56687673 25.8772907,7.42410547 C26.020062,7.28133422 26.198526,7.20994859 26.3769901,7.20994859 L29.2324153,7.20994859 C29.6607291,7.20994859 29.9462716,7.42410547 30.1247357,7.85241925 L34.693416,19.0242703 L39.3334819,7.85241925 C39.5476388,7.42410547 39.8688741,7.20994859 40.2971879,7.20994859 L43.0812274,7.20994859 C43.2953843,7.20994859 43.4738484,7.28133422 43.5809268,7.42410547 C43.7236981,7.56687673 43.7950837,7.70964799 43.7950837,7.88811207 C43.7950837,8.03088333 43.7593909,8.24504021 43.6523125,8.42350429 L33.908174,30.838592 C33.72971,31.2669057 33.4084746,31.4810626 32.944468,31.4810626 L30.1961213,31.4810626 C30.0176572,31.4810626 29.874886,31.409677 29.6964219,31.3025986 Z" id="Shape"></path>
                <path d="M46.5791233,24.7351206 C46.436352,24.5923494 46.3292736,24.3781925 46.3292736,24.1640356 L46.3292736,1.85602637 C46.3292736,1.60617667 46.4006592,1.39201978 46.5434305,1.24924852 C46.6862017,1.10647726 46.9003586,0.999398814 47.1502083,0.999398814 L49.9342479,0.999398814 C50.3625617,0.999398814 50.7194898,1.2135557 50.9693395,1.64186948 L57.5725102,13.9201978 L64.175681,1.64186948 C64.4255307,1.2135557 64.7824588,0.999398814 65.2107726,0.999398814 L67.9591193,0.999398814 C68.208969,0.999398814 68.4231259,1.07078444 68.5658972,1.24924852 C68.7086685,1.39201978 68.8157469,1.60617667 68.8157469,1.85602637 L68.8157469,24.1640356 C68.8157469,24.4138853 68.7443613,24.6280422 68.5658972,24.7708135 C68.4231259,24.9135847 68.208969,24.9849703 67.9591193,24.9849703 L64.9966157,24.9849703 C64.7824588,24.9849703 64.5683019,24.9135847 64.4255307,24.7351206 C64.2827594,24.5923494 64.175681,24.3781925 64.175681,24.1640356 L64.175681,9.4229031 L59.4285366,18.4531852 C59.1786869,18.9528846 58.7860659,19.2027344 58.2863665,19.2027344 L56.8586539,19.2027344 C56.3946474,19.2027344 56.0020264,18.9528846 55.6807911,18.4531852 L50.9336467,9.4229031 L50.9336467,24.1640356 C50.9336467,24.3781925 50.8622611,24.5923494 50.7194898,24.7351206 C50.5767185,24.8778919 50.3625617,24.9849703 50.112712,24.9849703 L47.1502083,24.9849703 C46.9360514,24.9849703 46.7575874,24.9135847 46.5791233,24.7351206 Z" id="Shape"></path>
                <path d="M74.9906039,24.6280422 C74.0268979,24.1640356 73.2416559,23.5215649 72.7062637,22.736323 C72.1351787,21.9510811 71.8496362,21.0587607 71.8496362,20.0950547 C71.8496362,18.5245709 72.4921068,17.2753224 73.7413553,16.3116164 C74.9906039,15.3479104 76.7395518,14.7054397 78.9168135,14.3485115 L83.628265,13.6703481 L83.628265,12.9564918 C83.628265,11.957093 83.3784153,11.2432367 82.8787159,10.7435372 C82.3790165,10.2438378 81.5937746,9.99398814 80.4872973,9.99398814 C79.7377482,9.99398814 79.1309704,10.1367594 78.6669638,10.4223019 C78.2029572,10.7078444 77.846029,10.993387 77.5604865,11.2789295 C77.274944,11.564472 77.0964799,11.7429361 76.9894015,11.8500145 C76.882323,12.135557 76.7395518,12.2783283 76.4897021,12.2783283 L73.812741,12.2783283 C73.5985841,12.2783283 73.42012,12.2069427 73.2773487,12.0641714 C73.1345775,11.9214001 73.0631919,11.7429361 73.0631919,11.5287792 C73.0988847,10.9576941 73.3487344,10.3152235 73.9198194,9.60136718 C74.4552116,8.88751088 75.2761464,8.24504021 76.4183164,7.70964799 C77.5247937,7.17425577 78.9168135,6.88871325 80.558683,6.88871325 C83.2713369,6.88871325 85.2344417,7.4954911 86.4479974,8.70904681 C87.6972459,9.92260251 88.3040238,11.4930864 88.3040238,13.4561912 L88.3040238,24.1997284 C88.3040238,24.4138853 88.2326381,24.6280422 88.0898669,24.7708135 C87.9470956,24.9135847 87.7329387,25.0206632 87.483089,25.0206632 L84.6276638,25.0206632 C84.413507,25.0206632 84.1993501,24.9492775 84.0565788,24.7708135 C83.9138075,24.6280422 83.8067291,24.4138853 83.8067291,24.1997284 L83.8067291,22.8434015 C83.3070297,23.5572578 82.5931734,24.1640356 81.6651602,24.6280422 C80.737147,25.0920488 79.594977,25.3418985 78.23865,25.3418985 C77.0250943,25.3418985 75.9543099,25.0920488 74.9906039,24.6280422 Z M82.4147093,20.808911 C83.1999513,19.9879763 83.628265,18.8101134 83.628265,17.2396295 L83.628265,16.5614661 L80.2017548,17.0968583 C77.5604865,17.5251721 76.2755452,18.3817996 76.2755452,19.7381266 C76.2755452,20.4519829 76.5610877,21.0230679 77.1678656,21.4513817 C77.7746434,21.8440026 78.4884997,22.0581595 79.3451273,22.0581595 C80.5943758,22.0224667 81.6294674,21.6298458 82.4147093,20.808911 Z" id="Shape"></path>
                <path d="M92.1231549,24.7351206 C91.9803837,24.5923494 91.8733052,24.3781925 91.8733052,24.1640356 L91.8733052,1.46340541 C91.8733052,1.2135557 91.9446909,0.999398814 92.1231549,0.856627555 C92.2659262,0.713856296 92.4800831,0.642470666 92.69424,0.642470666 L95.7995149,0.642470666 C96.0493646,0.642470666 96.2635215,0.713856296 96.4062927,0.856627555 C96.549064,0.999398814 96.6204496,1.2135557 96.6204496,1.46340541 L96.6204496,9.28013184 C97.9767766,7.63826236 99.8328029,6.81732762 102.152836,6.81732762 C104.258712,6.81732762 105.936274,7.4954911 107.185523,8.88751088 C108.434771,10.2795307 109.077242,12.135557 109.077242,14.5269756 L109.077242,24.1640356 C109.077242,24.3781925 109.005856,24.5923494 108.863085,24.7351206 C108.720314,24.8778919 108.506157,24.9849703 108.256307,24.9849703 L105.151032,24.9849703 C104.901183,24.9849703 104.687026,24.9135847 104.544254,24.7351206 C104.401483,24.5923494 104.294405,24.3781925 104.294405,24.1640356 L104.294405,14.7411325 C104.294405,13.4204984 103.973169,12.3854067 103.330699,11.6358576 C102.688228,10.8863085 101.760215,10.5293804 100.546659,10.5293804 C99.3687963,10.5293804 98.4407832,10.9220013 97.7269269,11.6715504 C97.0130706,12.4210995 96.6561424,13.4561912 96.6561424,14.7411325 L96.6561424,24.1640356 C96.6561424,24.3781925 96.5847568,24.5923494 96.4419855,24.7351206 C96.2992143,24.8778919 96.0850574,24.9849703 95.8352077,24.9849703 L92.7299328,24.9849703 C92.4800831,24.9849703 92.2659262,24.9135847 92.1231549,24.7351206 Z" id="Shape"></path>
                <path d="M112.789295,3.99759526 C112.646523,3.854824 112.539445,3.64066711 112.539445,3.42651022 L112.539445,0.928013184 C112.539445,0.678163481 112.610831,0.464006592 112.789295,0.321235333 C112.932066,0.178464074 113.146223,0.0713856296 113.36038,0.0713856296 L116.501347,0.0713856296 C116.751197,0.0713856296 116.965354,0.142771259 117.108125,0.321235333 C117.250897,0.464006592 117.357975,0.678163481 117.357975,0.928013184 L117.357975,3.42651022 C117.357975,3.64066711 117.286589,3.854824 117.108125,3.99759526 C116.929661,4.14036651 116.751197,4.24744496 116.501347,4.24744496 L113.36038,4.24744496 C113.146223,4.24744496 112.932066,4.17605933 112.789295,3.99759526 Z M112.932066,24.7351206 C112.789295,24.5923494 112.682216,24.3781925 112.682216,24.1640356 L112.682216,7.99519051 C112.682216,7.74534081 112.753602,7.53118392 112.932066,7.38841266 C113.074837,7.2456414 113.288994,7.17425577 113.503151,7.17425577 L116.429962,7.17425577 C116.644119,7.17425577 116.858276,7.2456414 117.001047,7.42410547 C117.143818,7.56687673 117.250897,7.78103362 117.250897,7.99519051 L117.250897,24.1640356 C117.250897,24.3781925 117.179511,24.5923494 117.001047,24.7351206 C116.858276,24.8778919 116.644119,24.9849703 116.429962,24.9849703 L113.503151,24.9849703 C113.288994,24.9849703 113.074837,24.9135847 112.932066,24.7351206 Z" id="Shape"></path>
            </g>
        </g>
    </g>
</svg>